<svg enable-background="new 0 0 512 512" height="512" viewBox="0 0 512 512" width="512" xmlns="http://www.w3.org/2000/svg"><g id="_x31_48_Blank_Paper"><g><path d="m500.264 180.638-119.021-112.446c-.029-.028-.068-.036-.098-.061-4.038-3.949-9.34-6.142-15.002-6.142h-340.763c-12.101 0-21.937 9.836-21.937 21.926v344.16c0 12.101 9.836 21.937 21.937 21.937h461.25c12.091 0 21.926-9.836 21.926-21.937v-230.59c0-6.856-3.283-12.904-8.292-16.847zm-112.614-92.014 92.452 87.343h-80.963c-6.336 0-11.489-5.153-11.489-11.489zm110.459 339.451c0 6.336-5.153 11.489-11.478 11.489h-461.251c-6.336 0-11.489-5.153-11.489-11.489v-344.16c0-6.326 5.153-11.478 11.489-11.478h340.762c6.22 0 11.06 5.092 11.06 11.07v80.972c0 12.101 9.836 21.937 21.937 21.937h87.91c5.413 0 11.06 4.891 11.06 11.07z"/></g></g></svg>