<svg width="68" height="112" viewBox="0 0 68 112" fill="none" xmlns="http://www.w3.org/2000/svg">
<path d="M0.592224 34.2544C0.592224 15.7529 15.5907 0.754395 34.0922 0.754395C52.5938 0.754395 67.5922 15.7529 67.5922 34.2544V77.7456C67.5922 96.2472 52.5938 111.246 34.0922 111.246C15.5907 111.246 0.592224 96.2472 0.592224 77.7456V34.2544Z" fill="#2E2E2E"/>
<path d="M0.592224 26.3516C0.84085 26.2109 1.09219 26.0739 1.34625 25.9406C6.02291 23.4106 11.1596 22.1456 16.7562 22.1456C20.0529 22.1456 23.3112 22.6439 26.5312 23.6406C29.8279 24.6373 32.5879 26.4006 34.8112 28.9306C37.1112 31.3839 38.4146 34.8723 38.7212 39.3956H41.3663V21.8006C38.7596 20.6506 35.2329 19.6539 30.7863 18.8106C26.4162 17.9673 22.1612 17.5456 18.0212 17.5456C12.7336 17.5456 7.69854 18.3032 2.91601 19.8185C1.92644 21.8877 1.14298 24.0742 0.592224 26.3516Z" fill="#F5F5F5"/>
<path d="M5.55152 96.7331C8.10306 97.2247 10.7263 97.4706 13.4212 97.4706C18.4812 97.4706 23.0429 96.7423 27.1063 95.2856C31.1696 93.8289 34.6196 92.1806 37.4562 90.3406C40.3696 88.4239 42.4779 86.8139 43.7812 85.5106C43.3212 83.5173 43.0529 81.6006 42.9763 79.7606C42.8996 77.9206 42.8612 75.9656 42.8612 73.8956V71.2256C42.8612 69.4622 43.0912 68.1589 43.5513 67.3156C44.0879 66.3956 45.1613 65.8973 46.7713 65.8206V63.1756H19.9762V65.8206C23.5029 65.8973 26.2629 66.1656 28.2562 66.6256C30.2496 67.0856 31.6296 68.1589 32.3963 69.8456C32.6617 70.3523 32.8853 70.5691 33.0672 70.7455C33.4632 71.1293 33.6613 71.3213 33.6613 73.8956C33.6613 76.9623 33.4696 79.3773 33.0862 81.1406C32.7796 82.8273 32.5112 83.9389 32.2812 84.4756C30.9779 87.3889 28.8312 89.5739 25.8412 91.0306C22.8512 92.4106 19.5546 93.1006 15.9512 93.1006C10.8118 93.1006 6.02386 91.7295 1.58752 88.9873C2.57328 91.7552 3.91274 94.3552 5.55152 96.7331Z" fill="#F5F5F5"/>
</svg>
