<svg width="199" height="31" viewBox="0 0 199 31" fill="none" xmlns="http://www.w3.org/2000/svg">
<path d="M17.56 4.8C18.92 4.8 19.16 5.4 18.68 5.8C17.96 6.56 16.6 6.4 15.4 6.72C17.12 8 18.2 10.2 18.2 12.24C18.2 15.56 16.36 18.16 13.4 19.44C16.88 20.2 18.6 22.12 18.6 24.48C18.6 28.2 14.72 30.48 9.32 30.48C3.16 30.48 0.2 26.96 0.2 24.4C0.2 23.6 0.64 22.88 1.68 22.88C4.16 22.88 2.88 29.16 9.56 29.2C12.84 29.2 15.04 27.4 15.04 24.72C15.04 22.16 13.32 20.4 10.6 20.16C10.08 20.2 9.6 20.24 9.08 20.24C4.28 20.24 0.52 16.8 0.52 12.48C0.52 7.8 4.04 4.4 9.36 4.4C12.08 4.4 12.52 4.8 17.56 4.8ZM9.72 18.92C12.8 18.92 14.72 16.56 14.72 13.48C14.72 9.32 12.28 5.68 8.72 5.68C5.84 5.68 4 8 4 11.04C4 15.32 6.48 18.92 9.72 18.92ZM36.77 20.8C37.01 23.28 39.01 22.4 39.01 23.4C39.01 24 37.93 24.24 36.45 24.24C34.65 24.24 33.69 23.8 33.53 21.6C32.61 23.28 30.69 24.4 27.77 24.4C23.37 24.4 20.33 22.2 20.33 18.36C20.29 14.52 23.49 12.44 27.65 12.44C29.77 12.44 31.49 13.04 32.57 14.04L32.49 12.96C32.05 8.24 30.77 5.68 27.57 5.68C23.41 5.68 24.05 10.24 22.05 10.24C21.09 10.24 20.49 9.68 20.49 8.76C20.49 6.64 23.21 4.4 27.57 4.4C32.49 4.4 35.45 7.56 35.97 12.84L36.77 20.8ZM28.65 23.12C31.33 23.12 33.09 21.16 33.01 18.72L32.85 16.92C32.45 15.04 30.81 13.72 28.45 13.72C25.73 13.72 23.85 15.4 23.85 17.88C23.85 20.8 25.77 23.12 28.65 23.12ZM47.0444 24.36C41.7244 24.36 38.9244 21.68 38.9244 19.8C38.9244 18.84 39.5644 18.32 40.4844 18.32C42.9644 18.32 41.6844 23.2 47.0444 23.2C49.6044 23.2 51.6044 21.96 51.6044 19.68C51.6044 13.8 39.3644 17.76 39.3644 9.88C39.3644 6.8 42.4844 4.4 46.8844 4.4C51.8444 4.4 54.6844 6.96 54.6844 9.12C54.6844 9.92 54.0444 10.52 53.2444 10.52C50.9644 10.52 51.9644 5.64 47.0444 5.64C44.7244 5.64 42.9244 7.12 42.9244 9.12C42.9244 14.88 55.1244 10.96 55.1244 18.96C55.1244 21.96 52.0044 24.36 47.0444 24.36ZM63.48 24.4C60.4 24.4 58.32 22.44 58.32 18.36V6.4H55.68C55.32 6.4 55.08 6.16 55.08 5.8V5.4C55.08 5.04 55.28 4.8 55.68 4.8H57.12C59.04 4.8 59.96 3.28 60.16 0.999998C60.2 0.48 60.48 0.199999 60.84 0.199999H61.24C61.72 0.199999 61.88 0.48 61.88 0.999998L61.92 4.8H67.44C67.76 4.8 68.04 5.08 68.04 5.4V5.8C68.04 6.16 67.76 6.4 67.44 6.4H61.92V18.4C61.92 20.6 62.96 21.76 64.44 21.76C66.2 21.76 67.24 20.72 67.4 19.36C67.64 18.76 68.6 18.8 68.6 19.52C68.6 22 66.68 24.4 63.48 24.4ZM79.0978 4.4C81.4978 4.4 82.7778 5.8 82.7778 7.48C82.7778 8.52 82.2978 9.36 81.1778 9.36C79.0978 9.36 80.0978 6.56 77.6178 6.56C75.4178 6.56 74.2178 9.08 74.2178 12.08V21.2C74.2178 22.6 75.8978 22.64 75.8978 23.36V23.52C75.8978 23.84 75.6178 24 75.0978 24H70.1378C69.6178 24 69.3378 23.84 69.3378 23.52V23.36C69.3378 22.64 70.8178 22.6 70.8178 21.2V9.04C70.8178 7.52 69.2178 7.48 69.2178 6.72V6.64C69.2178 6.36 69.4578 6.12 69.8178 5.92L72.8578 4.56C73.6178 4.2 73.8978 4.52 73.8978 5.12V8.32C74.7778 5.76 76.6178 4.4 79.0978 4.4ZM92.9006 24.4C86.5406 24.4 82.4606 19.56 82.4606 14.12C82.4606 8.56 86.7006 4.4 92.1806 4.4C98.1806 4.4 102.341 8.96 102.341 14.56C102.341 20.08 98.5406 24.4 92.9006 24.4ZM93.3806 23.08C96.5006 23.08 98.8206 20.24 98.8206 15.76C98.8206 10.16 95.8606 5.72 91.7806 5.72C88.3806 5.72 86.0206 8.52 86.0206 13C86.0206 18.12 88.9806 23.08 93.3806 23.08ZM122.918 21.12C122.998 22.6 124.358 22.6 124.358 23.36V23.52C124.358 23.84 124.038 24.04 123.518 24.04H118.758C118.238 24.04 117.918 23.84 117.918 23.52V23.36C117.918 22.6 119.438 22.6 119.358 21.16L118.958 13.16C118.758 8.28 116.798 5.96 114.038 5.96C111.078 5.96 109.038 8.32 109.038 11.48V21.2C109.038 22.6 110.638 22.6 110.638 23.36V23.52C110.638 23.84 110.318 24.04 109.798 24.04H104.798C104.318 24.04 103.998 23.84 103.998 23.52V23.36C103.998 22.6 105.558 22.6 105.558 21.2V9.08C105.558 7.36 103.878 7.44 103.878 6.72V6.6C103.878 6.32 104.118 6.16 104.518 6L107.518 4.56C108.278 4.16 108.638 4.56 108.638 5.16V8.08C109.798 5.84 112.118 4.4 114.878 4.4C118.798 4.4 122.078 7.04 122.478 13.24L122.918 21.12ZM135.687 24.4C129.327 24.4 125.247 19.56 125.247 14.12C125.247 8.56 129.487 4.4 134.967 4.4C140.967 4.4 145.127 8.96 145.127 14.56C145.127 20.08 141.327 24.4 135.687 24.4ZM136.167 23.08C139.287 23.08 141.607 20.24 141.607 15.76C141.607 10.16 138.647 5.72 134.567 5.72C131.167 5.72 128.807 8.52 128.807 13C128.807 18.12 131.767 23.08 136.167 23.08ZM178.744 21.16C178.824 22.6 180.224 22.68 180.224 23.4V23.56C180.224 23.88 179.864 24.04 179.424 24.04H174.624C174.104 24.04 173.824 23.88 173.824 23.56V23.4C173.824 22.68 175.264 22.6 175.224 21.2L174.824 13.4C174.544 8 172.744 5.96 169.824 5.96C167.304 5.96 165.184 8.2 165.064 11.24C165.184 11.84 165.224 12.52 165.224 13.2V21.2C165.224 22.6 166.624 22.68 166.624 23.4V23.56C166.624 23.88 166.344 24.04 165.864 24.04H161.144C160.624 24.04 160.304 23.88 160.304 23.56V23.4C160.304 22.68 161.704 22.6 161.704 21.2V13C161.704 8.56 159.504 5.96 156.744 5.96C153.904 5.96 151.904 8.36 151.784 11.36L151.824 21.2C151.824 22.6 153.384 22.68 153.384 23.4V23.56C153.384 23.88 153.064 24.04 152.584 24.04H147.584C147.104 24.04 146.784 23.88 146.784 23.56V23.4C146.784 22.68 148.304 22.6 148.304 21.2V9.08C148.304 7.48 146.704 7.44 146.704 6.72V6.6C146.704 6.32 146.904 6.16 147.304 6L150.424 4.56C151.184 4.16 151.584 4.56 151.584 5.16V8C152.744 5.84 154.944 4.4 157.504 4.4C160.464 4.4 163.064 5.96 164.344 8.8C165.344 6.04 167.864 4.4 170.744 4.4C174.824 4.4 177.904 6.88 178.304 13.48L178.744 21.16ZM197.359 18.36C197.719 17.8 198.639 17.92 198.519 18.68C198.039 21.08 195.399 24.4 190.399 24.4C185.239 24.4 181.119 20.48 181.119 14.24C181.119 8.6 185.239 4.4 190.559 4.4C195.359 4.4 197.999 7.56 197.999 10.32C197.999 11.6 197.319 12.28 196.119 12.68L185.039 16.32C185.959 19.76 188.399 21.84 191.639 21.84C194.599 21.84 196.479 20.28 197.359 18.36ZM189.959 5.68C186.719 5.68 184.599 8.88 184.599 12.96C184.599 13.68 184.639 14.36 184.759 15L193.679 11.8C194.359 11.52 194.639 11.08 194.639 10.4C194.639 8.6 192.719 5.68 189.959 5.68Z" fill="#1E1E1E"/>
</svg>
