<?xml version="1.0" encoding="iso-8859-1"?>
<!-- Generator: Adobe Illustrator 19.0.0, SVG Export Plug-In . SVG Version: 6.00 Build 0)  -->
<svg version="1.1" id="Capa_1" xmlns="http://www.w3.org/2000/svg" xmlns:xlink="http://www.w3.org/1999/xlink" x="0px" y="0px"
	 viewBox="0 0 52.615 52.615" style="enable-background:new 0 0 52.615 52.615;" xml:space="preserve">
<g>
	<g>
		<path d="M1.224,19.627C0.538,19.631-0.02,20.212,0.001,20.9c0.022,0.657,0.579,1.202,1.262,1.198
			c0.681-0.006,1.213-0.556,1.211-1.249C2.472,20.161,1.924,19.623,1.224,19.627z"/>
	</g>
</g>
<g>
	<g>
		<path d="M0.267,23.38c0,3.453,0,6.904,0,10.357c0.647,0,1.289,0,1.938,0c0-3.459,0-6.906,0-10.357
			C1.557,23.38,0.915,23.38,0.267,23.38z"/>
	</g>
</g>
<g>
	<g>
		<path d="M29.437,32.316c0-0.03-0.003-0.065-0.004-0.108c-0.056,0.014-0.107,0.021-0.156,0.035
			c-0.474,0.119-0.952,0.162-1.438,0.086c-0.432-0.068-0.746-0.283-0.917-0.695c-0.101-0.248-0.139-0.508-0.139-0.772
			c-0.002-2.104-0.001-4.206-0.001-6.309c0-0.037,0-0.076,0-0.12c0.817,0,1.616,0,2.425,0c0-0.458,0-0.903,0-1.361
			c-0.811,0-1.614,0-2.427,0c0-0.858,0-1.705,0-2.563c-0.229,0-0.448-0.002-0.668,0.003c-0.027,0.001-0.062,0.034-0.077,0.06
			c-0.079,0.141-0.149,0.287-0.227,0.428c-0.419,0.759-0.964,1.421-1.611,1.992c-0.309,0.271-0.661,0.496-0.992,0.744
			c-0.029,0.022-0.071,0.055-0.071,0.085c-0.006,0.2-0.003,0.401-0.003,0.616c0.567,0,1.124,0,1.687,0c0,0.057,0,0.1,0,0.144
			c0,1.535-0.002,3.074,0,4.608c0,0.759-0.001,1.515,0.013,2.271c0.008,0.481,0.126,0.945,0.363,1.369
			c0.338,0.606,0.842,0.981,1.546,1.043c0.289,0.023,0.579,0.009,0.869,0.002c0.598-0.017,1.178-0.133,1.737-0.353
			c0.07-0.028,0.094-0.061,0.093-0.135C29.435,33.032,29.437,32.671,29.437,32.316z"/>
	</g>
</g>
<g>
	<g>
		<path d="M6.4,31.995c0.355-0.549,0.702-1.086,1.048-1.622c0.596-0.92,1.193-1.84,1.789-2.762c0.86-1.326,1.719-2.653,2.578-3.98
			c0.514-0.794,1.03-1.587,1.541-2.385c0.042-0.065,0.066-0.154,0.067-0.232c0.005-0.456,0.003-0.912,0.003-1.367
			c0-0.04,0-0.079,0-0.123c-3.031,0-6.05,0-9.071,0c0,0.561,0,1.115,0,1.685c2.18,0,4.355,0,6.546,0
			c-0.029,0.048-0.046,0.076-0.064,0.102c-1.113,1.675-2.227,3.35-3.342,5.023c-1.252,1.881-2.506,3.762-3.756,5.645
			c-0.036,0.053-0.058,0.129-0.058,0.193c-0.005,0.478-0.003,0.963-0.003,1.442c0,0.041,0,0.08,0,0.123c3.313,0,6.612,0,9.918,0
			c0-0.578,0-1.154,0-1.742C11.198,31.995,8.804,31.995,6.4,31.995z"/>
	</g>
</g>
<g>
	<g>
		<path d="M22.776,27.448c-0.077-0.896-0.277-1.753-0.704-2.55c-0.305-0.567-0.705-1.056-1.248-1.411
			c-0.98-0.642-2.059-0.771-3.186-0.56c-1.012,0.189-1.833,0.719-2.487,1.508c-0.858,1.036-1.241,2.246-1.271,3.576
			c-0.012,0.543,0.035,1.084,0.131,1.621c0.163,0.91,0.462,1.771,1.001,2.535c0.576,0.818,1.339,1.375,2.311,1.637
			c0.511,0.137,1.033,0.166,1.56,0.14c0.464-0.025,0.917-0.109,1.355-0.259c0.783-0.27,1.444-0.727,2.017-1.315
			c0.113-0.117,0.219-0.242,0.331-0.364c-0.392-0.337-0.773-0.662-1.152-0.99c-0.046-0.039-0.075-0.035-0.109,0.008
			c-0.044,0.053-0.088,0.107-0.136,0.156c-0.723,0.762-1.601,1.166-2.658,1.178c-0.699,0.008-1.257-0.271-1.697-0.799
			c-0.373-0.445-0.589-0.969-0.723-1.527c-0.089-0.371-0.141-0.748-0.138-1.154c2.274,0,4.535,0,6.799,0
			C22.82,28.394,22.817,27.921,22.776,27.448z M20.917,27.537c-1.647,0-3.284,0-4.945,0c0.031-0.271,0.047-0.539,0.093-0.799
			c0.11-0.627,0.346-1.201,0.764-1.691c0.659-0.774,1.747-1.013,2.656-0.57c0.495,0.242,0.833,0.642,1.066,1.131
			c0.284,0.595,0.385,1.226,0.373,1.88C20.924,27.501,20.919,27.517,20.917,27.537z"/>
	</g>
</g>
<g>
	<g>
		<path d="M51.933,24.25c-0.056-0.083-0.119-0.16-0.179-0.242c0.035-0.015,0.066-0.025,0.095-0.04
			c0.125-0.069,0.188-0.197,0.166-0.332c-0.021-0.131-0.107-0.239-0.244-0.249c-0.211-0.014-0.423-0.003-0.636-0.003
			c0,0.373,0,0.753,0,1.134c0.064,0,0.123,0,0.191,0c0-0.161,0-0.317,0-0.472c0.189-0.021,0.248,0.005,0.342,0.149
			c0.037,0.056,0.07,0.113,0.102,0.17c0.101,0.178,0.101,0.178,0.328,0.145C52.041,24.421,51.992,24.334,51.933,24.25z
			 M51.651,23.857c-0.104,0.01-0.21,0.002-0.32,0.002c0-0.109,0-0.211,0-0.332c0.11,0.005,0.223,0.006,0.334,0.017
			c0.09,0.009,0.146,0.064,0.146,0.16C51.807,23.802,51.737,23.849,51.651,23.857z"/>
	</g>
</g>
<g>
	<g>
		<path d="M51.543,22.857c-0.596,0-1.066,0.47-1.066,1.065c0,0.608,0.463,1.074,1.068,1.074c0.599,0,1.07-0.469,1.07-1.064
			C52.618,23.331,52.146,22.857,51.543,22.857z M51.543,24.81c-0.486,0-0.879-0.396-0.879-0.884c0-0.484,0.397-0.881,0.883-0.881
			c0.479,0,0.883,0.404,0.882,0.886C52.428,24.414,52.03,24.81,51.543,24.81z"/>
	</g>
</g>
<g>
	<g>
		<path d="M36.273,32.308c0-0.028-0.003-0.058-0.009-0.099c-0.045,0.01-0.084,0.018-0.122,0.029c-0.486,0.125-0.978,0.172-1.48,0.09
			c-0.469-0.078-0.801-0.332-0.933-0.793c-0.069-0.248-0.11-0.511-0.11-0.769c-0.008-2.072-0.004-4.146-0.004-6.218
			c0-0.036,0-0.072,0-0.119c0.819,0,1.629,0,2.44,0c0-0.455,0-0.898,0-1.355c-0.813,0-1.625,0-2.442,0c0-0.861,0-1.709,0-2.567
			c-0.236,0-0.457-0.001-0.681,0.004c-0.022,0-0.05,0.033-0.065,0.058c-0.078,0.143-0.146,0.288-0.224,0.43
			c-0.418,0.765-0.971,1.423-1.614,2.003c-0.302,0.271-0.653,0.486-0.979,0.728c-0.03,0.021-0.072,0.054-0.072,0.084
			c-0.006,0.204-0.003,0.407-0.003,0.622c0.569,0,1.123,0,1.688,0c0,0.059,0,0.109,0,0.16c0,2.233,0,4.468,0.002,6.704
			c0,0.533,0.104,1.043,0.363,1.514c0.313,0.574,0.779,0.957,1.438,1.041c0.322,0.043,0.654,0.026,0.977,0.017
			c0.599-0.013,1.179-0.125,1.738-0.349c0.07-0.03,0.094-0.061,0.094-0.135C36.271,33.028,36.273,32.665,36.273,32.308z"/>
	</g>
</g>
<g>
	<g>
		<path d="M50.221,27.356c-0.094-0.961-0.327-1.879-0.84-2.708c-0.424-0.687-1-1.204-1.754-1.508
			c-0.67-0.27-1.369-0.347-2.084-0.281c-0.98,0.09-1.83,0.481-2.545,1.155c-0.842,0.796-1.332,1.785-1.556,2.913
			c-0.183,0.932-0.132,1.859,0.036,2.789c0.163,0.893,0.473,1.729,1.003,2.478c0.412,0.577,0.929,1.04,1.571,1.344
			c1.028,0.485,2.104,0.519,3.192,0.272c1.032-0.231,1.871-0.799,2.582-1.565c0.07-0.078,0.135-0.16,0.207-0.244
			c-0.406-0.351-0.804-0.688-1.197-1.024c-0.021,0.016-0.03,0.021-0.038,0.029c-0.015,0.016-0.029,0.03-0.044,0.049
			c-0.456,0.526-1.006,0.918-1.674,1.131c-0.506,0.16-1.025,0.229-1.551,0.135c-0.652-0.121-1.115-0.518-1.462-1.062
			c-0.364-0.574-0.544-1.216-0.616-1.886c-0.018-0.157-0.022-0.317-0.035-0.496c2.281,0,4.545,0,6.812,0
			C50.266,28.358,50.27,27.856,50.221,27.356z M48.372,27.533c-1.651,0.004-3.284,0.004-4.94,0.004
			c0.021-0.229,0.034-0.449,0.066-0.668c0.1-0.67,0.328-1.287,0.771-1.808c0.462-0.543,1.054-0.826,1.771-0.801
			c0.873,0.029,1.498,0.471,1.906,1.23c0.281,0.526,0.407,1.095,0.426,1.689C48.374,27.293,48.372,27.41,48.372,27.533z"/>
	</g>
</g>
<g>
	<g>
		<path d="M41.446,32.515c0-0.026-0.007-0.055-0.011-0.087c-0.046,0.007-0.081,0.016-0.117,0.022
			c-0.389,0.073-0.772,0.09-1.166-0.004c-0.36-0.089-0.571-0.307-0.64-0.658c-0.048-0.236-0.081-0.478-0.082-0.719
			c-0.004-4.082-0.003-8.166-0.003-12.249c0-0.052,0-0.103,0-0.166c-0.666,0-1.319,0-1.975,0c0,0.056,0,0.104,0,0.152
			c0,4.252,0.002,8.504,0,12.756c0,0.324,0.047,0.634,0.155,0.939c0.206,0.566,0.56,1.002,1.121,1.248
			c0.345,0.148,0.705,0.18,1.077,0.16c0.532-0.025,1.046-0.131,1.551-0.293c0.071-0.019,0.092-0.053,0.092-0.121
			C41.443,33.169,41.446,32.843,41.446,32.515z"/>
	</g>
</g>
<g>
</g>
<g>
</g>
<g>
</g>
<g>
</g>
<g>
</g>
<g>
</g>
<g>
</g>
<g>
</g>
<g>
</g>
<g>
</g>
<g>
</g>
<g>
</g>
<g>
</g>
<g>
</g>
<g>
</g>
</svg>
