<?xml version="1.0" encoding="iso-8859-1"?>
<!-- Generator: Adobe Illustrator 19.0.0, SVG Export Plug-In . SVG Version: 6.00 Build 0)  -->
<svg version="1.1" id="Capa_1" xmlns="http://www.w3.org/2000/svg" xmlns:xlink="http://www.w3.org/1999/xlink" x="0px" y="0px"
	 viewBox="0 0 52.079 52.079" style="enable-background:new 0 0 52.079 52.079;" xml:space="preserve">
<g>
	<g>
		<path d="M8.04,31.909H7.151c-0.136,0-0.235,0.099-0.235,0.234v0.891c0,0.134,0.099,0.234,0.235,0.234H8.04
			c0.136,0,0.235-0.097,0.235-0.234v-0.891C8.275,32.009,8.176,31.909,8.04,31.909z"/>
	</g>
</g>
<g>
	<g>
		<path d="M16.724,37.197l1.531-2.459c0.074-0.111,0-0.234-0.136-0.234h-1.001c-0.135,0-0.246,0.123-0.321,0.234l-1.532,2.482
			l1.68,3.223c0.062,0.125,0.173,0.236,0.309,0.236h1.001c0.137,0,0.223-0.123,0.161-0.236L16.724,37.197z"/>
	</g>
</g>
<g>
	<g>
		<path d="M11.746,35.616c0.457,0,0.988,0.074,0.988,0.074c0.148,0.012,0.234-0.062,0.234-0.199v-0.752
			c0-0.137-0.073-0.222-0.234-0.247c0,0-0.518-0.111-1.074-0.111c-1.508,0-2.335,0.817-2.335,2.348v1.729
			c0,1.534,0.84,2.349,2.335,2.349c0.506,0,1.074-0.11,1.074-0.11c0.172-0.039,0.234-0.125,0.234-0.261v-0.754
			c0-0.136-0.086-0.201-0.222-0.187c0,0-0.507,0.074-0.988,0.074c-0.79,0-1.075-0.459-1.075-1.15v-1.666
			C10.683,36.085,10.943,35.616,11.746,35.616z"/>
	</g>
</g>
<g>
	<g>
		<path d="M2.421,35.615c0.456,0,0.988,0.074,0.988,0.074c0.148,0.012,0.234-0.062,0.234-0.199v-0.752
			c0-0.136-0.075-0.221-0.234-0.246c0,0-0.519-0.111-1.075-0.111C0.828,34.381,0,35.197,0,36.728v1.728
			c0,1.534,0.839,2.349,2.334,2.35c0.506,0,1.075-0.11,1.075-0.11c0.172-0.039,0.234-0.125,0.234-0.261v-0.754
			c0-0.136-0.086-0.201-0.222-0.187c0,0-0.506,0.074-0.988,0.074c-0.791,0-1.075-0.459-1.075-1.15v-1.666
			C1.358,36.084,1.618,35.615,2.421,35.615z"/>
	</g>
</g>
<g>
	<g>
		<path d="M39.294,16.864L32.37,9.948c0,0-0.897-0.897-2.164-0.897c0,0-1.268,0-2.164,0.897c0,0-0.897,0.896-0.897,2.164
			c0,0,0,1.267,0.897,2.163l1.683,1.676h-6.458c0,0-1.282,0-2.179,0.904c0,0-0.905,0.897-0.905,2.172c0,0,0,1.275,0.905,2.179
			c0,0,0.897,0.897,2.18,0.898h6.459l-1.684,1.684c0,0-0.897,0.897-0.897,2.164c0,0,0,1.268,0.897,2.164
			c0,0,0.896,0.889,2.164,0.889c0,0,1.268,0,2.164-0.889l6.917-6.924c0,0,0.896-0.897,0.896-2.164
			C40.184,19.028,40.184,17.761,39.294,16.864z"/>
	</g>
</g>
<g>
	<g>
		<path d="M5.632,31.909h-0.89c-0.136,0-0.235,0.099-0.235,0.234v8.301c0,0.136,0.099,0.234,0.235,0.234h0.89
			c0.136,0,0.234-0.097,0.234-0.234v-8.301C5.866,32.009,5.768,31.909,5.632,31.909z"/>
	</g>
</g>
<g>
	<g>
		<path d="M8.04,34.505H7.151c-0.136,0-0.235,0.097-0.235,0.234v5.705c0,0.136,0.099,0.236,0.235,0.236H8.04
			c0.136,0,0.235-0.097,0.235-0.236v-5.705C8.275,34.602,8.176,34.504,8.04,34.505z"/>
	</g>
</g>
<g>
	<g>
		<path d="M14.957,31.909h-0.89c-0.135,0-0.234,0.099-0.234,0.234v8.301c0,0.136,0.098,0.234,0.234,0.234h0.89
			c0.136,0,0.235-0.097,0.235-0.234v-8.301C15.192,32.009,15.093,31.909,14.957,31.909z"/>
	</g>
</g>
<g>
	<g>
		<path d="M45.778,34.505h-0.892c-0.133,0-0.232,0.097-0.232,0.234v4.434c-0.343,0.185-0.765,0.359-1.149,0.359
			c-0.653,0-0.825-0.371-0.825-0.951v-3.842c0-0.135-0.099-0.234-0.236-0.234h-0.889c-0.137,0-0.236,0.097-0.236,0.234v3.964
			c0,1.286,0.457,2.1,1.804,2.1c0.705,0,1.236-0.272,1.595-0.543v0.184c0,0.136,0.097,0.236,0.234,0.236h0.828
			c0.134,0,0.234-0.097,0.234-0.236v-5.705C46.014,34.602,45.913,34.504,45.778,34.505z"/>
	</g>
</g>
<g>
	<g>
		<path d="M51.882,34.505h-0.976c-0.136,0-0.222,0.099-0.271,0.222l-1.322,3.916l-1.26-3.916c-0.037-0.136-0.135-0.222-0.271-0.222
			h-0.977c-0.15,0-0.224,0.111-0.187,0.234l1.961,5.993l-0.704,2.062c-0.047,0.123,0.05,0.234,0.187,0.234h1
			c0.137,0,0.209-0.101,0.26-0.224l2.742-8.054C52.115,34.626,52.028,34.504,51.882,34.505z"/>
	</g>
</g>
<g>
	<g>
		<path d="M38.269,34.379c-0.506,0-0.963,0.162-1.334,0.384v-2.619c0-0.135-0.1-0.233-0.234-0.233H35.81
			c-0.137,0-0.233,0.1-0.233,0.233v8.302c0,0.137,0.099,0.233,0.233,0.233h2.199c1.531,0,2.262-0.815,2.262-2.162v-1.978
			C40.268,35.22,39.639,34.379,38.269,34.379z M38.91,38.48c0,0.617-0.284,1.023-1.024,1.023h-0.951V35.86
			c0.334-0.162,0.717-0.285,1.051-0.285c0.679,0,0.926,0.432,0.926,1.049L38.91,38.48z"/>
	</g>
</g>
<g>
	<g>
		<path d="M21.097,34.379c-1.038,0-1.84,0.261-1.84,0.261c-0.148,0.037-0.234,0.123-0.234,0.26v0.753
			c0,0.137,0.086,0.235,0.234,0.198c0,0,0.927-0.211,1.655-0.211c0.729,0,1.013,0.347,1.013,0.987v0.496
			c-0.161-0.024-0.766-0.076-1.186-0.076c-1.371,0-2.149,0.632-2.149,1.902c0,1.248,0.705,1.854,1.903,1.854
			c0.581,0,1.099-0.222,1.495-0.47v0.109c0,0.139,0.099,0.236,0.235,0.236h0.827c0.136,0,0.235-0.1,0.235-0.236v-3.816
			C23.283,35.144,22.74,34.379,21.097,34.379z M21.924,39.32c-0.358,0.186-0.778,0.334-1.161,0.334
			c-0.544,0-0.815-0.271-0.815-0.742c0-0.531,0.271-0.813,0.939-0.813h1.037V39.32z"/>
	</g>
</g>
<g>
	<g>
		<path d="M17.265,15.958c-1.197-1.197-2.888-1.197-2.888-1.197c-1.692,0-2.888,1.197-2.888,1.197
			c-1.197,1.196-1.197,2.888-1.197,2.888c0,1.692,1.197,2.888,1.197,2.888c1.196,1.196,2.888,1.196,2.888,1.196
			c1.691,0,2.888-1.196,2.888-1.196c1.196-1.197,1.196-2.888,1.196-2.888C18.461,17.154,17.265,15.958,17.265,15.958z"/>
	</g>
</g>
<g>
	<g>
		<path d="M34.29,31.909h-0.891c-0.137,0-0.233,0.101-0.233,0.234v2.568c-0.371-0.184-0.813-0.332-1.321-0.332
			c-1.371,0-2.014,0.84-2.014,2.162v2.1c0,1.32,0.643,2.162,2.014,2.162c0.53,0,1-0.197,1.385-0.432v0.071
			c0,0.138,0.099,0.236,0.232,0.236h0.828c0.137,0,0.234-0.099,0.234-0.236v-8.299C34.524,32.009,34.427,31.909,34.29,31.909z
			 M33.166,39.308c-0.333,0.16-0.704,0.285-1.038,0.285c-0.679,0-0.938-0.434-0.938-1.053v-1.914c0-0.616,0.26-1.049,0.938-1.049
			c0.333,0,0.704,0.099,1.038,0.234V39.308z"/>
	</g>
</g>
<g>
	<g>
		<path d="M27.223,34.38c-0.704,0-1.235,0.273-1.593,0.543v-0.184c0-0.135-0.099-0.234-0.235-0.234h-0.828
			c-0.136,0-0.235,0.097-0.235,0.234v5.705c0,0.136,0.099,0.234,0.235,0.234h0.89c0.136,0,0.235-0.097,0.235-0.234V36.01
			c0.346-0.185,0.766-0.359,1.149-0.359c0.654,0,0.828,0.371,0.828,0.951v3.842c0,0.136,0.098,0.234,0.235,0.234h0.889
			c0.135,0,0.233-0.097,0.233-0.234v-3.965C29.026,35.195,28.569,34.379,27.223,34.38z"/>
	</g>
</g>
<g>
</g>
<g>
</g>
<g>
</g>
<g>
</g>
<g>
</g>
<g>
</g>
<g>
</g>
<g>
</g>
<g>
</g>
<g>
</g>
<g>
</g>
<g>
</g>
<g>
</g>
<g>
</g>
<g>
</g>
</svg>
