<?xml version="1.0" encoding="iso-8859-1"?>
<!-- Generator: Adobe Illustrator 19.0.0, SVG Export Plug-In . SVG Version: 6.00 Build 0)  -->
<svg version="1.1" id="Capa_1" xmlns="http://www.w3.org/2000/svg" xmlns:xlink="http://www.w3.org/1999/xlink" x="0px" y="0px"
	 viewBox="0 0 30.179 30.179" style="enable-background:new 0 0 30.179 30.179;" xml:space="preserve">
<g>
	<g>
		<path d="M6.158,0c0,0.94,0,1.864,0,2.782c0.951,0,1.886,0,2.83,0c0-0.929,0-1.846,0-2.782C8.031,0,7.091,0,6.158,0z"/>
	</g>
</g>
<g>
	<g>
		<path d="M18.806,13.072c-0.181-0.784-0.795-1.276-1.535-1.39c0,0-2.202-0.011-2.292-0.011c0-0.906,0-1.843,0-2.709l1.447,0.003
			c0.676,0,1.678-0.251,1.6-2.01c0-0.746-0.639-1.444-1.271-1.444L12.17,5.512c0,3.51,0,6.986,0,10.477
			c0.645,0,1.276,0.006,1.906-0.002c0.911-0.011,1.821-0.025,2.729-0.051c0.214-0.007,0.429-0.053,0.632-0.117
			C18.769,15.388,19.05,14.133,18.806,13.072z"/>
	</g>
</g>
<g>
	<g>
		<path d="M12.163,0c0,0.936,0,1.854,0,2.795c0.1,0,0.186-0.001,0.273,0l4.594,0.002c0.513,0,1.143,0.135,1.709,0.425
			c1.453,0.744,2.445,2.023,2.477,3.583c0.007,0.389-0.036,0.783-0.1,1.168c-0.102,0.628-0.316,1.181-0.799,1.628
			c-0.188,0.175-0.4,0.357-0.619,0.529c0.188,0.096,0.354,0.188,0.523,0.267c0.434,0.2,0.825,0.5,1.114,0.875
			c0.817,1.064,0.935,2.266,0.729,3.532c-0.113,0.693-0.41,1.341-0.847,1.913c-0.528,0.693-1.18,1.211-2.008,1.51
			c-0.89,0.321-1.817,0.403-2.742,0.418c-2.401,0.034-4.802,0.01-7.203,0.01c-0.086,0-0.169,0-0.282,0c0-4.398,0-8.768,0-13.127
			c-0.962,0-1.895,0-2.834,0c0,5.237,0,10.459,0,15.68c5.985,0,11.953,0,17.915,0C24.067,14.126,24.067,7.066,24.067,0
			C20.088,0,16.129,0,12.163,0z"/>
	</g>
</g>
<g>
	<g>
		<path d="M22.487,22.731c-0.053,0-0.135,0.034-0.154,0.075c-0.198,0.421-0.387,0.847-0.578,1.269
			c-0.271,0.595-0.549,1.185-0.838,1.81c-0.062-0.121-0.109-0.202-0.15-0.285c-0.441-0.916-0.884-1.833-1.33-2.745
			c-0.023-0.055-0.098-0.117-0.146-0.117c-0.583-0.008-1.163-0.006-1.777-0.006c0.049,0.094,0.074,0.153,0.108,0.215
			c0.396,0.719,0.792,1.438,1.19,2.158c0.269,0.479,0.519,0.973,0.813,1.434c0.354,0.552,0.532,1.123,0.478,1.785
			c-0.048,0.543-0.01,1.092-0.01,1.638c0,0.069,0.008,0.137,0.012,0.208c0.523,0,1.032,0,1.558,0c0-0.84-0.011-1.66,0.005-2.48
			c0.005-0.188,0.061-0.388,0.146-0.553c0.332-0.632,0.688-1.252,1.031-1.876c0.312-0.563,0.628-1.125,0.938-1.69
			c0.146-0.261,0.275-0.528,0.435-0.836C23.596,22.728,23.043,22.726,22.487,22.731z"/>
	</g>
</g>
<g>
	<g>
		<path d="M11.635,24.46c-0.084-0.431-0.274-0.814-0.592-1.129c-0.45-0.444-1.017-0.576-1.602-0.593
			c-1.154-0.029-2.308-0.008-3.48-0.008c0,2.5,0,4.968,0,7.44c0.536,0,1.057,0,1.602,0c0-0.899,0-1.789,0-2.694
			c0.119,0,0.215,0.002,0.307,0c0.631-0.015,1.263-0.01,1.889-0.052c0.867-0.058,1.414-0.564,1.746-1.335
			C11.733,25.558,11.741,25.008,11.635,24.46z M9.889,25.776c-0.137,0.263-0.424,0.345-0.688,0.362
			c-0.475,0.03-0.949,0.009-1.426,0.009c-0.06,0-0.124,0-0.201,0c0-0.699,0-1.382,0-2.041c0.606,0,1.189-0.029,1.769,0.008
			c0.481,0.031,0.843,0.555,0.752,1.035C10.055,25.362,9.991,25.583,9.889,25.776z"/>
	</g>
</g>
<g>
	<g>
		<path d="M18.283,29.907c-0.375-1.045-0.756-2.09-1.133-3.14c-0.46-1.288-0.911-2.579-1.374-3.866
			c-0.024-0.072-0.127-0.164-0.193-0.166c-0.513-0.015-1.028-0.013-1.54-0.002c-0.06,0-0.147,0.059-0.168,0.111
			c-0.465,1.267-0.921,2.541-1.384,3.812c-0.342,0.945-0.689,1.889-1.03,2.832c-0.079,0.219-0.143,0.443-0.222,0.689
			c0.545,0,1.044,0.006,1.541-0.007c0.063-0.001,0.156-0.085,0.183-0.151c0.106-0.272,0.194-0.555,0.287-0.834
			c0.189-0.574,0.189-0.574,0.776-0.574c0.703,0,1.405,0,2.092,0c0.158,0.502,0.308,0.981,0.465,1.459
			c0.018,0.045,0.084,0.104,0.129,0.104c0.538,0.007,1.073,0.005,1.637,0.005C18.324,30.071,18.312,29.985,18.283,29.907z
			 M13.869,27.272c0.308-0.92,0.611-1.832,0.934-2.803c0.308,0.962,0.597,1.871,0.895,2.803
			C15.075,27.272,14.485,27.272,13.869,27.272z"/>
	</g>
</g>
<g>
</g>
<g>
</g>
<g>
</g>
<g>
</g>
<g>
</g>
<g>
</g>
<g>
</g>
<g>
</g>
<g>
</g>
<g>
</g>
<g>
</g>
<g>
</g>
<g>
</g>
<g>
</g>
<g>
</g>
</svg>
