<?xml version="1.0" encoding="iso-8859-1"?>
<!-- Generator: Adobe Illustrator 19.0.0, SVG Export Plug-In . SVG Version: 6.00 Build 0)  -->
<svg version="1.1" id="Capa_1" xmlns="http://www.w3.org/2000/svg" xmlns:xlink="http://www.w3.org/1999/xlink" x="0px" y="0px"
	 viewBox="0 0 50.45 50.45" style="enable-background:new 0 0 50.45 50.45;" xml:space="preserve">
<g>
	<g>
		<path d="M49.838,28.078c-2.506,0-5.012-0.002-7.521,0.002c-0.119,0.002-0.253,0.037-0.363,0.088
			c-2.475,1.234-4.943,2.473-7.415,3.709c-0.045,0.022-0.086,0.051-0.129,0.072c0.002,0.011,0.006,0.021,0.008,0.032
			c5.206,0,10.413,0,15.633,0c0-1.299,0-2.591,0-3.903C49.973,28.078,49.904,28.078,49.838,28.078z"/>
	</g>
</g>
<g>
	<g>
		<path d="M37.125,21.229c-0.449-0.143-1.017,0.197-1.113,0.661c-0.027,0.136,0.018,0.213,0.163,0.224
			c0.166,0.014,0.334,0.022,0.571,0.036c0.141-0.016,0.354-0.033,0.563-0.071c0.06-0.011,0.14-0.073,0.162-0.132
			C37.58,21.672,37.404,21.318,37.125,21.229z"/>
	</g>
</g>
<g>
	<g>
		<path d="M49.246,24.678c0.038-0.057,0.126-0.139,0.145-0.236c0.052-0.229-0.082-0.373-0.334-0.401
			c-0.502-0.058-0.518-0.046-0.518,0.445c0,0.275,0,0.551,0,0.83c0.076,0,0.125,0,0.201,0c0-0.184,0-0.359,0-0.533
			c0.324-0.023,0.377,0.015,0.449,0.377c0.029,0.15,0.092,0.201,0.256,0.135C49.381,25.089,49.312,24.889,49.246,24.678z
			 M49.171,24.497c-0.094,0.162-0.258,0.141-0.455,0.118c0.023-0.149,0.047-0.289,0.068-0.429c0.117,0.024,0.248,0.031,0.354,0.086
			C49.181,24.294,49.202,24.443,49.171,24.497z"/>
	</g>
</g>
<g>
	<g>
		<path d="M48.958,23.527c-0.643,0.003-1.125,0.494-1.123,1.143c0,0.65,0.482,1.139,1.125,1.138
			c0.633-0.001,1.133-0.515,1.123-1.149C50.074,24.024,49.576,23.525,48.958,23.527z M48.968,25.644
			c-0.521,0.002-0.932-0.432-0.93-0.983c0-0.533,0.43-0.98,0.93-0.971c0.502,0.009,0.928,0.467,0.92,0.989
			C49.876,25.21,49.468,25.641,48.968,25.644z"/>
	</g>
</g>
<g>
	<g>
		<path d="M27.257,23.223c-0.016-0.191-0.022-0.381-0.047-0.571c-0.057-0.427-0.137-0.848-0.42-1.195
			c-0.276-0.337-0.748-0.365-1.03-0.034c-0.141,0.165-0.244,0.382-0.304,0.593C25.318,22.5,25.331,23,25.397,23.497
			c0.044,0.329,0.125,0.647,0.305,0.932c0.177,0.278,0.417,0.45,0.762,0.419c0.355-0.032,0.552-0.266,0.634-0.582
			c0.086-0.339,0.125-0.69,0.186-1.036C27.277,23.228,27.267,23.225,27.257,23.223z"/>
	</g>
</g>
<g>
	<g>
		<path d="M38.682,39.226c-0.002-0.575-0.002-1.149,0-1.723c0-0.211,0.046-0.254,0.269-0.278c0.054-0.006,0.105-0.031,0.158-0.047
			c-0.002-0.015-0.006-0.027-0.01-0.043c-0.452,0-0.902,0-1.351,0c-0.004,0.018-0.006,0.032-0.01,0.05
			c0.049,0.015,0.098,0.037,0.149,0.041c0.224,0.023,0.271,0.071,0.271,0.294c0,0.567,0,1.137,0,1.705
			c-0.002,0.192-0.065,0.255-0.256,0.276c-0.055,0.009-0.109,0.023-0.162,0.035c0.004,0.018,0.008,0.031,0.012,0.047
			c0.45,0,0.9,0,1.346,0c0.002-0.018,0.002-0.033,0.004-0.051c-0.046-0.008-0.098-0.023-0.149-0.029
			C38.742,39.484,38.682,39.431,38.682,39.226z"/>
	</g>
</g>
<g>
	<g>
		<path d="M4.067,37.14c-0.003,0.017-0.005,0.032-0.006,0.05c0.054,0.012,0.107,0.027,0.162,0.038
			c0.107,0.019,0.138,0.075,0.088,0.173c-0.282,0.53-0.564,1.062-0.864,1.627c-0.172-0.322-0.331-0.609-0.479-0.902
			c-0.019-0.038,0.006-0.11,0.031-0.153c0.101-0.169,0.212-0.333,0.315-0.5c0.089-0.144,0.186-0.267,0.38-0.254
			c0.038,0.003,0.078-0.03,0.116-0.046c-0.001-0.01-0.004-0.02-0.007-0.031c-0.28,0-0.563,0-0.843,0
			c0.048,0.052,0.107,0.054,0.142,0.085c0.036,0.033,0.077,0.108,0.062,0.137c-0.093,0.183-0.202,0.358-0.329,0.575
			c-0.135-0.25-0.25-0.459-0.372-0.688c0.129-0.028,0.215-0.048,0.301-0.069c-0.003-0.015-0.005-0.027-0.006-0.042
			c-0.387,0-0.772,0-1.144,0c0.119,0.089,0.265,0.154,0.339,0.265c0.19,0.285,0.348,0.588,0.512,0.889
			c0.025,0.043,0.043,0.119,0.022,0.156c-0.117,0.2-0.246,0.387-0.387,0.603c-0.047-0.082-0.079-0.132-0.111-0.187
			c-0.251-0.442-0.502-0.888-0.754-1.33c-0.143-0.25-0.143-0.25,0.116-0.35c0.006-0.002,0.007-0.008,0.04-0.051
			c-0.435,0-0.843,0-1.272,0c0.025,0.036,0.031,0.048,0.038,0.052c0.017,0.008,0.033,0.018,0.051,0.018
			c0.231-0.004,0.329,0.154,0.425,0.328c0.185,0.34,0.38,0.678,0.57,1.018c0.183,0.322,0.363,0.646,0.548,0.968
			c0.116,0.206,0.16,0.206,0.285-0.003c0.11-0.186,0.221-0.368,0.333-0.552c0.078-0.132,0.158-0.262,0.255-0.415
			c0.181,0.345,0.343,0.666,0.513,0.979c0.03,0.054,0.09,0.091,0.135,0.137c0.04-0.047,0.087-0.088,0.115-0.139
			c0.352-0.654,0.698-1.311,1.046-1.965c0.096-0.182,0.192-0.367,0.445-0.353c0.026,0.002,0.055-0.027,0.125-0.068
			C4.655,37.14,4.36,37.14,4.067,37.14z"/>
	</g>
</g>
<g>
	<g>
		<path d="M10.655,37.553c-0.379-0.338-0.834-0.461-1.369-0.46C8.832,37.09,8.378,37.204,8,37.532
			c-0.508,0.437-0.533,1.127-0.064,1.596c0.717,0.716,2.132,0.673,2.801-0.086C11.142,38.583,11.109,37.958,10.655,37.553z
			 M9.345,39.542c-0.638-0.002-1.152-0.57-1.15-1.274c0.001-0.646,0.435-1.082,1.078-1.082c0.651-0.001,1.162,0.518,1.156,1.176
			C10.422,39.04,9.959,39.544,9.345,39.542z"/>
	</g>
</g>
<g>
	<g>
		<path d="M21.732,39.003c-0.043,0.039-0.095,0.074-0.132,0.119c-0.216,0.273-0.502,0.384-0.84,0.379
			c-0.267-0.004-0.382-0.123-0.382-0.387c-0.002-0.545,0.001-1.09-0.001-1.635c-0.003-0.168,0.077-0.242,0.238-0.254
			c0.064-0.003,0.127-0.027,0.19-0.042c-0.003-0.016-0.008-0.03-0.011-0.045c-0.455,0-0.909,0-1.366,0
			c0,0.019-0.003,0.034-0.004,0.051c0.05,0.013,0.101,0.032,0.154,0.036c0.219,0.024,0.264,0.065,0.264,0.281
			c0.001,0.575,0.001,1.149,0,1.722c0,0.198-0.056,0.252-0.252,0.273c-0.057,0.009-0.11,0.029-0.164,0.046
			c0.004,0.017,0.008,0.034,0.013,0.052c0.121,0,0.241,0,0.361,0c0.568,0.002,1.137,0.007,1.705,0.004
			c0.065,0,0.179-0.026,0.189-0.063c0.046-0.164,0.06-0.336,0.086-0.506C21.764,39.024,21.748,39.015,21.732,39.003z"/>
	</g>
</g>
<g>
	<g>
		<path d="M16.682,39.507c-0.096-0.048-0.215-0.078-0.275-0.155c-0.26-0.336-0.501-0.686-0.75-1.032
			c0.069-0.021,0.142-0.041,0.212-0.068c0.267-0.096,0.405-0.268,0.409-0.502c0.004-0.246-0.143-0.459-0.407-0.545
			c-0.163-0.051-0.339-0.084-0.509-0.088c-0.452-0.013-0.904-0.006-1.356-0.002c-0.056,0-0.112,0.014-0.168,0.021
			c0,0.018,0.001,0.034,0.001,0.053c0.063,0.012,0.127,0.033,0.19,0.035c0.161,0.007,0.23,0.094,0.23,0.246
			c0.001,0.598,0.001,1.194,0,1.794c0,0.154-0.085,0.229-0.237,0.243c-0.058,0.004-0.115,0.019-0.174,0.028
			c0.004,0.017,0.006,0.033,0.01,0.047c0.444,0,0.89,0,1.358,0c-0.033-0.039-0.044-0.058-0.058-0.062
			c-0.027-0.009-0.056-0.011-0.085-0.014c-0.251-0.025-0.292-0.067-0.293-0.31c-0.001-0.197,0-0.394,0-0.592
			c0.003-0.21,0.078-0.271,0.28-0.191c0.064,0.023,0.124,0.082,0.165,0.142c0.169,0.241,0.346,0.481,0.489,0.739
			c0.131,0.242,0.294,0.363,0.578,0.312c0.118-0.022,0.242,0.001,0.364,0.001c0.058,0,0.114-0.008,0.171-0.013
			c0-0.018,0-0.032,0-0.049C16.778,39.533,16.726,39.527,16.682,39.507z M15.421,38.235c-0.191,0.045-0.398,0.023-0.597,0.031
			c-0.02-0.162-0.041-0.325-0.063-0.486c0.007-0.002,0.015-0.002,0.021-0.004c0-0.115,0.001-0.232,0-0.347
			c0-0.135,0.064-0.198,0.197-0.217c0.362-0.047,0.679,0.162,0.739,0.5C15.759,37.942,15.646,38.184,15.421,38.235z"/>
	</g>
</g>
<g>
	<g>
		<path d="M0.052,41.22c-0.007,0.025-0.012,0.049-0.018,0.073c0.083,0.014,0.165,0.035,0.248,0.035c16.506,0,33.014,0,49.524,0
			c0.05,0,0.103,0.008,0.154-0.004c0.029-0.009,0.05-0.046,0.111-0.104C33.362,41.22,16.706,41.22,0.052,41.22z"/>
	</g>
</g>
<g>
	<g>
		<path d="M50.37,38.978c-0.043,0.058-0.089,0.113-0.133,0.179c-0.121,0.174-0.281,0.295-0.494,0.316
			c-0.172,0.014-0.347,0.012-0.521,0c-0.182-0.011-0.258-0.095-0.266-0.281c-0.006-0.232-0.006-0.465,0.002-0.695
			c0.002-0.049,0.049-0.136,0.074-0.137c0.205-0.005,0.422-0.025,0.619,0.025c0.104,0.022,0.168,0.179,0.256,0.272
			c0.03,0.029,0.069,0.049,0.104,0.071c0.012-0.034,0.035-0.069,0.037-0.106c0.008-0.213,0.012-0.428,0.016-0.642
			c0-0.036-0.009-0.071-0.022-0.151c-0.051,0.066-0.09,0.092-0.104,0.129c-0.066,0.18-0.213,0.24-0.381,0.254
			c-0.146,0.014-0.291,0.007-0.437,0.007c-0.114,0-0.164-0.062-0.164-0.177c0.002-0.196,0.002-0.395,0-0.592
			c-0.004-0.147,0.072-0.213,0.213-0.209c0.187,0.006,0.373,0.012,0.556,0.035c0.188,0.026,0.354,0.099,0.451,0.287
			c0.02,0.041,0.071,0.067,0.108,0.1c0.015-0.007,0.03-0.015,0.047-0.021c0-0.119-0.008-0.241,0.002-0.359
			c0.012-0.149-0.06-0.17-0.187-0.17c-0.655,0.006-1.313,0.002-1.967,0.004c-0.057,0-0.108,0.017-0.166,0.025
			c0.01,0.047,0.023,0.059,0.039,0.063c0.035,0.008,0.068,0.018,0.103,0.021c0.248,0.028,0.278,0.061,0.278,0.316
			c0.002,0.541,0,1.08,0,1.621c0,0.27-0.035,0.31-0.301,0.343c-0.041,0.005-0.08,0.026-0.121,0.04
			c0.027,0.046,0.048,0.059,0.068,0.059c0.713,0,1.43,0.001,2.143,0c0.043,0,0.113-0.024,0.121-0.046
			c0.043-0.185,0.072-0.372,0.107-0.56C50.425,38.993,50.395,38.987,50.37,38.978z"/>
	</g>
</g>
<g>
	<g>
		<path d="M27.385,37.636c-0.211-0.221-0.468-0.363-0.763-0.43c-0.694-0.157-1.392-0.109-2.086,0
			c-0.045,0.006-0.084,0.037-0.127,0.057c0.061,0.034,0.114,0.047,0.16,0.031c0.205-0.059,0.279,0.062,0.279,0.24
			c0.001,0.566-0.001,1.135,0,1.703c0.001,0.172-0.082,0.256-0.25,0.266c-0.061,0.005-0.119,0.023-0.179,0.035
			c0.005,0.019,0.009,0.035,0.013,0.055c0.023,0.004,0.045,0.012,0.067,0.012c0.597,0,1.194,0.007,1.791-0.008
			c0.322-0.007,0.625-0.112,0.892-0.307C27.774,38.864,27.862,38.135,27.385,37.636z M26.478,39.366
			c-0.246,0.129-0.509,0.193-0.789,0.146c-0.23-0.04-0.315-0.142-0.318-0.379c-0.003-0.271-0.001-0.546-0.001-0.818
			c0-0.279,0-0.557,0-0.836c-0.001-0.158,0.074-0.257,0.232-0.271c0.632-0.051,1.363,0.228,1.501,1.033
			C27.177,38.667,26.924,39.135,26.478,39.366z"/>
	</g>
</g>
<g>
	<g>
		<path d="M15.565,31.879c-2.485-1.244-4.97-2.49-7.458-3.732c-0.091-0.045-0.199-0.071-0.3-0.075
			c-2.522-0.004-5.047-0.002-7.571-0.004c-0.153,0-0.209,0.032-0.208,0.199c0.009,1.184,0.004,2.368,0.005,3.551
			c0,0.057,0.006,0.114,0.01,0.168c5.218,0,10.421,0,15.624,0c0.003-0.015,0.007-0.027,0.013-0.041
			C15.642,31.925,15.605,31.9,15.565,31.879z"/>
	</g>
</g>
<g>
	<g>
		<path d="M49.803,35.163c-16.507-0.002-33.013-0.002-49.52-0.002c-0.058,0-0.118-0.008-0.173,0.004
			c-0.036,0.011-0.064,0.047-0.096,0.074c0.007,0.01,0.014,0.02,0.021,0.031c16.66,0,33.319,0,49.994,0
			C50.006,35.098,49.875,35.163,49.803,35.163z"/>
	</g>
</g>
<g>
	<g>
		<path d="M49.882,21.659c-3.303-1.649-6.603-3.299-9.903-4.948c-5.034-2.516-10.066-5.03-15.099-7.549
			c-0.121-0.06-0.208-0.053-0.321,0.005c-1.55,0.798-3.104,1.592-4.656,2.388c-2.708,1.386-5.416,2.772-8.124,4.158
			c-3.342,1.711-6.685,3.423-10.026,5.133C1.178,21.142,0.602,21.438,0,21.748c0.077,0.042,0.127,0.07,0.179,0.097
			c3.143,1.603,6.288,3.201,9.434,4.802c1.859,0.946,3.72,1.892,5.576,2.839c3.172,1.614,6.343,3.229,9.512,4.846
			c0.127,0.065,0.226,0.064,0.352,0c1.985-1.004,3.976-2.002,5.962-3.004c3.269-1.642,6.534-3.285,9.803-4.927
			c3.028-1.522,6.058-3.043,9.087-4.567c0.047-0.023,0.092-0.051,0.151-0.086C49.987,21.712,49.935,21.686,49.882,21.659z
			 M14.528,23.662c-0.131,0.479-0.264,0.958-0.396,1.438c-0.034,0.125-0.107,0.161-0.241,0.16c-1.644-0.016-3.285-0.023-4.927-0.028
			c-0.295-0.001-0.591,0.007-0.886,0.029c-0.155,0.011-0.219-0.052-0.225-0.191c0-0.13,0.026-0.227,0.187-0.243
			c0.219-0.023,0.435-0.063,0.652-0.1c0.168-0.028,0.271-0.131,0.302-0.295c0.023-0.125,0.042-0.253,0.042-0.379
			c0.002-1.66,0.004-3.32-0.005-4.979c-0.002-0.461-0.104-0.563-0.554-0.645c-0.058-0.011-0.114-0.027-0.172-0.033
			c-0.152-0.013-0.214-0.102-0.197-0.245c0.014-0.141,0.083-0.187,0.232-0.186c1.509,0.016,3.018,0.022,4.526,0.031
			c0.319,0.001,0.636,0,0.982,0c0.046,0.519,0.091,1.044,0.141,1.568c0.014,0.132-0.043,0.201-0.164,0.217
			c-0.124,0.017-0.247,0.017-0.303-0.131c-0.051-0.13-0.105-0.257-0.157-0.386c-0.189-0.479-0.568-0.695-1.055-0.72
			c-0.457-0.022-0.917-0.007-1.375-0.013c-0.161-0.002-0.219,0.083-0.219,0.227c0,0.731,0,1.463,0,2.194
			c0,0.137,0.063,0.199,0.202,0.197c0.378-0.003,0.755,0.004,1.132-0.003c0.335-0.008,0.465-0.116,0.561-0.439
			c0.029-0.099,0.048-0.202,0.073-0.303c0.037-0.158,0.115-0.196,0.315-0.176c0.142,0.014,0.154,0.096,0.153,0.215
			c-0.003,0.679-0.005,1.356,0.001,2.035c0.003,0.137-0.021,0.231-0.175,0.237c-0.136,0.006-0.27,0.009-0.298-0.183
			c-0.02-0.136-0.062-0.27-0.104-0.403c-0.067-0.218-0.225-0.34-0.448-0.346c-0.413-0.013-0.826-0.007-1.237-0.011
			c-0.106,0-0.175,0.051-0.172,0.152c0.016,0.729,0.025,1.461,0.064,2.19c0.016,0.297,0.216,0.504,0.518,0.519
			c0.529,0.024,1.063,0.028,1.594,0c0.299-0.015,0.544-0.203,0.72-0.445c0.161-0.218,0.304-0.451,0.439-0.687
			c0.089-0.156,0.216-0.16,0.358-0.122C14.561,23.421,14.559,23.541,14.528,23.662z M22.071,24.375
			c0.006,0.357,0.092,0.435,0.442,0.459c0.064,0.004,0.127,0.024,0.189,0.021c0.179-0.007,0.212,0.093,0.208,0.243
			c-0.005,0.169-0.109,0.173-0.236,0.173c-0.882-0.003-1.764-0.001-2.645-0.004c-0.054,0-0.146-0.017-0.154-0.042
			c-0.044-0.158-0.152-0.131-0.262-0.11c-0.562,0.109-1.124,0.214-1.684,0.332c-0.238,0.05-0.299,0.007-0.275-0.229
			c0.011-0.11-0.013-0.224-0.022-0.333c-0.097,0.036-0.203,0.055-0.291,0.108c-0.548,0.332-1.136,0.461-1.768,0.342
			c-0.523-0.098-0.841-0.437-0.895-0.969c-0.031-0.31-0.031-0.625-0.036-0.937c-0.006-0.505,0.001-1.011-0.003-1.516
			c-0.002-0.341-0.052-0.415-0.375-0.51c-0.155-0.044-0.162-0.144-0.154-0.266c0.011-0.128,0.083-0.175,0.21-0.181
			c0.556-0.03,1.108-0.075,1.642-0.258c0.159-0.056,0.233,0.019,0.23,0.197c-0.011,0.748-0.023,1.496-0.03,2.244
			c-0.003,0.227,0.009,0.452,0.018,0.679c0.023,0.573,0.371,0.774,0.916,0.72c0.102-0.009,0.2-0.055,0.296-0.094
			c0.202-0.083,0.284-0.238,0.282-0.453c-0.004-0.685,0-1.37-0.001-2.055c-0.001-0.396-0.093-0.5-0.492-0.542
			c-0.134-0.014-0.222-0.054-0.216-0.208c0.004-0.155,0.074-0.223,0.234-0.233c0.605-0.047,1.214-0.086,1.804-0.258
			c0.158-0.047,0.222,0.018,0.221,0.189c-0.012,0.992-0.025,1.984-0.031,2.976c0,0.19,0.017,0.383,0.051,0.569
			c0.041,0.222,0.138,0.274,0.362,0.241c0.045-0.007,0.092-0.011,0.137-0.02c0.253-0.053,0.253-0.053,0.323,0.182
			c0.324,0.006,0.449-0.084,0.455-0.403c0.014-0.823,0.008-1.648,0.005-2.472c-0.001-0.177-0.123-0.273-0.257-0.366
			c-0.071-0.05-0.135-0.138-0.161-0.222c-0.031-0.104,0.032-0.176,0.144-0.218c0.516-0.194,1.024-0.4,1.537-0.594
			c0.063-0.023,0.159-0.021,0.207,0.014c0.043,0.034,0.055,0.126,0.056,0.194c0.004,0.109-0.02,0.22-0.02,0.329
			c0,0.115,0.059,0.147,0.158,0.08c0.139-0.094,0.268-0.208,0.416-0.283c0.168-0.085,0.348-0.172,0.528-0.198
			c0.398-0.057,0.711,0.18,0.749,0.526c0.051,0.464-0.194,0.788-0.632,0.836c-0.202,0.022-0.372-0.042-0.531-0.164
			c-0.11-0.083-0.229-0.155-0.352-0.221c-0.129-0.072-0.217-0.005-0.254,0.117c-0.03,0.104-0.047,0.216-0.048,0.325
			C22.064,22.866,22.062,23.62,22.071,24.375z M26.568,25.363c-0.099,0.008-0.195,0.001-0.295,0.001
			c-0.41,0.012-0.807-0.05-1.191-0.201c-0.929-0.364-1.424-1.145-1.399-2.142c0.032-1.262,0.938-2.096,2.098-2.296
			c0.709-0.122,1.399-0.042,2.036,0.318c0.845,0.478,1.154,1.305,1.097,2.167C28.82,24.607,27.759,25.273,26.568,25.363z
			 M34.392,25.259c-0.799-0.01-1.599-0.009-2.396,0c-0.143,0.001-0.195-0.061-0.203-0.178c-0.006-0.119,0.002-0.229,0.168-0.252
			c0.355-0.053,0.406-0.11,0.408-0.47c0.004-0.713,0.004-1.428,0-2.141c-0.002-0.325-0.164-0.559-0.443-0.659
			c-0.334-0.12-0.777-0.039-0.951,0.189c-0.057,0.072-0.092,0.18-0.092,0.271c-0.006,0.812-0.006,1.624,0.002,2.437
			c0.002,0.262,0.088,0.352,0.357,0.371c0.176,0.013,0.211,0.104,0.205,0.252c-0.01,0.157-0.1,0.179-0.236,0.177
			c-0.773-0.006-1.553-0.004-2.328-0.002c-0.195,0.001-0.264-0.063-0.24-0.256c0.013-0.1,0.058-0.152,0.162-0.167
			c0.484-0.063,0.533-0.122,0.537-0.604c0-0.724-0.006-1.45,0.002-2.176c0.002-0.22-0.08-0.369-0.27-0.487
			c-0.074-0.046-0.139-0.152-0.152-0.24c-0.01-0.055,0.072-0.159,0.134-0.182c0.521-0.206,1.047-0.396,1.572-0.594
			c0.16-0.06,0.277,0.022,0.268,0.192c-0.008,0.143-0.014,0.287-0.025,0.487c0.168-0.082,0.293-0.141,0.414-0.204
			c0.418-0.214,0.844-0.371,1.328-0.341c0.74,0.046,1.268,0.577,1.273,1.321c0.004,0.545-0.002,1.091,0.002,1.636
			c0,0.221,0.008,0.44,0.018,0.661c0.016,0.414,0.086,0.494,0.498,0.527c0.154,0.013,0.203,0.093,0.201,0.224
			C34.599,25.181,34.556,25.259,34.392,25.259z M38.695,24.24c-0.445,0.754-1.111,1.129-1.98,1.133
			c-0.643,0.001-1.23-0.164-1.703-0.62c-0.69-0.66-0.869-1.704-0.466-2.638c0.393-0.911,1.338-1.485,2.355-1.44
			c0.504,0.022,0.963,0.146,1.334,0.505c0.289,0.28,0.426,0.63,0.443,1.026c0.016,0.304-0.101,0.425-0.408,0.43
			c-0.383,0.006-0.767,0.002-1.148,0.002c-0.377,0-0.754,0.004-1.131-0.001c-0.156-0.003-0.213,0.054-0.211,0.214
			c0.016,1.04,0.885,1.756,1.979,1.52c0.239-0.051,0.438-0.189,0.58-0.387c0.086-0.118,0.166-0.176,0.299-0.089
			C38.765,23.976,38.784,24.084,38.695,24.24z M42.133,24.8c-0.316,0.28-0.688,0.458-1.103,0.521
			c-0.267,0.042-0.545,0.062-0.812,0.027c-0.647-0.082-0.977-0.498-0.985-1.198c-0.007-0.412,0-0.824,0-1.236
			c0-0.423-0.005-0.847,0-1.271c0.002-0.141-0.046-0.204-0.188-0.191c-0.101,0.008-0.197,0.002-0.298,0
			c-0.116-0.003-0.178-0.072-0.196-0.182c-0.021-0.111,0.029-0.178,0.136-0.223c0.666-0.265,1.24-0.654,1.664-1.242
			c0.084-0.117,0.195-0.105,0.312-0.076c0.123,0.03,0.107,0.132,0.107,0.224c0,0.221,0.008,0.442-0.004,0.662
			c-0.006,0.155,0.047,0.219,0.211,0.213c0.301-0.011,0.604,0.002,0.904-0.005c0.151-0.003,0.207,0.071,0.215,0.209
			c0.018,0.31-0.086,0.422-0.392,0.422c-0.256,0-0.51,0.005-0.767-0.001c-0.122-0.004-0.18,0.03-0.18,0.164
			c0.008,0.725-0.008,1.452,0.019,2.175c0.021,0.684,0.536,0.986,1.144,0.69c0.098-0.048,0.176-0.06,0.237,0.039
			C42.217,24.617,42.233,24.712,42.133,24.8z"/>
	</g>
</g>
<g>
	<g>
		<path d="M35.154,37.14c-0.295,0-0.59,0-0.885,0c0.016,0.045,0.031,0.06,0.052,0.066c0.263,0.084,0.265,0.084,0.134,0.328
			c-0.232,0.439-0.471,0.877-0.709,1.316c-0.028,0.048-0.057,0.094-0.1,0.164c-0.166-0.312-0.323-0.595-0.469-0.883
			c-0.017-0.038-0.005-0.105,0.018-0.142c0.127-0.209,0.25-0.42,0.398-0.61c0.058-0.076,0.177-0.108,0.271-0.153
			c0.051-0.026,0.105-0.034,0.16-0.053c-0.004-0.014-0.008-0.027-0.012-0.041c-0.286,0-0.568,0-0.851,0
			c0.043,0.055,0.11,0.062,0.147,0.095c0.036,0.034,0.075,0.11,0.058,0.141c-0.095,0.181-0.201,0.356-0.328,0.571
			c-0.135-0.25-0.246-0.462-0.367-0.688c0.128-0.031,0.212-0.053,0.296-0.074c-0.003-0.014-0.005-0.024-0.009-0.036
			c-0.385,0-0.773,0-1.129,0c0.112,0.088,0.263,0.161,0.34,0.276c0.187,0.279,0.341,0.58,0.502,0.873
			c0.022,0.041,0.046,0.113,0.025,0.143c-0.119,0.202-0.25,0.396-0.39,0.611c-0.026-0.04-0.037-0.053-0.047-0.066
			c-0.299-0.524-0.596-1.048-0.895-1.573c-0.064-0.117-0.05-0.18,0.098-0.189c0.037-0.004,0.073-0.03,0.116-0.045
			c-0.007-0.015-0.01-0.026-0.014-0.039c-0.402,0-0.805,0-1.207,0c-0.005,0.019-0.013,0.041-0.023,0.062
			c0.41-0.016,0.483,0.316,0.629,0.567c0.336,0.584,0.662,1.171,0.996,1.756c0.117,0.207,0.16,0.207,0.285-0.001
			c0.166-0.271,0.327-0.548,0.492-0.82c0.028-0.041,0.055-0.08,0.102-0.142c0.178,0.343,0.342,0.664,0.51,0.978
			c0.025,0.051,0.078,0.09,0.119,0.133c0.041-0.041,0.096-0.078,0.123-0.127c0.352-0.651,0.697-1.308,1.047-1.963
			c0.098-0.186,0.195-0.375,0.453-0.365c0.021,0,0.049-0.022,0.07-0.034C35.158,37.163,35.156,37.153,35.154,37.14z"/>
	</g>
</g>
<g>
	<g>
		<path d="M44.773,37.584c-0.198-0.195-0.442-0.315-0.711-0.383c-0.586-0.142-1.176-0.101-1.766-0.045
			c-0.148,0.015-0.293,0.051-0.439,0.078c0.003,0.021,0.007,0.041,0.009,0.062c0.049,0,0.096,0.005,0.146,0
			c0.235-0.022,0.271,0.008,0.271,0.252c0,0.557,0,1.112,0,1.671c-0.001,0.214-0.053,0.265-0.264,0.284
			c-0.055,0.007-0.106,0.025-0.159,0.039c0.028,0.049,0.053,0.062,0.079,0.062c0.621-0.003,1.24,0.011,1.861-0.014
			c0.348-0.016,0.666-0.149,0.932-0.387C45.253,38.738,45.271,38.066,44.773,37.584z M43.697,39.458
			c-0.179,0.051-0.377,0.062-0.562,0.048c-0.236-0.019-0.312-0.132-0.317-0.373c-0.003-0.269,0-0.534,0-0.802
			c0-0.284,0.003-0.568-0.001-0.854c-0.005-0.156,0.068-0.255,0.228-0.269c0.652-0.053,1.402,0.25,1.508,1.084
			C44.615,38.773,44.24,39.308,43.697,39.458z"/>
	</g>
</g>
<g>
</g>
<g>
</g>
<g>
</g>
<g>
</g>
<g>
</g>
<g>
</g>
<g>
</g>
<g>
</g>
<g>
</g>
<g>
</g>
<g>
</g>
<g>
</g>
<g>
</g>
<g>
</g>
<g>
</g>
</svg>
