<?xml version="1.0" encoding="iso-8859-1"?>
<!-- Generator: Adobe Illustrator 19.0.0, SVG Export Plug-In . SVG Version: 6.00 Build 0)  -->
<svg version="1.1" id="Capa_1" xmlns="http://www.w3.org/2000/svg" xmlns:xlink="http://www.w3.org/1999/xlink" x="0px" y="0px"
	 viewBox="0 0 49.542 49.542" style="enable-background:new 0 0 49.542 49.542;" xml:space="preserve">
<g>
	<g>
		<polygon points="42.783,7.66 21.309,29.132 21.309,30.347 44.199,7.66 		"/>
	</g>
</g>
<g>
	<g>
		<path d="M21.309,22.689c-0.584-2.695-1.886-3.368-5.12-3.368H0v1.257h16.55c3.367,0.001,4.081,1.56,4.31,2.246
			C20.995,23.228,21.444,23.138,21.309,22.689z"/>
	</g>
</g>
<g>
	<g>
		<polygon points="8.486,35.066 8.486,36.294 9.685,36.294 9.685,40.645 11.134,40.645 11.134,36.294 12.333,36.294 12.334,35.066 
					"/>
	</g>
</g>
<g>
	<g>
		<path d="M21.309,25.158c-0.584-2.694-1.886-3.368-5.12-3.368H0v1.257h16.55c3.367,0.001,4.081,1.56,4.31,2.245
			C20.995,25.696,21.444,25.606,21.309,25.158z"/>
	</g>
</g>
<g>
	<g>
		<path d="M21.309,15.28c-0.584-2.695-1.886-3.368-5.12-3.368H0v1.257h16.55c3.367-0.001,4.081,1.559,4.31,2.246
			C20.995,15.819,21.444,15.729,21.309,15.28z"/>
	</g>
</g>
<g>
	<g>
		<polygon points="35.104,7.66 21.432,21.331 21.791,22.206 36.434,7.66 		"/>
	</g>
</g>
<g>
	<g>
		<polygon points="37.663,7.66 21.432,23.891 21.791,24.766 39.016,7.66 		"/>
	</g>
</g>
<g>
	<g>
		<path d="M21.309,17.749c-0.584-2.695-1.886-3.369-5.12-3.369H0v1.257h16.55c3.367,0.002,4.081,1.56,4.31,2.247
			C20.995,18.288,21.444,18.198,21.309,17.749z"/>
	</g>
</g>
<g>
	<g>
		<polygon points="40.222,7.661 21.309,26.574 21.309,27.788 41.617,7.661 		"/>
	</g>
</g>
<g>
	<g>
		<path d="M21.309,20.219c-0.584-2.695-1.886-3.368-5.12-3.368H0v1.257h16.55c3.367,0,4.081,1.559,4.31,2.246
			C20.995,20.758,21.444,20.668,21.309,20.219z"/>
	</g>
</g>
<g>
	<g>
		<path d="M20.219,39.396l2.064-2.063c-0.551-0.888-1.162-1.072-1.791-1.073c-1.311-0.001-2.336,0.929-2.336,2.271
			c0,1.261,1.034,2.181,2.27,2.181c0.36,0,1.215-0.107,1.674-0.353v-1.467c-0.488,0.396-0.703,0.64-1.371,0.613
			C20.561,39.5,20.385,39.46,20.219,39.396z M19.408,38.431c0-0.578,0.471-1.133,1.041-1.133c0.097,0,0.246,0.07,0.406,0.166
			l-1.343,1.352C19.445,38.699,19.408,38.568,19.408,38.431z"/>
	</g>
</g>
<g>
	<g>
		<path d="M40.189,37.436c0.285,0,0.545,0.129,0.766,0.291v-1.252c-0.293-0.162-0.635-0.244-0.977-0.244
			c-1.312-0.001-2.337,0.925-2.337,2.268c0,1.263,1.032,2.183,2.271,2.183c0.356,0,0.715-0.074,1.041-0.236v-1.254
			c-0.195,0.179-0.479,0.285-0.74,0.285c-0.61,0-1.041-0.424-1.041-1.024C39.172,37.875,39.617,37.436,40.189,37.436z"/>
	</g>
</g>
<g>
	<g>
		<polygon points="45.409,7.66 21.309,31.738 21.309,32.952 46.805,7.66 		"/>
	</g>
</g>
<g>
	<g>
		<polygon points="45.95,36.349 44.359,36.349 42.921,38.154 42.934,35.064 41.587,35.064 41.587,40.63 42.934,40.63 42.934,38.734 
			44.091,40.63 45.919,40.63 44.391,38.427 		"/>
	</g>
</g>
<g>
	<g>
		<path d="M48.529,40.259h-0.355v0.439h0.232c0.174,0,0.445,0.027,0.445-0.225C48.852,40.284,48.682,40.259,48.529,40.259z"/>
	</g>
</g>
<g>
	<g>
		<path d="M48.436,39.663c-0.617,0-1.113,0.498-1.113,1.108c0,0.615,0.496,1.111,1.113,1.111c0.61,0,1.106-0.496,1.106-1.111
			C49.542,40.161,49.046,39.663,48.436,39.663z M48.987,41.389h-0.182l-0.354-0.572h-0.279v0.572h-0.151v-1.24h0.541
			c0.106,0,0.209,0.006,0.303,0.061c0.094,0.055,0.141,0.166,0.141,0.27c0,0.244-0.172,0.334-0.393,0.34L48.987,41.389z"/>
	</g>
</g>
<g>
	<g>
		<path d="M27.111,38.825c-0.371,0.446-0.804,0.543-1.184,0.543c-0.901,0-1.508-0.636-1.508-1.517c0-0.865,0.601-1.547,1.485-1.547
			c0.496,0,0.979,0.215,1.271,0.613l0.977-0.904C27.385,34.88,26.32,34.9,25.854,34.9c-0.783,0-1.575,0.34-2.122,0.902
			c-0.533,0.547-0.822,1.279-0.822,2.041c0,0.828,0.281,1.553,0.895,2.107c0.578,0.525,1.318,0.82,2.093,0.82
			c0.451,0,1.732-0.142,2.283-1.15L27.111,38.825z"/>
	</g>
</g>
<g>
	<g>
		<rect x="16.275" y="35.06" width="1.346" height="5.57"/>
	</g>
</g>
<g>
	<g>
		<path d="M13.703,39.396l2.064-2.063c-0.551-0.888-1.162-1.072-1.793-1.073c-1.309-0.001-2.334,0.929-2.334,2.271
			c0,1.261,1.034,2.181,2.27,2.181c0.36,0,1.215-0.107,1.674-0.353v-1.467c-0.488,0.396-0.703,0.64-1.373,0.613
			C14.045,39.5,13.869,39.46,13.703,39.396z M12.892,38.431c0-0.578,0.471-1.133,1.039-1.133c0.099,0,0.248,0.07,0.408,0.166
			l-1.345,1.352C12.929,38.699,12.892,38.568,12.892,38.431z"/>
	</g>
</g>
<g>
	<g>
		<path d="M35.188,39.396l2.063-2.063c-0.55-0.888-1.162-1.072-1.793-1.073c-1.31-0.001-2.334,0.929-2.334,2.271
			c0,1.261,1.035,2.181,2.271,2.181c0.36,0,1.215-0.107,1.674-0.353v-1.467c-0.488,0.396-0.703,0.64-1.373,0.613
			C35.53,39.5,35.354,39.46,35.188,39.396z M34.377,38.431c0-0.578,0.473-1.133,1.039-1.133c0.099,0,0.248,0.07,0.408,0.166
			l-1.343,1.352C34.414,38.699,34.377,38.568,34.377,38.431z"/>
	</g>
</g>
<g>
	<g>
		<path d="M31.203,36.238c-0.523,0-0.902,0.191-1.213,0.605h-0.016v-1.777h-1.347v5.564h1.347v-2.418c0-0.443,0.17-0.9,0.702-0.9
			c0.539,0,0.605,0.457,0.605,0.9v2.418h1.348v-2.795C32.63,36.874,32.164,36.238,31.203,36.238z"/>
	</g>
</g>
<g>
</g>
<g>
</g>
<g>
</g>
<g>
</g>
<g>
</g>
<g>
</g>
<g>
</g>
<g>
</g>
<g>
</g>
<g>
</g>
<g>
</g>
<g>
</g>
<g>
</g>
<g>
</g>
<g>
</g>
</svg>
