<?xml version="1.0" encoding="iso-8859-1"?>
<!-- Generator: Adobe Illustrator 19.0.0, SVG Export Plug-In . SVG Version: 6.00 Build 0)  -->
<svg version="1.1" id="Capa_1" xmlns="http://www.w3.org/2000/svg" xmlns:xlink="http://www.w3.org/1999/xlink" x="0px" y="0px"
	 viewBox="0 0 27.574 27.574" style="enable-background:new 0 0 27.574 27.574;" xml:space="preserve">
<g>
	<g>
		<path d="M6.078,17.445c0,1.451,0,2.894,0,4.34c0.442,0,0.876,0,1.319,0c0-1.456,0-2.898,0-4.34
			C6.949,17.445,6.511,17.445,6.078,17.445z"/>
	</g>
</g>
<g>
	<g>
		<path d="M5.155,24.24c-0.362-0.638-0.966-0.97-1.643-1.164c-0.461-0.131-0.942-0.155-1.422-0.153c-0.678,0.002-1.355,0-2.033,0
			c0,1.463,0,2.926,0,4.389c0.874-0.007,1.749-0.017,2.624-0.028c0.437-0.006,0.859-0.095,1.261-0.265
			c0.59-0.252,1.089-0.602,1.323-1.235C5.462,25.253,5.429,24.724,5.155,24.24z M3.078,26.384c-0.307,0.121-0.621,0.174-0.948,0.172
			c-0.241-0.002-0.481,0-0.728,0c0-0.978,0-1.977,0-3.002c0.534,0.104,1.082-0.013,1.597,0.184c0.438,0.169,0.782,0.444,0.922,0.908
			C4.142,25.38,3.843,26.089,3.078,26.384z"/>
	</g>
</g>
<g>
	<g>
		<path d="M8.825,26.643c-0.341-0.079-0.708-0.311-0.693-0.727c1.069,0,2.138,0,3.221,0c0.034-0.385-0.031-0.734-0.197-1.064
			c-0.239-0.483-0.662-0.736-1.158-0.875c-0.364-0.104-0.734-0.133-1.117-0.097c-0.631,0.057-1.203,0.225-1.661,0.694
			c-0.38,0.39-0.517,0.847-0.405,1.378c0.091,0.428,0.355,0.742,0.708,0.979c0.432,0.295,0.922,0.418,1.436,0.436
			c0.361,0.013,0.725,0.006,1.083-0.031c0.309-0.031,0.611-0.117,0.914-0.189c0.034-0.007,0.078-0.071,0.08-0.111
			c0.008-0.227,0.003-0.452,0.003-0.674c-0.151,0.068-0.292,0.15-0.443,0.193C10.013,26.714,9.421,26.774,8.825,26.643z
			 M8.448,24.702c0.408-0.215,0.833-0.25,1.261-0.06c0.225,0.1,0.326,0.265,0.428,0.631c-0.667,0-1.326,0-1.982,0
			C8.114,25.078,8.236,24.812,8.448,24.702z"/>
	</g>
</g>
<g>
	<g>
		<path d="M26.099,26.689c-0.15-0.075-0.254-0.189-0.24-0.387c0.014-0.222,0.002-0.444,0.002-0.668c0-0.27,0-0.539,0-0.824
			c0.365,0,0.717,0,1.064,0c0-0.24,0-0.465,0-0.699c-0.359,0-0.707,0-1.068,0c0-0.284,0-0.559,0-0.826c-0.443,0-0.871,0-1.312,0
			c0,0.279,0,0.551,0,0.836c-0.34,0-0.672,0-1.002,0c0,0.237,0,0.458,0,0.693c0.338,0,0.67,0,1.01,0c0,0.068,0,0.121,0,0.175
			c0,0.537-0.004,1.073,0.002,1.61c0.004,0.205,0.08,0.395,0.225,0.541c0.213,0.221,0.486,0.322,0.781,0.375
			c0.102,0.019,0.201,0.039,0.301,0.059c0.164,0,0.33,0,0.494,0c0.129-0.02,0.262-0.028,0.387-0.062
			c0.08-0.021,0.217,0.027,0.223-0.119c0.009-0.215,0.003-0.43,0.003-0.646C26.661,26.811,26.372,26.828,26.099,26.689z"/>
	</g>
</g>
<g>
	<g>
		<path d="M22.757,17.462c0.001,0.252,0.001,0.482,0.001,0.727c0.592,0,1.174,0,1.771,0c0,1.229,0,2.439,0,3.652
			c0.42,0,0.826,0,1.246,0c0-1.219,0-2.432,0-3.654c0.59,0,1.166,0,1.742,0c0-0.24,0-0.482,0-0.725
			C25.929,17.462,24.343,17.462,22.757,17.462z"/>
	</g>
</g>
<g>
	<g>
		<path d="M5.276,19.048c-0.181-0.527-0.573-0.889-1.059-1.15c-0.572-0.307-1.193-0.43-1.838-0.436
			C1.606,17.454,0.83,17.46,0.057,17.46c0,1.463,0,2.926,0,4.389c0.792-0.007,1.583-0.03,2.375-0.024
			c0.523,0.003,1.024-0.076,1.507-0.27c0.437-0.173,0.82-0.427,1.099-0.812C5.416,20.222,5.48,19.642,5.276,19.048z M3.517,20.67
			c-0.278,0.231-0.605,0.356-0.959,0.393c-0.272,0.026-0.548,0.019-0.821,0.033C1.629,21.1,1.52,21.118,1.4,21.13
			c0-1.022,0-2.019,0-3c0.21,0,0.414-0.009,0.618,0c0.21,0.01,0.419,0.036,0.628,0.057c0.375,0.033,0.688,0.209,0.952,0.464
			C4.14,19.171,4.134,20.159,3.517,20.67z"/>
	</g>
</g>
<g>
	<g>
		<path d="M24.775,7.151c-0.104-0.637-0.315-1.246-0.612-1.819c-0.3-0.579-0.664-1.123-1.105-1.603
			c-0.502-0.545-1.047-1.043-1.66-1.463c-0.739-0.506-1.516-0.936-2.354-1.25c-0.458-0.172-0.921-0.338-1.396-0.463
			c-0.57-0.15-1.152-0.259-1.732-0.374c-0.266-0.053-0.534-0.086-0.805-0.114c-0.229-0.024-0.457-0.028-0.719-0.042
			c0.059,0.116-0.062,0.251,0.127,0.3c0.427,0.113,0.867,0.205,1.277,0.366c0.51,0.2,1.016,0.425,1.486,0.704
			c0.676,0.401,1.289,0.898,1.78,1.525c0.287,0.367,0.558,0.747,0.746,1.173c0.178,0.405,0.344,0.817,0.481,1.238
			c0.095,0.29,0.142,0.598,0.193,0.901c0.059,0.371,0.121,0.744,0.137,1.119c0.019,0.433,0.006,0.869-0.026,1.301
			c-0.031,0.402-0.091,0.804-0.175,1.198c-0.181,0.87-0.532,1.676-1.028,2.414c-0.36,0.539-0.795,1.016-1.289,1.442
			c-0.474,0.413-1,0.75-1.562,1.021c-0.774,0.371-1.593,0.603-2.446,0.699c-0.45,0.051-0.909,0.047-1.363,0.031
			c-0.476-0.015-0.955-0.053-1.428-0.115c-0.493-0.067-0.988-0.148-1.468-0.271c-0.815-0.209-1.616-0.476-2.363-0.872
			c-0.463-0.246-0.925-0.498-1.363-0.785C5.59,13.073,5.12,12.669,4.71,12.198c-0.445-0.508-0.798-1.062-0.945-1.73
			c-0.098-0.452-0.07-0.893,0.141-1.31C4.172,8.629,4.59,8.238,5.065,7.9c0.491-0.347,1.017-0.623,1.569-0.858
			c0.792-0.339,1.61-0.604,2.457-0.765c0.563-0.108,1.128-0.216,1.697-0.286c0.541-0.067,1.087-0.099,1.633-0.117
			c0.448-0.015,0.897,0.015,1.346,0.024c0.045,0.001,0.093-0.004,0.149-0.007c0-1.971,0-3.931,0-5.891c-0.29,0-0.58,0-0.871,0
			c-0.014,0.009-0.028,0.026-0.044,0.027c-0.399,0.021-0.796,0.038-1.195,0.062c-0.218,0.012-0.438,0.03-0.655,0.062
			c-0.339,0.049-0.676,0.105-1.011,0.17C9.692,0.408,9.234,0.482,8.796,0.607C8.197,0.779,7.603,0.969,7.023,1.198
			c-0.486,0.193-0.96,0.43-1.416,0.685C5.061,2.19,4.552,2.559,4.083,2.982c-0.408,0.369-0.775,0.77-1.096,1.215
			c-0.372,0.519-0.673,1.077-0.884,1.68c-0.082,0.237-0.165,0.476-0.21,0.721C1.825,6.966,1.796,7.342,1.741,7.714
			c-0.076,0.52-0.016,1.035,0.074,1.543c0.082,0.46,0.225,0.906,0.413,1.338c0.271,0.624,0.624,1.194,1.062,1.709
			c0.294,0.347,0.61,0.683,0.955,0.981c0.406,0.352,0.836,0.685,1.289,0.977c0.473,0.301,0.977,0.555,1.479,0.805
			c0.342,0.17,0.697,0.322,1.061,0.441c0.528,0.174,1.066,0.324,1.607,0.456c0.469,0.113,0.946,0.203,1.423,0.273
			c0.426,0.061,0.854,0.095,1.284,0.116c0.408,0.02,0.817,0.02,1.223,0c0.584-0.024,1.17-0.061,1.75-0.115
			c0.415-0.039,0.834-0.092,1.239-0.184c0.555-0.125,1.102-0.293,1.655-0.442c0.609-0.166,1.191-0.41,1.753-0.692
			c0.44-0.22,0.858-0.486,1.28-0.74c0.484-0.298,0.929-0.656,1.334-1.053c0.193-0.185,0.377-0.374,0.547-0.578
			c0.221-0.262,0.437-0.528,0.623-0.811c0.311-0.485,0.561-1.003,0.746-1.556c0.197-0.588,0.301-1.19,0.324-1.801
			C24.878,7.972,24.839,7.555,24.775,7.151z"/>
	</g>
</g>
<g>
	<g>
		<path d="M20.288,24.128c0,1.075,0,2.138,0,3.207c0.422,0,0.836,0,1.263,0c0-1.075,0-2.146,0-3.207
			C21.122,24.128,20.704,24.128,20.288,24.128z"/>
	</g>
</g>
<g>
	<g>
		<path d="M20.288,22.613c0,0.275,0,0.546,0,0.822c0.431,0,0.847,0,1.261,0c0-0.28,0-0.552,0-0.822
			C21.122,22.613,20.708,22.613,20.288,22.613z"/>
	</g>
</g>
<g>
	<g>
		<path d="M13.7,6.246c-0.313,0.039-0.636,0.054-0.946,0.123c-0.503,0.112-0.991,0.287-1.445,0.531
			c-0.611,0.327-1.154,0.747-1.59,1.293C9.455,8.524,9.233,8.881,9.088,9.28c-0.115,0.318-0.229,0.635-0.229,0.979
			c-0.001,0.325-0.025,0.654,0.019,0.974c0.046,0.331,0.165,0.646,0.326,0.946c0.215,0.396,0.487,0.747,0.816,1.043
			c0.263,0.236,0.561,0.441,0.859,0.632c0.474,0.302,0.981,0.533,1.527,0.675c0.307,0.079,0.612,0.158,0.923,0.226
			c0.176,0.038,0.357,0.05,0.549,0.072c0-2.885,0-5.745,0-8.614C13.812,6.225,13.756,6.239,13.7,6.246z"/>
	</g>
</g>
<g>
	<g>
		<path d="M17.426,18.184c0-0.254,0-0.498,0-0.739c-1.175,0-2.339,0-3.5,0c0,1.461,0,2.911,0,4.368c1.155,0,2.308,0,3.468,0
			c0-0.254,0-0.498,0-0.752c-0.766,0-1.52,0-2.275,0c0-0.352,0-0.689,0-1.047c0.728,0,1.445,0,2.164,0c0-0.256,0-0.498,0-0.752
			c-0.727,0-1.445,0-2.162,0c0-0.367,0-0.717,0-1.078C15.895,18.184,16.658,18.184,17.426,18.184z"/>
	</g>
</g>
<g>
	<g>
		<path d="M11.824,19.714c0.308-0.081,0.6-0.186,0.795-0.487c0.143-0.224,0.176-0.457,0.169-0.707
			c-0.009-0.342-0.189-0.596-0.462-0.756c-0.421-0.248-0.893-0.332-1.382-0.33c-0.28,0.002-0.562,0-0.842,0
			c-0.521,0-1.044,0-1.576,0c0,1.473,0,2.926,0,4.377c0.438,0,0.865,0,1.303,0c0-0.582,0-1.15,0-1.731
			c0.198,0,0.387-0.013,0.574,0.002c0.227,0.016,0.425,0.112,0.539,0.319c0.241,0.438,0.476,0.882,0.707,1.326
			c0.035,0.07,0.068,0.098,0.147,0.098c0.397-0.004,0.795-0.002,1.191-0.003c0.029,0,0.058-0.011,0.104-0.019
			C12.63,21.11,12.342,20.336,11.824,19.714z M11.262,19.113c-0.204,0.135-0.425,0.204-0.667,0.208c-0.251,0.002-0.501,0-0.769,0
			c0-0.394,0-0.767,0-1.138c0.345,0,0.689,0.002,1.032,0c0.191-0.002,0.33,0.097,0.466,0.213
			C11.533,18.575,11.476,18.973,11.262,19.113z"/>
	</g>
</g>
<g>
	<g>
		<path d="M21.732,21.094c-0.519,0.015-1.034,0.02-1.536-0.142c-0.4-0.127-0.742-0.325-0.925-0.722
			c-0.146-0.318-0.137-0.65-0.055-0.988c0.064-0.275,0.193-0.513,0.404-0.689c0.363-0.312,0.812-0.398,1.271-0.418
			c0.211-0.011,0.424,0.006,0.635,0.027c0.275,0.027,0.553,0.077,0.854,0.121c0.033-0.186,0.072-0.395,0.104-0.602
			c0.006-0.021-0.027-0.062-0.055-0.07c-0.336-0.122-0.678-0.219-1.035-0.234c-0.268-0.011-0.535-0.015-0.801,0.001
			c-0.262,0.019-0.523,0.042-0.777,0.104c-0.521,0.125-1.021,0.313-1.43,0.69c-0.213,0.195-0.387,0.413-0.488,0.685
			c-0.121,0.324-0.17,0.654-0.119,1.007c0.059,0.424,0.219,0.795,0.506,1.106c0.355,0.383,0.806,0.621,1.301,0.758
			c0.515,0.145,1.037,0.215,1.576,0.187c0.42-0.022,0.83-0.083,1.25-0.194c-0.022-0.24-0.045-0.475-0.065-0.709
			C22.125,21.042,21.931,21.087,21.732,21.094z"/>
	</g>
</g>
<g>
	<g>
		<path d="M18.015,25.352c-0.055-0.295-0.172-0.558-0.37-0.783c-0.32-0.36-0.742-0.529-1.197-0.562
			c-0.656-0.049-1.311-0.019-1.871,0.502c0-0.666,0-1.296,0-1.925c-0.448,0-0.866,0-1.281,0c0,1.58,0,3.152,0,4.72
			c0.436,0,0.858,0,1.296,0c0-0.11,0-0.216,0-0.324c0.027,0.007,0.05,0.005,0.062,0.016c0.301,0.286,0.681,0.391,1.072,0.426
			c0.447,0.041,0.9,0.029,1.32-0.174c0.391-0.189,0.691-0.464,0.861-0.875C18.041,26.04,18.077,25.704,18.015,25.352z
			 M16.223,26.567c-0.445,0.239-1.008,0.169-1.377-0.175c-0.19-0.17-0.299-0.392-0.262-0.649c-0.078-0.543,0.489-0.956,0.928-0.991
			c0.356-0.029,0.67,0.042,0.932,0.283C16.952,25.502,16.819,26.248,16.223,26.567z"/>
	</g>
</g>
<g>
</g>
<g>
</g>
<g>
</g>
<g>
</g>
<g>
</g>
<g>
</g>
<g>
</g>
<g>
</g>
<g>
</g>
<g>
</g>
<g>
</g>
<g>
</g>
<g>
</g>
<g>
</g>
<g>
</g>
</svg>
