<?xml version="1.0" encoding="iso-8859-1"?>
<!-- Generator: Adobe Illustrator 19.0.0, SVG Export Plug-In . SVG Version: 6.00 Build 0)  -->
<svg version="1.1" id="Capa_1" xmlns="http://www.w3.org/2000/svg" xmlns:xlink="http://www.w3.org/1999/xlink" x="0px" y="0px"
	 viewBox="0 0 29.495 29.495" style="enable-background:new 0 0 29.495 29.495;" xml:space="preserve">
<g>
	<g>
		<path d="M26.243,11.25c-1.99-0.023-3.448,1.441-3.434,3.448c0.013,1.92,1.512,3.504,3.342,3.531
			c1.852,0.031,3.306-1.506,3.314-3.503C29.473,12.767,28.084,11.272,26.243,11.25z"/>
	</g>
</g>
<g>
	<g>
		<path d="M27.456,19.416c-2.644,0.605-5.222-0.721-5.975-3.116c-0.81-2.574,0.41-5.168,2.885-6.137
			c1.455-0.57,2.869-0.323,4.501,0.342c-0.181-0.567-0.273-0.915-0.405-1.246c-2.296-5.782-8.368-9.845-14.975-9.19
			C4.754,0.934-1.274,8.825,0.271,17.372c1.145,6.337,6.386,11.283,12.742,12.023c6.53,0.759,12.803-2.881,15.346-8.912
			c0.254-0.588,0.65-1.592,0.65-1.592S27.872,19.321,27.456,19.416z M10.494,18.084l0.694-0.003l0.006,1.26H4.023l0.007-0.772
			c0,0,0.892-0.693,1.063-0.839c1.091-0.928,2.169-1.844,3.264-2.765c0.38-0.318,0.707-0.672,0.96-1.093
			c0.434-0.722,0.502-1.468-0.071-2.122c-0.551-0.628-1.296-0.634-2.031-0.393c-0.411,0.134-0.779,0.406-1.039,0.752
			c-0.124,0.165-0.346,0.417-0.346,0.417l-1.098-0.704c0,0,0.367-0.512,0.475-0.647C6.312,9.797,8.55,9.44,10.02,10.399
			c1.44,0.94,1.612,2.996,0.354,4.408c-0.835,0.937-1.839,1.687-2.8,2.485C7.373,17.459,6.7,18.081,6.7,18.081L10.494,18.084z
			 M15.299,17.442c0.988,0.898,2.329,1.033,3.662,0.365l0.777-0.5l0.771,1.127c-0.05,0.105-0.242,0.213-0.404,0.328
			c-0.836,0.588-1.758,0.864-2.59,0.814c-2.365,0.002-4.032-1.191-4.736-3.181c-0.669-1.893-0.062-4.256,1.397-5.433
			c1.676-1.352,4.136-1.517,5.906-0.379l0.59,0.392l-0.803,1.123c0,0-0.38-0.205-0.528-0.283c-0.572-0.298-1.139-0.564-1.811-0.571
			c-1.505-0.016-2.646,0.69-3.168,2.013C13.771,14.748,14.139,16.389,15.299,17.442z"/>
	</g>
</g>
<g>
</g>
<g>
</g>
<g>
</g>
<g>
</g>
<g>
</g>
<g>
</g>
<g>
</g>
<g>
</g>
<g>
</g>
<g>
</g>
<g>
</g>
<g>
</g>
<g>
</g>
<g>
</g>
<g>
</g>
</svg>
