<?xml version="1.0" encoding="iso-8859-1"?>
<!-- Generator: Adobe Illustrator 19.0.0, SVG Export Plug-In . SVG Version: 6.00 Build 0)  -->
<svg version="1.1" id="Capa_1" xmlns="http://www.w3.org/2000/svg" xmlns:xlink="http://www.w3.org/1999/xlink" x="0px" y="0px"
	 viewBox="0 0 49.45 49.45" style="enable-background:new 0 0 49.45 49.45;" xml:space="preserve">
<g>
	<g>
		<path d="M15.064,39.592c-0.137,0-0.274,0.002-0.41,0c-0.133,0-0.264,0.006-0.393-0.002c-0.019-0.183-0.011-0.619,0.012-0.703
			c0.311,0,0.624,0,0.938,0c0-0.176,0-0.336,0-0.51c-0.32,0-0.632,0-0.943,0c-0.025-0.141-0.019-0.625,0.01-0.703
			c0.391,0,0.786,0,1.186,0c0-0.156,0-0.302,0-0.451c-0.568,0-1.129,0-1.697,0c0,0.949,0,1.893,0,2.844c0.57,0,1.133,0,1.699,0
			c0-0.162,0-0.311,0-0.475C15.328,39.592,15.197,39.592,15.064,39.592z"/>
	</g>
</g>
<g>
	<g>
		<path d="M1.102,37.217c-0.365-0.002-0.734,0-1.102,0c0,0.951,0,1.903,0,2.854c0.17,0,0.34,0,0.52,0c0-0.205,0-0.397,0-0.59
			s0-0.384,0-0.578c0.193,0,0.375-0.007,0.555,0.003c0.15,0.007,0.295-0.007,0.434-0.057c0.268-0.092,0.436-0.271,0.477-0.557
			c0.01-0.066,0.008-0.134,0.006-0.199C1.985,37.586,1.612,37.217,1.102,37.217z M1.34,38.295c-0.049,0.039-0.115,0.068-0.178,0.078
			c-0.088,0.014-0.182,0.006-0.271,0.006c-0.041,0-0.082,0-0.137,0c0-0.233,0-0.453,0-0.68c0.162,0,0.318-0.006,0.473,0
			c0.068,0.004,0.125,0.047,0.166,0.104C1.491,37.935,1.467,38.189,1.34,38.295z"/>
	</g>
</g>
<g>
	<g>
		<path d="M11.129,33.581c-0.111,0.131-0.238,0.244-0.387,0.336c-0.473,0.293-0.984,0.367-1.521,0.24
			C8.67,34.026,8.33,33.671,8.182,33.13c-0.01-0.033-0.012-0.067-0.021-0.113c1.363,0,2.717,0,4.084,0
			c-0.001-0.124-0.001-0.232-0.003-0.335c-0.01-0.426-0.09-0.84-0.254-1.236c-0.266-0.633-0.713-1.082-1.375-1.293
			c-0.605-0.193-1.227-0.211-1.838-0.027c-0.727,0.221-1.246,0.682-1.535,1.387c-0.254,0.617-0.287,1.257-0.121,1.9
			c0.201,0.773,0.674,1.327,1.41,1.643c0.48,0.203,0.984,0.262,1.5,0.211c0.645-0.057,1.209-0.303,1.691-0.732
			c0.139-0.127,0.271-0.262,0.379-0.436c-0.305-0.193-0.605-0.391-0.906-0.586C11.166,33.542,11.148,33.563,11.129,33.581z
			 M8.741,31.268c0.182-0.133,0.387-0.207,0.607-0.236c0.26-0.033,0.518-0.031,0.768,0.057c0.459,0.16,0.719,0.498,0.844,0.955
			c0.002,0.011,0,0.027,0,0.052c-0.914,0.011-1.822-0.006-2.75,0.016C8.294,31.753,8.462,31.473,8.741,31.268z"/>
	</g>
</g>
<g>
	<g>
		<path d="M12.033,37.217c-0.219,0-0.438,0-0.663,0.005c-0.174,0.406-0.342,0.804-0.51,1.201c-0.039,0-0.063-0.007-0.088,0
			c-0.098,0.018-0.147-0.027-0.186-0.119c-0.142-0.336-0.297-0.67-0.443-1.006c-0.025-0.061-0.059-0.084-0.125-0.082
			c-0.168,0.004-0.334,0-0.504,0.002c-0.025,0-0.051,0.006-0.076,0.01c-0.019,0.178-0.012,2.757,0.008,2.834
			c0.164,0.019,0.594,0.012,0.67-0.014c0-0.147,0-0.301,0-0.449c0-0.152-0.002-0.308,0-0.461c0-0.148-0.004-0.295,0.002-0.442
			c0.007-0.003,0.015-0.005,0.023-0.007c0.152,0.232,0.305,0.464,0.455,0.693c0.097,0,0.185,0,0.275,0
			c0.018-0.023,0.037-0.051,0.055-0.074c0.121-0.183,0.242-0.36,0.365-0.539c0.015-0.026,0.021-0.063,0.072-0.055
			c0,0.449,0,0.9,0,1.357c0.233,0.006,0.457,0.01,0.682-0.006C12.064,39.821,12.054,37.301,12.033,37.217z"/>
	</g>
</g>
<g>
	<g>
		<path d="M7.525,37.225c-0.123,0.359-0.246,0.713-0.369,1.068c-0.005,0-0.015,0-0.023,0c-0.127-0.355-0.256-0.715-0.385-1.07
			c-0.227,0-0.444,0-0.676,0c0.02,0.047,0.035,0.09,0.053,0.129c0.209,0.474,0.418,0.947,0.627,1.42
			c0.027,0.059,0.039,0.118,0.039,0.182c-0.002,0.332,0,0.665,0,0.996c0,0.037,0,0.075,0,0.119c0.234,0,0.457,0,0.699,0
			c0-0.047,0-0.084,0-0.123c0-0.332,0-0.663,0-0.994c0-0.067,0.012-0.123,0.037-0.184c0.213-0.475,0.422-0.952,0.633-1.428
			c0.016-0.037,0.031-0.076,0.047-0.115C7.97,37.225,7.748,37.225,7.525,37.225z"/>
	</g>
</g>
<g>
	<g>
		<path d="M4.559,28.073c0,0.959,0,1.91-0.001,2.863c-0.101,0.025-3.224,0.025-3.32-0.002c0-0.963,0-1.928,0-2.894
			c-0.412,0-0.824,0-1.238,0c0,2.409,0,4.816,0,7.223c0.102,0,0.203,0,0.305,0c0.103,0,0.21,0,0.314,0c0.102,0,0.203,0.002,0.305,0
			c0.103,0,0.207,0.004,0.318-0.006c0-1.062,0-2.115,0-3.164c0.019-0.008,0.029-0.016,0.039-0.016
			c1.057-0.002,2.113-0.003,3.17-0.003c0.029,0,0.057,0.006,0.084,0.011c0.002,0,0.006,0.004,0.008,0.006
			c0.002,0.002,0.006,0.004,0.016,0.015c0,0.258,0,0.524,0,0.79c0,0.262,0,0.523,0,0.787c0,0.266-0.002,0.531,0,0.798
			c0,0.264-0.006,0.528,0.004,0.792c0.18,0.019,1.129,0.011,1.203-0.01c0-2.394,0-4.791,0-7.19
			C5.364,28.073,4.967,28.073,4.559,28.073z"/>
	</g>
</g>
<g>
	<g>
		<path d="M16.415,10.146v4.266c0.064,0.004,0.131,0.007,0.197,0.014c0.774,0.073,1.542,0.19,2.296,0.389
			c0.054,0.014,0.086,0.012,0.109-0.05c0.484-1.194,1.101-2.316,1.828-3.376c0.012-0.015,0.019-0.032,0.039-0.061
			C19.444,10.729,17.954,10.347,16.415,10.146z"/>
	</g>
</g>
<g>
	<g>
		<path d="M16.415,9.374v0.121c1.671,0.21,3.267,0.676,4.814,1.354c0.385-0.511,0.789-1.006,1.219-1.475H16.415z"/>
	</g>
</g>
<g>
	<g>
		<path d="M24.397,18.842c-0.619-0.809-1.357-1.493-2.201-2.064c-0.021-0.015-0.045-0.03-0.078-0.051
			c-0.117,0.227-0.237,0.444-0.346,0.667c-0.431,0.888-0.73,1.819-0.896,2.793c-0.091,0.539-0.142,1.083-0.152,1.632
			c-0.01,0.537,0.013,1.074,0.076,1.608c0.105,0.88,0.298,1.739,0.568,2.581h1.195c-0.011-0.156-0.021-0.311-0.025-0.467
			c-0.022-0.556,0.002-1.11,0.07-1.665c0.222-1.766,0.797-3.403,1.795-4.881C24.446,18.933,24.44,18.899,24.397,18.842z"/>
	</g>
</g>
<g>
	<g>
		<path d="M27.345,16.803c-0.011-0.02-0.021-0.037-0.039-0.059c-0.9,0.596-1.687,1.313-2.333,2.171
			c1.417,2.176,2.024,4.537,1.854,7.091v0.003h1.229c0.011-0.038,0.022-0.072,0.032-0.104c0.244-0.78,0.422-1.575,0.525-2.388
			c0.071-0.591,0.109-1.185,0.09-1.781C28.65,19.982,28.205,18.333,27.345,16.803z"/>
	</g>
</g>
<g>
	<g>
		<path d="M31.939,15.019c-0.43,0.066-0.859,0.164-1.297,0.249c0.069,0.195,0.125,0.364,0.184,0.534
			c0.281,0.856,0.486,1.73,0.605,2.625c0.096,0.734,0.141,1.472,0.117,2.211c-0.062,1.758-0.464,3.438-1.187,5.042
			c-0.05,0.108-0.098,0.22-0.154,0.328h2.828v0.001h0.004v-0.001V14.884C32.668,14.922,32.304,14.962,31.939,15.019z"/>
	</g>
</g>
<g>
	<g>
		<path d="M30.206,15.409c-0.84,0.254-1.621,0.581-2.371,1.011c0.072,0.127,0.143,0.246,0.205,0.366
			c0.586,1.076,0.977,2.218,1.168,3.426c0.123,0.752,0.164,1.511,0.137,2.273c-0.044,1.199-0.264,2.373-0.605,3.522v0.003h0.874
			C31.36,22.592,31.518,19.062,30.206,15.409z"/>
	</g>
</g>
<g>
	<g>
		<path d="M24.219,13.244c-0.877-0.676-1.824-1.234-2.828-1.698c-0.066-0.029-0.094-0.01-0.129,0.042
			c-0.61,0.893-1.151,1.825-1.594,2.808c-0.084,0.183-0.16,0.369-0.244,0.56c0.852,0.259,1.658,0.603,2.42,1.051
			c0.678-1.032,1.49-1.923,2.424-2.719C24.244,13.268,24.233,13.256,24.219,13.244z"/>
	</g>
</g>
<g>
	<g>
		<path d="M26.984,9.373c0.41,0.444,0.798,0.91,1.164,1.395c0.046,0.059,0.079,0.072,0.148,0.041
			c1.257-0.55,2.555-0.954,3.908-1.192c0.274-0.047,0.556-0.086,0.832-0.127V9.373H26.984z"/>
	</g>
</g>
<g>
	<g>
		<path d="M26.434,9.374h-3.429c-0.475,0.534-0.928,1.091-1.354,1.671c1.092,0.521,2.113,1.139,3.065,1.882
			c0.951-0.745,1.974-1.365,3.072-1.889C27.358,10.46,26.908,9.907,26.434,9.374z"/>
	</g>
</g>
<g>
	<g>
		<path d="M24.713,13.643c-0.92,0.785-1.708,1.669-2.354,2.69c0.453,0.307,0.873,0.642,1.264,1.013
			c0.393,0.373,0.752,0.776,1.086,1.218c0.336-0.435,0.696-0.84,1.091-1.209c0.393-0.372,0.818-0.706,1.271-1.012
			C26.422,15.318,25.631,14.426,24.713,13.643z"/>
	</g>
</g>
<g>
	<g>
		<path d="M28.121,11.509c-1.061,0.48-2.049,1.061-2.968,1.776c0.945,0.808,1.761,1.707,2.435,2.737
			c0.777-0.449,1.588-0.788,2.443-1.046C29.525,13.741,28.879,12.597,28.121,11.509z"/>
	</g>
</g>
<g>
	<g>
		<path d="M33.033,10.142c-1.539,0.201-3.035,0.58-4.48,1.181c0.775,1.11,1.42,2.28,1.926,3.53c0.843-0.213,1.694-0.343,2.556-0.402
			L33.033,10.142z"/>
	</g>
</g>
<g>
	<g>
		<path d="M4.392,37.221c-0.183,0-0.356,0-0.532,0c-0.273,0.705-0.988,2.764-0.988,2.845c0.205,0,0.412,0,0.623,0
			c0.051-0.151,0.098-0.3,0.146-0.452c0.322,0,0.639,0,0.965,0c0.045,0.152,0.092,0.307,0.137,0.453c0.203,0,0.395,0,0.598,0
			C5.023,39.11,4.706,38.167,4.392,37.221z M3.866,39.115c0.047-0.246,0.092-0.484,0.139-0.73c0.066,0,0.127,0,0.195,0
			c0.045,0.244,0.088,0.481,0.135,0.73C4.168,39.115,4.024,39.115,3.866,39.115z"/>
	</g>
</g>
<g>
	<g>
		<path d="M40.02,39.592c-0.101,0-0.201,0-0.3,0c-0.101,0-0.197,0.002-0.295,0c-0.101,0-0.201,0.008-0.304-0.006
			c0-0.238,0-0.464,0-0.705c0.108,0,0.211,0,0.315,0c0.107,0,0.218,0.002,0.326,0c0.103-0.002,0.208,0.009,0.312-0.014
			c0-0.164,0-0.322,0-0.493c-0.111,0-0.215,0-0.32,0c-0.107,0-0.217,0.003-0.324,0c-0.104-0.002-0.207,0.007-0.309-0.007
			c-0.017-0.204-0.01-0.615,0.014-0.695c0.096,0,0.193,0,0.291,0c0.103,0,0.203,0,0.305,0c0.099,0,0.195,0.002,0.293,0
			c0.101-0.002,0.201,0.008,0.3-0.007c0-0.155,0-0.298,0-0.444c-0.565,0-1.125,0-1.695,0c0,0.953,0,1.895,0,2.842
			c0.568,0,1.13,0,1.699,0c0.002-0.159,0.006-0.309,0-0.471C40.215,39.592,40.119,39.592,40.02,39.592z"/>
	</g>
</g>
<g>
	<g>
		<path d="M41.265,32.167c-0.002-0.323-0.053-0.636-0.174-0.931c-0.207-0.514-0.569-0.861-1.103-1.016
			c-0.22-0.061-0.445-0.082-0.675-0.082c-0.422,0-0.795,0.129-1.125,0.396c-0.02,0.017-0.041,0.033-0.082,0.06
			c0-0.137,0-0.25,0-0.371c-0.375,0-0.737,0-1.102,0c0,1.685,0,3.359,0,5.047c0.367,0,0.725,0,1.102,0c0-0.051,0-0.092,0-0.133
			c0-0.979,0.002-1.953-0.002-2.93c0-0.155,0.033-0.29,0.093-0.426c0.164-0.37,0.439-0.593,0.842-0.645
			c0.172-0.019,0.345-0.014,0.509,0.043c0.307,0.108,0.469,0.338,0.555,0.639c0.058,0.199,0.064,0.402,0.062,0.611
			c-0.004,0.91-0.002,1.818-0.002,2.729c0,0.036,0.004,0.075,0.006,0.118c0.371,0,0.731,0,1.1,0
			c0.002-0.041,0.006-0.074,0.006-0.107c0-0.17,0-0.338,0-0.504C41.271,33.831,41.269,32.999,41.265,32.167z"/>
	</g>
</g>
<g>
	<g>
		<path d="M34.408,30.192c0,0.169,0,0.343,0,0.534c-0.031-0.025-0.047-0.039-0.062-0.053c-0.156-0.152-0.336-0.271-0.535-0.363
			c-0.532-0.246-1.096-0.309-1.668-0.182c-0.907,0.197-1.521,0.741-1.782,1.645c-0.183,0.627-0.164,1.259,0.026,1.882
			c0.166,0.535,0.488,0.96,0.976,1.243c0.649,0.381,1.35,0.479,2.082,0.307c0.342-0.08,0.641-0.238,0.866-0.518
			c0.009-0.008,0.021-0.01,0.039-0.021c0.002,0.194,0,0.378,0.002,0.562c0.386,0,0.752,0,1.131,0c-0.004-1.687,0.009-3.371,0-5.047
			C35.326,30.158,34.492,30.164,34.408,30.192z M33.872,33.899c-0.604,0.528-1.463,0.495-2.027-0.075
			c-0.744-0.754-0.559-2.051,0.369-2.549c0.215-0.116,0.443-0.172,0.748-0.174c0.51,0.022,0.945,0.283,1.234,0.777
			C34.578,32.535,34.435,33.408,33.872,33.899z"/>
	</g>
</g>
<g>
	<g>
		<path d="M35.23,37.196c-0.016,0.125-0.011,0.55,0.011,0.631c0.223,0.01,0.455-0.005,0.692,0.01c0,0.748,0,1.485,0,2.225
			c0.166,0,0.316,0,0.478,0c0-0.742,0-1.478,0-2.23c0.25,0,0.487,0,0.729-0.002c0-0.219,0-0.426,0-0.637
			C36.994,37.172,35.304,37.176,35.23,37.196z"/>
	</g>
</g>
<g>
	<g>
		<path d="M44.371,37.217c-0.218,0-0.437,0-0.667,0c-0.012,0.033-0.023,0.055-0.033,0.076c-0.148,0.348-0.295,0.695-0.441,1.043
			c-0.022,0.061-0.057,0.092-0.123,0.082c-0.014-0.002-0.026-0.002-0.043,0c-0.065,0.01-0.1-0.02-0.125-0.082
			c-0.055-0.132-0.116-0.266-0.176-0.401c-0.1-0.222-0.194-0.44-0.293-0.661c-0.02-0.041-0.035-0.07-0.09-0.068
			c-0.164,0.008-0.328,0.008-0.492,0.01c-0.039,0.002-0.076,0.004-0.117,0.006c0,0.954,0,1.896,0,2.85
			c0.228-0.005,0.448,0.008,0.677-0.008c0-0.129,0-0.242,0-0.358c0-0.112,0-0.223,0-0.337c0-0.114-0.002-0.231,0-0.346
			c0.002-0.111-0.006-0.222,0.008-0.361c0.037,0.05,0.055,0.078,0.076,0.105c0.103,0.157,0.213,0.307,0.301,0.469
			c0.065,0.123,0.154,0.16,0.285,0.148c0.066-0.006,0.109-0.021,0.146-0.078c0.121-0.188,0.248-0.371,0.375-0.559
			c0.013-0.017,0.031-0.032,0.062-0.062c0,0.476,0,0.926,0,1.38c0.233,0,0.453,0,0.674,0C44.394,39.942,44.392,37.295,44.371,37.217
			z"/>
	</g>
</g>
<g>
	<g>
		<path d="M49.312,37.201c-0.016,0.03-0.029,0.06-0.043,0.084c-0.023,0.051-0.043,0.102-0.07,0.154
			c-0.012,0.025-0.033,0.041-0.051,0.062c-0.021-0.02-0.043-0.041-0.057-0.066c-0.019-0.031-0.027-0.064-0.043-0.094
			c-0.021-0.049-0.044-0.097-0.062-0.136c-0.058,0-0.105,0-0.152,0c-0.019,0.146-0.013,0.621,0.008,0.69c0.044,0,0.091,0,0.146,0
			c0-0.054-0.002-0.106,0-0.154c0.004-0.046-0.011-0.092,0.02-0.152c0.029,0.042,0.051,0.073,0.072,0.104
			c0.047,0.062,0.078,0.062,0.127-0.003c0.021-0.031,0.041-0.062,0.062-0.093c0.007,0.004,0.013,0.006,0.021,0.007
			c0.004,0.098,0.01,0.196,0.014,0.298c0.056,0.002,0.101,0.005,0.146,0.008c0-0.238,0-0.477,0-0.714
			C49.405,37.199,49.357,37.201,49.312,37.201z"/>
	</g>
</g>
<g>
	<g>
		<path d="M48.735,37.211c-0.16,0-0.307,0-0.455,0.001c0,0.052,0,0.095,0,0.146c0.053,0.004,0.1,0.007,0.162,0.014
			c0,0.18,0,0.353,0,0.539c0.047-0.004,0.079-0.006,0.122-0.011c0-0.178,0-0.352,0-0.53c0.062-0.005,0.111-0.01,0.166-0.012
			c0.005-0.024,0.011-0.039,0.011-0.057C48.741,37.274,48.737,37.246,48.735,37.211z"/>
	</g>
</g>
<g>
	<g>
		<path d="M46.572,28.041c0.002,0.015,0.004,0.027,0.004,0.041c-0.002,0.827-0.002,1.657-0.006,2.487
			c0,0.021-0.006,0.037-0.01,0.064c-0.021-0.016-0.031-0.021-0.041-0.029c-0.178-0.178-0.389-0.301-0.623-0.379
			c-0.791-0.262-1.559-0.209-2.295,0.187c-0.613,0.329-1.017,0.841-1.176,1.521c-0.142,0.584-0.115,1.168,0.067,1.738
			c0.19,0.599,0.569,1.039,1.136,1.312c0.604,0.291,1.237,0.366,1.893,0.251c0.408-0.073,0.771-0.249,1.059-0.561
			c0.01-0.007,0.021-0.015,0.045-0.032c0,0.201,0,0.387,0,0.57c0.113,0.023,0.992,0.021,1.082-0.009c0-2.384,0-4.774,0-7.161
			C47.328,28.041,46.949,28.041,46.572,28.041z M45.405,34.203c-0.576,0.125-1.065-0.043-1.461-0.479
			c-0.563-0.621-0.531-1.629,0.065-2.217c0.726-0.713,1.896-0.539,2.389,0.35c0.138,0.249,0.207,0.513,0.207,0.795
			C46.596,33.457,46.058,34.062,45.405,34.203z"/>
	</g>
</g>
<g>
	<g>
		<path d="M33.35,38.463c-0.11-0.041-0.231-0.058-0.346-0.086c-0.12-0.03-0.245-0.048-0.352-0.093
			c-0.15-0.062-0.164-0.254-0.035-0.353c0.029-0.026,0.07-0.049,0.109-0.055c0.087-0.015,0.181-0.027,0.271-0.021
			c0.133,0.006,0.256,0.061,0.369,0.133c0.131-0.143,0.254-0.275,0.383-0.414c-0.094-0.088-0.211-0.164-0.34-0.217
			c-0.392-0.164-0.779-0.164-1.148,0.057c-0.281,0.168-0.418,0.43-0.402,0.758c0.019,0.32,0.207,0.523,0.488,0.653
			c0.133,0.063,0.277,0.098,0.424,0.113c0.111,0.013,0.22,0.028,0.32,0.087c0.076,0.047,0.127,0.113,0.117,0.207
			c-0.004,0.092-0.068,0.141-0.148,0.172c-0.026,0.007-0.053,0.015-0.08,0.021c-0.139,0.031-0.276,0.027-0.418,0.01
			c-0.141-0.018-0.27-0.064-0.389-0.146c-0.139,0.148-0.275,0.288-0.41,0.431c0.066,0.09,0.146,0.147,0.234,0.188
			c0.41,0.197,0.836,0.22,1.264,0.074c0.271-0.091,0.447-0.289,0.51-0.568c0.023-0.098,0.029-0.201,0.029-0.301
			C33.8,38.803,33.64,38.567,33.35,38.463z"/>
	</g>
</g>
<g>
	<g>
		<path d="M47.321,38.457c-0.113-0.039-0.232-0.056-0.347-0.082c-0.114-0.029-0.235-0.046-0.344-0.091
			c-0.158-0.061-0.172-0.262-0.029-0.362c0.033-0.023,0.074-0.047,0.113-0.052c0.09-0.012,0.18-0.021,0.271-0.015
			c0.125,0.007,0.241,0.063,0.354,0.133c0.127-0.135,0.254-0.269,0.383-0.406c0,0-0.002-0.011-0.01-0.019
			c-0.016-0.015-0.031-0.028-0.047-0.041c-0.319-0.238-0.668-0.326-1.057-0.255c-0.218,0.039-0.412,0.134-0.564,0.302
			c-0.285,0.309-0.336,0.899,0.17,1.198c0.117,0.073,0.246,0.122,0.381,0.146c0.089,0.019,0.185,0.027,0.277,0.044
			c0.088,0.016,0.172,0.041,0.238,0.103c0.111,0.098,0.096,0.252-0.035,0.321c-0.033,0.02-0.07,0.035-0.107,0.041
			c-0.283,0.051-0.555,0.032-0.822-0.131c-0.138,0.146-0.272,0.288-0.409,0.43c0.086,0.109,0.187,0.173,0.295,0.22
			c0.375,0.156,0.76,0.179,1.147,0.062c0.318-0.096,0.517-0.315,0.578-0.645c0.019-0.084,0.019-0.174,0.016-0.26
			C47.769,38.791,47.61,38.562,47.321,38.457z"/>
	</g>
</g>
<g>
	<g>
		<path d="M18.367,23.597c-0.192-0.706-0.325-1.421-0.394-2.148c-0.068-0.72-0.076-1.439-0.027-2.162
			c0.092-1.354,0.385-2.665,0.844-3.938c0.009-0.029,0.017-0.056,0.029-0.092c-0.793-0.215-1.591-0.343-2.404-0.411v11.158h2.85
			C18.894,25.229,18.592,24.428,18.367,23.597z"/>
	</g>
</g>
<g>
	<g>
		<path d="M22.411,37.184c-0.598,0-1.198-0.002-1.795-0.002c-0.023,0-0.049,0.004-0.072,0.008c-0.002,0-0.006,0.003-0.008,0.006
			c-0.002,0.002-0.004,0.004-0.008,0.006c0,0.207,0,0.412,0,0.631c0.234,0,0.465,0,0.705,0c0,0.752,0,1.487,0,2.236
			c0.094,0,0.17,0.002,0.248,0c0.076,0,0.15-0.002,0.23-0.003c0-0.259,0-0.503,0-0.749c0-0.248,0-0.496,0-0.744
			c0.004-0.244-0.006-0.486,0.006-0.734c0.25-0.016,0.491,0.006,0.729-0.014c0-0.219,0-0.424,0-0.628
			C22.431,37.19,22.421,37.184,22.411,37.184z"/>
	</g>
</g>
<g>
	<g>
		<path d="M19.253,15.382c-1.317,3.666-1.151,7.202,0.609,10.624h0.82c-0.221-0.734-0.393-1.479-0.485-2.239
			c-0.062-0.506-0.099-1.017-0.117-1.526c-0.045-1.499,0.216-2.947,0.773-4.338c0.197-0.491,0.431-0.965,0.701-1.421
			c0.014-0.024,0.025-0.048,0.043-0.083C20.86,15.968,20.081,15.64,19.253,15.382z"/>
	</g>
</g>
<g>
	<g>
		<path d="M17.482,30.191c0,0.168,0,0.342,0,0.531c-0.029-0.023-0.043-0.033-0.055-0.045c-0.135-0.138-0.289-0.244-0.459-0.328
			c-0.551-0.279-1.133-0.354-1.732-0.228c-0.914,0.194-1.523,0.739-1.791,1.64c-0.168,0.559-0.162,1.125-0.031,1.689
			c0.127,0.555,0.404,1.018,0.873,1.342c0.674,0.467,1.418,0.588,2.211,0.413c0.354-0.075,0.664-0.239,0.895-0.528
			c0.005-0.005,0.017-0.007,0.036-0.014c0,0.103-0.002,0.195,0.002,0.29c0.002,0.092-0.014,0.186,0.01,0.275
			c0.211,0.021,1.041,0.014,1.113-0.012c0-1.682,0-3.356,0-5.033C18.435,30.158,17.57,30.162,17.482,30.191z M16.251,34.246
			c-0.471,0.09-0.891-0.031-1.246-0.346c-0.361-0.318-0.529-0.73-0.543-1.258c0.033-0.611,0.311-1.123,0.924-1.411
			c0.563-0.265,1.24-0.116,1.662,0.343c0.287,0.312,0.436,0.684,0.436,1.105C17.484,33.508,16.917,34.119,16.251,34.246z"/>
	</g>
</g>
<g>
	<g>
		<path d="M19.05,37.219c-0.232,0-0.466,0-0.71,0.001c0,0.11,0,0.215,0,0.319c0,0.107,0,0.218,0,0.324c0,0.104,0.002,0.209,0,0.313
			c-0.004,0.105,0.011,0.211-0.016,0.334c-0.026-0.044-0.043-0.076-0.059-0.104c-0.205-0.37-0.412-0.734-0.611-1.103
			c-0.039-0.073-0.084-0.099-0.164-0.094c-0.15,0.004-0.301,0.002-0.449,0.002c-0.035,0-0.068,0.002-0.107,0.006
			c0,0.951,0,1.898,0,2.847c0.232,0,0.459,0,0.699,0c0-0.474,0-0.943,0-1.412c0.007-0.002,0.015-0.003,0.021-0.004
			c0.018,0.033,0.037,0.064,0.053,0.098c0.205,0.409,0.412,0.817,0.611,1.229c0.037,0.076,0.08,0.103,0.16,0.097
			c0.098-0.007,0.197-0.003,0.295-0.003c0.093,0,0.187,0,0.277,0C19.075,39.949,19.071,37.297,19.05,37.219z"/>
	</g>
</g>
<g>
	<g>
		<path d="M22.44,30.156c-0.377-0.012-0.707,0.113-1.005,0.336c-0.024,0.015-0.051,0.035-0.09,0.062
			c-0.004-0.068-0.004-0.118-0.006-0.172c-0.002-0.051-0.004-0.099-0.006-0.156c-0.377,0-0.744,0-1.119,0c0,1.696,0,3.369,0,5.053
			c0.375,0,0.744,0,1.127,0c0-0.053,0-0.098,0-0.141c0-0.943,0-1.891,0-2.836c0-0.041-0.006-0.084,0.006-0.125
			c0.057-0.224,0.133-0.442,0.268-0.633c0.097-0.141,0.232-0.233,0.4-0.27c0.244-0.056,0.49-0.058,0.734,0.006
			c0.023,0.006,0.045,0.006,0.074,0.009c0-0.378,0-0.749,0-1.132C22.69,30.157,22.563,30.159,22.44,30.156z"/>
	</g>
</g>
<g>
	<g>
		<path d="M30.082,37.223c-0.125,0.357-0.248,0.714-0.371,1.07c-0.006,0-0.014,0-0.021-0.003c-0.129-0.354-0.258-0.712-0.385-1.065
			c-0.229,0-0.447,0-0.676,0c0.02,0.043,0.031,0.078,0.047,0.113c0.207,0.471,0.414,0.939,0.623,1.409
			c0.035,0.079,0.053,0.155,0.053,0.243c-0.002,0.316-0.002,0.637-0.002,0.953c0,0.039,0.004,0.075,0.006,0.109
			c0.132,0.021,0.611,0.017,0.689-0.008c0-0.037,0-0.074,0-0.113c0-0.316,0.002-0.637-0.002-0.953
			c-0.002-0.088,0.018-0.164,0.053-0.242c0.207-0.464,0.414-0.931,0.619-1.398c0.016-0.035,0.029-0.074,0.047-0.115
			C30.525,37.223,30.309,37.223,30.082,37.223z"/>
	</g>
</g>
<g>
	<g>
		<path d="M26.781,38.431c-0.093-0.028-0.191-0.041-0.287-0.062c-0.114-0.029-0.234-0.047-0.343-0.091
			c-0.135-0.061-0.155-0.23-0.047-0.332c0.037-0.035,0.088-0.062,0.138-0.073c0.084-0.017,0.172-0.027,0.258-0.021
			c0.136,0.006,0.259,0.062,0.379,0.137c0.13-0.135,0.255-0.269,0.384-0.406c-0.013-0.014-0.027-0.031-0.048-0.047
			c-0.317-0.25-0.676-0.342-1.073-0.271c-0.215,0.039-0.407,0.133-0.556,0.294c-0.293,0.313-0.352,0.918,0.183,1.22
			c0.153,0.088,0.319,0.136,0.496,0.157c0.08,0.01,0.162,0.023,0.235,0.046c0.056,0.022,0.117,0.052,0.16,0.094
			c0.099,0.098,0.073,0.237-0.043,0.303c-0.035,0.022-0.076,0.034-0.117,0.043c-0.142,0.037-0.285,0.031-0.428,0.014
			c-0.142-0.016-0.271-0.067-0.394-0.143c-0.139,0.145-0.272,0.286-0.412,0.432c0.086,0.102,0.189,0.166,0.299,0.217
			c0.283,0.125,0.582,0.148,0.886,0.117c0.082-0.01,0.166-0.028,0.246-0.051c0.471-0.141,0.647-0.541,0.608-0.953
			C27.273,38.726,27.09,38.525,26.781,38.431z"/>
	</g>
</g>
<g>
	<g>
		<path d="M28.914,28.109c-0.365,0-0.732,0-1.109,0c0,2.391,0,4.777,0,7.159c0.125,0.025,1.047,0.017,1.119-0.004
			C28.946,35.055,28.936,28.186,28.914,28.109z"/>
	</g>
</g>
<g>
	<g>
		<path d="M26.225,34.211c-0.145-0.004-0.294,0.002-0.44-0.004c-0.184-0.006-0.233-0.104-0.233-0.242
			c0.004-0.926,0.002-1.851,0.002-2.78c0-0.033,0.004-0.067,0.008-0.114c0.262,0,0.52,0,0.783,0c0-0.326,0-0.641,0-0.963
			c-0.093,0-0.181,0-0.267,0c-0.088,0-0.177,0.003-0.265-0.001c-0.084-0.004-0.172,0.012-0.262-0.017c0-0.19,0-0.375,0-0.561
			c-0.002-0.184,0.002-0.365-0.002-0.551c-0.381,0-0.748,0-1.125,0c0,0.131,0,0.255,0,0.381c0,0.123,0,0.245,0,0.367
			c-0.002,0.123,0.004,0.248-0.004,0.385c-0.217,0-0.418,0-0.617,0c-0.021,0.18-0.011,0.877,0.012,0.959c0.195,0,0.394,0,0.609,0
			c0,0.059,0,0.1,0,0.143c0,0.912-0.002,1.826,0.002,2.739c0,0.11,0.006,0.224,0.02,0.334c0.037,0.278,0.142,0.526,0.361,0.714
			c0.224,0.193,0.494,0.273,0.783,0.28c0.224,0.006,0.449,0.001,0.674,0.004c0.025,0,0.053-0.005,0.082-0.008
			c0-0.358,0-0.704,0-1.061C26.299,34.213,26.262,34.211,26.225,34.211z"/>
	</g>
</g>
<g>
	<g>
		<path d="M25.636,21.049c-0.23-0.595-0.522-1.161-0.874-1.693c-0.016-0.023-0.032-0.044-0.057-0.075
			c-0.088,0.139-0.176,0.268-0.256,0.4c-0.608,1.01-1.004,2.098-1.215,3.254c-0.121,0.659-0.194,1.322-0.184,1.989
			c0.006,0.362,0.025,0.724,0.041,1.083h3.214c0.041-0.541,0.048-1.083,0.024-1.625C26.273,23.235,26.056,22.12,25.636,21.049z"/>
	</g>
</g>
<g>
</g>
<g>
</g>
<g>
</g>
<g>
</g>
<g>
</g>
<g>
</g>
<g>
</g>
<g>
</g>
<g>
</g>
<g>
</g>
<g>
</g>
<g>
</g>
<g>
</g>
<g>
</g>
<g>
</g>
</svg>
