<?xml version="1.0" encoding="iso-8859-1"?>
<!-- Generator: Adobe Illustrator 19.0.0, SVG Export Plug-In . SVG Version: 6.00 Build 0)  -->
<svg version="1.1" id="Capa_1" xmlns="http://www.w3.org/2000/svg" xmlns:xlink="http://www.w3.org/1999/xlink" x="0px" y="0px"
	 viewBox="0 0 49.647 49.647" style="enable-background:new 0 0 49.647 49.647;" xml:space="preserve">
<g>
	<g>
		<path d="M20.388,20.586c-0.455-0.167-0.927-0.247-1.407-0.268c-1.058-0.048-2.093,0.071-3.092,0.443
			c-0.099,0.036-0.133,0.083-0.133,0.191c0.005,2.649,0.003,5.3,0.003,7.95c0,0.046,0,0.093,0,0.146c0.806,0,1.598,0,2.406,0
			c0-1.023,0-2.041,0-3.063c0.045,0,0.073,0.001,0.101,0c0.412-0.017,0.828-0.011,1.238-0.058c0.542-0.062,1.054-0.233,1.512-0.543
			c0.72-0.486,1.069-1.183,1.12-2.035C22.211,22.111,21.676,21.056,20.388,20.586z M19.729,23.763
			c-0.143,0.571-0.554,0.86-1.188,0.846c-0.089-0.001-0.178-0.014-0.268-0.014c-0.082,0-0.111-0.032-0.109-0.116
			c0.004-0.439,0.002-0.878,0.002-1.316c-0.001-0.435,0.002-0.869-0.002-1.304c-0.002-0.092,0.026-0.141,0.116-0.142
			c0.229-0.003,0.465-0.031,0.688,0.006c0.424,0.07,0.662,0.358,0.761,0.76C19.834,22.909,19.835,23.339,19.729,23.763z"/>
	</g>
</g>
<g>
	<g>
		<path d="M11.319,21.028c-0.287-0.758-0.801-1.352-1.443-1.837C8.803,18.384,7.576,18,6.25,17.918
			c-0.913-0.057-1.816,0.025-2.7,0.285c-1.11,0.325-2.07,0.877-2.767,1.825c-0.291,0.397-0.526,0.827-0.63,1.308
			c-0.213,0.984-0.203,1.969,0.026,2.948c0.377,1.622,1.201,2.956,2.584,3.914c0.853,0.587,1.803,0.901,2.848,0.897
			c0.066,0,0.13-0.015,0.196-0.025c0.001-0.016,0.005-0.029,0.006-0.046c-0.041-0.021-0.079-0.048-0.122-0.067
			c-0.106-0.039-0.216-0.071-0.322-0.11c-0.799-0.301-1.377-0.821-1.622-1.657c-0.06-0.199-0.072-0.414-0.092-0.624
			c-0.011-0.104,0.051-0.168,0.167-0.152c0.043,0.007,0.087,0.015,0.132,0.021c0.352,0.062,0.701,0.139,1.055,0.18
			c1.079,0.124,2.134,0.008,3.16-0.346c1.06-0.366,1.985-0.937,2.658-1.854C11.588,23.38,11.782,22.245,11.319,21.028z
			 M8.687,23.275c-0.364,0.479-0.861,0.771-1.413,0.98c-0.638,0.239-1.303,0.33-1.984,0.316c-0.383-0.006-0.76-0.055-1.122-0.192
			c-0.546-0.21-0.889-0.599-1.027-1.164c-0.114-0.466-0.147-0.94-0.038-1.412C3.287,21,3.818,20.537,4.59,20.319
			c0.116-0.032,0.236-0.059,0.356-0.073c0.242-0.029,0.485-0.044,0.614-0.055c0.865,0.014,1.594,0.121,2.273,0.47
			c0.374,0.192,0.698,0.446,0.927,0.806C9.133,22.048,9.106,22.724,8.687,23.275z"/>
	</g>
</g>
<g>
	<g>
		<path d="M39.345,27.536c0.657-1.747,1.305-3.474,1.957-5.208c-1.58,0-3.146,0-4.719,0c0,0.505,0,1.001,0,1.51
			c0.602,0,1.193,0,1.809,0c-0.678,1.744-1.35,3.475-2.021,5.208c1.667,0,3.312,0,4.956,0c0-0.506,0-0.998,0-1.51
			C40.669,27.536,40.015,27.536,39.345,27.536z"/>
	</g>
</g>
<g>
	<g>
		<path d="M48.793,22.218c-0.14,0-0.28,0-0.416,0c-0.002,0.012-0.002,0.022-0.004,0.033c0.049,0.007,0.098,0.016,0.163,0.026
			c0,0.213-0.001,0.42,0.002,0.627c0.001,0.025,0.03,0.053,0.048,0.08c0.016-0.027,0.045-0.054,0.045-0.08
			c0.004-0.17,0.002-0.342,0.004-0.513c0-0.042,0.006-0.083,0.01-0.115c0.064-0.013,0.109-0.021,0.154-0.028
			C48.797,22.237,48.795,22.227,48.793,22.218z"/>
	</g>
</g>
<g>
	<g>
		<path d="M49.563,22.272c-0.009-0.025-0.042-0.066-0.053-0.064c-0.027,0.008-0.064,0.03-0.074,0.056
			c-0.036,0.111-0.065,0.227-0.1,0.339c-0.021,0.073-0.041,0.147-0.062,0.22c-0.077-0.185-0.132-0.362-0.179-0.543
			c-0.021-0.074-0.055-0.091-0.127-0.061c-0.029,0.251-0.062,0.504-0.09,0.755c0.014,0.007,0.028,0.012,0.043,0.017
			c0.017-0.032,0.037-0.063,0.043-0.098c0.021-0.176,0.039-0.353,0.06-0.53c0.095,0.208,0.133,0.427,0.216,0.631
			c0.015-0.002,0.027-0.003,0.044-0.005c0.062-0.206,0.122-0.413,0.182-0.618c0.01,0,0.018,0,0.024,0.001
			c0.005,0.037,0.013,0.074,0.017,0.112c0.017,0.146,0.027,0.291,0.047,0.437c0.004,0.026,0.037,0.049,0.06,0.072
			c0.012-0.007,0.021-0.016,0.033-0.022C49.621,22.739,49.593,22.504,49.563,22.272z"/>
	</g>
</g>
<g>
	<g>
		<path d="M35.818,22.321c-0.662,0-1.325,0.004-1.991-0.001c-0.12-0.001-0.161,0.032-0.186,0.146
			c-0.139,0.627-0.286,1.251-0.428,1.878c-0.166,0.741-0.326,1.483-0.482,2.226c-0.033,0.157-0.044,0.319-0.065,0.479
			c-0.213-1.594-0.606-3.146-0.877-4.722c-0.865,0-1.703,0-2.557,0c0.022,0.067,0.039,0.124,0.059,0.182
			c0.721,2.146,1.443,4.296,2.161,6.445c0.017,0.06,0.015,0.144-0.007,0.205c-0.176,0.439-0.359,0.871-0.543,1.308
			c-0.177,0.418-0.349,0.838-0.534,1.276c0.062,0,0.108,0,0.153,0c0.729,0,1.455-0.003,2.184,0.003
			c0.109,0.001,0.145-0.036,0.176-0.131c1.015-3.055,2.03-6.106,3.047-9.159c0.015-0.04,0.022-0.081,0.039-0.135
			C35.906,22.321,35.862,22.321,35.818,22.321z"/>
	</g>
</g>
<g>
	<g>
		<path d="M28.636,24.734c0-0.21-0.015-0.422-0.049-0.628c-0.143-0.864-0.609-1.473-1.457-1.739c-0.315-0.1-0.656-0.154-0.99-0.179
			c-0.789-0.062-1.564,0.055-2.325,0.264c-0.257,0.07-0.508,0.16-0.772,0.245c0.172,0.472,0.336,0.919,0.5,1.368
			c0.164-0.063,0.31-0.122,0.46-0.169c0.547-0.172,1.101-0.287,1.678-0.231c0.437,0.043,0.695,0.252,0.736,0.612
			c0.016,0.116,0.002,0.233,0.002,0.367c-0.217,0.025-0.427,0.048-0.636,0.077c-0.646,0.089-1.284,0.212-1.88,0.489
			c-0.734,0.346-1.207,0.873-1.245,1.727c-0.041,0.916,0.381,1.606,1.227,1.951c0.235,0.097,0.485,0.166,0.734,0.215
			c0.767,0.144,1.538,0.125,2.308,0.039c0.549-0.063,1.088-0.172,1.604-0.396c0.082-0.034,0.111-0.078,0.111-0.17
			C28.638,27.296,28.642,26.013,28.636,24.734z M26.305,27.855c-0.299,0.063-0.598,0.072-0.89-0.032
			c-0.363-0.127-0.514-0.411-0.552-0.773c-0.053-0.543,0.177-0.933,0.68-1.143c0.241-0.101,0.68-0.195,0.881-0.183
			c0,0.037,0,0.078,0,0.117c0,0.621-0.002,1.236,0.002,1.854C26.426,27.791,26.396,27.839,26.305,27.855z"/>
	</g>
</g>
<g>
	<g>
		<path d="M48.092,24.808c-0.002-0.196-0.008-0.392-0.033-0.584c-0.079-0.624-0.319-1.166-0.844-1.547
			c-0.402-0.289-0.861-0.417-1.343-0.472c-0.839-0.095-1.665,0-2.479,0.211c-0.297,0.078-0.592,0.18-0.9,0.273
			c0.173,0.474,0.337,0.923,0.497,1.365c0.244-0.081,0.473-0.168,0.708-0.233c0.468-0.131,0.951-0.212,1.443-0.158
			c0.566,0.061,0.824,0.414,0.719,0.978c-0.264,0.035-0.529,0.064-0.794,0.103c-0.605,0.091-1.199,0.218-1.757,0.487
			c-0.861,0.417-1.247,1.046-1.193,1.974c0.042,0.712,0.37,1.249,1.009,1.587c0.298,0.159,0.615,0.254,0.944,0.313
			c0.769,0.139,1.539,0.121,2.31,0.037c0.543-0.062,1.073-0.172,1.582-0.383c0.104-0.043,0.135-0.098,0.135-0.207
			C48.092,27.304,48.094,26.056,48.092,24.808z M45.76,27.854c-0.308,0.063-0.613,0.07-0.912-0.041
			c-0.364-0.136-0.549-0.472-0.532-0.938c0.012-0.457,0.227-0.772,0.647-0.954c0.285-0.123,0.588-0.178,0.905-0.212
			c0.004,0.052,0.009,0.091,0.009,0.132c0,0.618-0.002,1.235,0.002,1.853C45.879,27.788,45.849,27.837,45.76,27.854z"/>
	</g>
</g>
<g>
</g>
<g>
</g>
<g>
</g>
<g>
</g>
<g>
</g>
<g>
</g>
<g>
</g>
<g>
</g>
<g>
</g>
<g>
</g>
<g>
</g>
<g>
</g>
<g>
</g>
<g>
</g>
<g>
</g>
</svg>
