<?xml version="1.0" encoding="iso-8859-1"?>
<!-- Generator: Adobe Illustrator 19.0.0, SVG Export Plug-In . SVG Version: 6.00 Build 0)  -->
<svg version="1.1" id="Capa_1" xmlns="http://www.w3.org/2000/svg" xmlns:xlink="http://www.w3.org/1999/xlink" x="0px" y="0px"
	 viewBox="0 0 48.401 48.401" style="enable-background:new 0 0 48.401 48.401;" xml:space="preserve">
<g>
	<g>
		<path d="M11.001,42.174c-0.079-0.824-0.322-1.48-0.744-2.002c-0.647-0.804-1.845-0.89-2.562-0.238v-0.293H6.382l0.001,8.229
			c0,0.067,0.008,0.136,0.018,0.203l0.036,0.328h1.27v-2.565c0.729,0.648,1.918,0.551,2.55-0.248
			c0.152-0.193,0.283-0.406,0.389-0.639C11.099,43.963,11.073,42.947,11.001,42.174z M9.673,43.295
			c-0.064,0.342-0.124,0.664-0.22,0.979c-0.104,0.343-0.308,0.546-0.604,0.604c-0.368,0.07-0.672-0.086-0.829-0.448
			c-0.131-0.302-0.226-0.656-0.282-1.059c-0.085-0.604-0.04-1.171,0.134-1.688c0.067-0.197,0.159-0.377,0.266-0.521
			c0.144-0.189,0.342-0.295,0.559-0.295c0.221,0,0.433,0.111,0.58,0.309c0.276,0.371,0.362,0.81,0.404,1.354
			c0.006,0.077,0.004,0.156,0.002,0.234l-0.001,0.357l0.024,0.007C9.694,43.18,9.683,43.237,9.673,43.295z"/>
	</g>
</g>
<g>
	<g>
		<path d="M15.836,42.125c-0.011-0.415-0.1-0.861-0.272-1.367c-0.231-0.682-0.769-1.119-1.515-1.236
			c-0.676-0.105-1.317,0.018-2.015,0.357c-0.143,0.068-0.256,0.237-0.263,0.393c-0.008,0.187-0.007,0.371-0.005,0.576v0.761
			l0.442-0.296c0.497-0.331,0.959-0.469,1.478-0.424c0.274,0.021,0.537,0.185,0.701,0.436c0.104,0.159,0.156,0.333,0.149,0.5
			l-0.555-0.005c-0.163,0-0.327,0.001-0.49,0.009c-1.109,0.043-1.84,0.659-2.006,1.688c-0.054,0.332-0.058,0.709-0.012,1.117
			c0.094,0.822,0.635,1.455,1.377,1.608c0.145,0.031,0.29,0.045,0.432,0.045c0.476,0,0.916-0.173,1.264-0.487v0.312h1.007
			l0.237-0.032l0.048-0.225l0.016-1.117C15.858,43.867,15.861,42.996,15.836,42.125z M14.049,44.639
			c-0.239,0.256-0.54,0.326-0.883,0.203c-0.187-0.064-0.382-0.201-0.411-0.701c-0.004-0.08-0.002-0.162,0.002-0.241
			c0.026-0.507,0.271-0.614,0.506-0.654c0.344-0.062,0.695-0.082,1.069-0.104c0.065-0.004,0.131-0.01,0.198-0.015
			C14.519,43.758,14.415,44.242,14.049,44.639z"/>
	</g>
</g>
<g>
	<g>
		<path d="M42.013,19.083c-0.125,0.051-0.199,0.081-0.271,0.114c-5.388,2.392-10.64,5.067-15.9,7.727
			c-2.306,1.166-4.618,2.318-6.927,3.475c-0.085,0.041-0.173,0.08-0.292,0.078c0.048-0.063,0.094-0.126,0.142-0.188
			c1.331-1.721,2.675-3.436,3.989-5.168c0.457-0.604,0.839-1.262,1.269-1.887c0.083-0.121,0.214-0.232,0.349-0.294
			c3.399-1.506,6.815-2.976,10.201-4.515c1.852-0.842,3.655-1.796,5.483-2.699c0.074-0.035,0.143-0.078,0.246-0.137
			c-2.618-0.939-5.2-1.868-7.811-2.806c0.06-0.086,0.107-0.151,0.154-0.216c0.477-0.638,0.959-1.272,1.424-1.917
			c0.123-0.171,0.219-0.204,0.424-0.132c1.569,0.562,3.131,1.137,4.717,1.645c0.877,0.28,1.791,0.437,2.738,0.66
			c0-0.238,0-0.411,0-0.583c0.004-3.975,0.01-7.95,0.016-11.925c0-0.104,0.013-0.211,0.021-0.315
			C29.908,0.001,17.831,0.001,5.751,0.001c0,0.106,0.002,0.212,0.003,0.319c0,11.851,0,23.697,0,35.547c0,0.106,0,0.209,0,0.354
			c0.102,0,0.189,0,0.277,0c11.887,0,23.772-0.002,35.661,0.004c0.222,0,0.275-0.062,0.276-0.277c0-3.287-0.002-6.57,0.019-9.854
			c0.011-2.011,0.056-4.021,0.077-6.031C42.07,19.748,42.034,19.434,42.013,19.083z"/>
	</g>
</g>
<g>
	<g>
		<path d="M34.137,44.125c0-1.007,0.004-2.015-0.002-3.021c-0.004-0.829-0.307-1.297-1.018-1.521
			c-0.645-0.202-1.296-0.188-1.93,0.054c-0.692,0.271-1.051,0.869-1,1.638c0.261,0,0.521,0,0.789,0
			c0.061-0.306,0.134-0.601,0.406-0.788c0.396-0.271,1.231-0.271,1.625,0.008c0.353,0.254,0.353,0.626,0.299,0.999
			c-0.043,0.317-0.312,0.397-0.578,0.449c-0.416,0.075-0.834,0.145-1.252,0.207c-0.957,0.143-1.479,0.688-1.531,1.606
			c-0.042,0.726,0.273,1.344,0.873,1.596c0.781,0.33,1.515,0.195,2.174-0.34c0.113-0.09,0.225-0.188,0.354-0.299
			c0.063,0.309,0.127,0.577,0.399,0.715c0.3,0.148,0.606,0.104,0.911,0.019c0.038-0.011,0.08-0.078,0.083-0.122
			c0.009-0.184,0.003-0.362,0.003-0.543C34.207,44.739,34.137,44.659,34.137,44.125z M33.32,43.547
			c-0.026,0.522-0.532,1.022-1.159,1.144c-0.191,0.036-0.398,0.054-0.593,0.026c-0.459-0.062-0.72-0.332-0.771-0.754
			c-0.056-0.457,0.127-0.818,0.553-0.979c0.32-0.118,0.66-0.176,0.994-0.252c0.316-0.071,0.635-0.133,0.979-0.203
			C33.324,42.861,33.338,43.205,33.32,43.547z"/>
	</g>
</g>
<g>
	<g>
		<path d="M20.667,39.635c-0.064,0-0.126-0.002-0.256-0.01c-0.263,0-0.439,0.143-0.522,0.422c-0.323,1.072-0.653,2.141-0.983,3.213
			l-0.1,0.323l-0.063-0.2c-0.344-1.118-0.687-2.235-1.036-3.352c-0.039-0.123-0.174-0.367-0.401-0.389
			c-0.108-0.015-0.217-0.018-0.329-0.018l-0.759,0.003l0.13,0.47c0.02,0.073,0.038,0.14,0.059,0.205l0.223,0.703
			c0.49,1.547,0.981,3.096,1.469,4.646c0.021,0.066,0.024,0.094,0.025,0.094c-0.103,0.343-0.215,0.681-0.339,1.015
			c-0.042,0.116-0.121,0.236-0.369,0.238h-0.745l0.088,1.403h0.92l0.013-0.002c0.856-0.092,1.188-0.746,1.363-1.229l0.028-0.072
			c0.029-0.08,0.058-0.16,0.083-0.239l2.243-7.228L20.667,39.635z"/>
	</g>
</g>
<g>
	<g>
		<path d="M42.426,40.906c-0.158-0.32-0.336-0.656-0.592-0.89c-1.124-1.027-2.837-0.633-3.451,0.795
			c-0.434,1.008-0.445,2.057-0.123,3.094c0.403,1.304,1.518,1.881,2.824,1.509c0.766-0.216,1.452-1.108,1.424-1.856
			c-0.145,0-0.289,0.017-0.431-0.004c-0.252-0.033-0.373,0.056-0.469,0.301c-0.194,0.496-0.569,0.806-1.124,0.834
			c-0.573,0.031-1.001-0.221-1.299-0.701c-0.225-0.364-0.286-0.771-0.284-1.238c1.259,0,2.491,0,3.723,0
			C42.695,42.244,42.623,41.311,42.426,40.906z M41.758,41.995c-0.932,0-1.869,0-2.82,0c0.021-1.008,0.681-1.758,1.482-1.71
			C41.225,40.333,41.848,41.121,41.758,41.995z"/>
	</g>
</g>
<g>
	<g>
		<path d="M36.597,40.343c0.291,0,0.548,0,0.817,0c0-0.251,0-0.478,0-0.729c-0.274,0-0.534,0-0.825,0c0-0.526,0-1.032,0-1.531
			c-0.284,0-0.536,0-0.81,0c0,0.517,0,1.017,0,1.539c-0.236,0-0.449,0-0.666,0c0,0.251,0,0.477,0,0.731c0.228,0,0.439,0,0.67,0
			c0,0.303,0,0.584,0,0.86c0,1.128-0.003,2.255,0.001,3.38c0.001,0.53,0.257,0.86,0.729,0.907c0.295,0.029,0.596-0.007,0.901-0.014
			c0-0.289,0-0.527,0-0.767c-0.038-0.002-0.061-0.006-0.082-0.004c-0.632,0.076-0.738-0.016-0.735-0.644c0-1.151,0-2.301,0-3.452
			C36.597,40.536,36.597,40.451,36.597,40.343z"/>
	</g>
</g>
<g>
	<g>
		<path d="M28.81,40.773c-0.004-0.445-0.191-0.841-0.58-1.098c-0.627-0.402-1.627-0.266-2.137,0.291
			c-0.102,0.107-0.198,0.217-0.312,0.346c-0.311-0.634-0.801-0.88-1.459-0.859c-0.652,0.021-1.09,0.376-1.485,0.87
			c0-0.231,0-0.466,0-0.705c-0.253,0-0.475,0-0.723,0c0,1.892,0,3.763,0,5.642c0.27,0,0.522,0,0.802,0c0-0.105,0-0.197,0-0.293
			c0.004-1.131-0.001-2.267,0.014-3.401c0.005-0.396,0.167-0.75,0.461-1.021c0.312-0.291,0.679-0.383,1.084-0.236
			c0.396,0.147,0.528,0.483,0.564,0.871c0.012,0.136,0.012,0.27,0.012,0.408c0,1.132,0,2.267,0,3.401c0,0.087,0,0.173,0,0.269
			c0.285,0,0.543,0,0.819,0c0-0.114,0-0.207,0-0.302c0-1.03,0-2.064,0-3.092c0-0.503,0.101-0.974,0.49-1.329
			c0.292-0.268,0.636-0.363,1.021-0.247c0.36,0.112,0.534,0.388,0.594,0.742c0.025,0.158,0.037,0.318,0.037,0.478
			c0.002,1.166,0.002,2.332,0.002,3.498c0,0.084,0,0.17,0,0.256c0.287,0,0.539,0,0.787,0c0.009-0.026,0.022-0.039,0.022-0.054
			C28.822,43.728,28.831,42.252,28.81,40.773z"/>
	</g>
</g>
<g>
</g>
<g>
</g>
<g>
</g>
<g>
</g>
<g>
</g>
<g>
</g>
<g>
</g>
<g>
</g>
<g>
</g>
<g>
</g>
<g>
</g>
<g>
</g>
<g>
</g>
<g>
</g>
<g>
</g>
</svg>
