<?xml version="1.0" encoding="iso-8859-1"?>
<!-- Generator: Adobe Illustrator 19.0.0, SVG Export Plug-In . SVG Version: 6.00 Build 0)  -->
<svg version="1.1" id="Capa_1" xmlns="http://www.w3.org/2000/svg" xmlns:xlink="http://www.w3.org/1999/xlink" x="0px" y="0px"
	 viewBox="0 0 26.22 26.22" style="enable-background:new 0 0 26.22 26.22;" xml:space="preserve">
<g>
	<g>
		<path d="M23.56,20.523c-0.006-1.741-0.002-3.48-0.002-5.222c0-4.55,0-9.103,0-13.654c0-0.943-0.705-1.648-1.641-1.647
			c-3.02,0.001-6.036,0-9.054,0C9.938-0.001,7.015,0.001,4.091,0.001c-0.265,0-0.502,0.088-0.716,0.24
			C2.841,0.62,2.629,1.143,2.63,1.792C2.638,5.586,2.634,9.38,2.634,13.175c0,3.832,0.001,7.665-0.001,11.495
			c0,0.351,0.069,0.67,0.293,0.946c0.342,0.425,0.784,0.604,1.329,0.604c5.834-0.006,11.67-0.004,17.505-0.004
			c0.125,0,0.25,0.002,0.375-0.006c0.781-0.049,1.459-0.764,1.455-1.541C23.582,23.285,23.564,21.903,23.56,20.523z M8.405,8.242
			c0.135-1.834,0.847-3.423,2.154-4.723c1.145-1.139,2.528-1.854,4.133-2.028c2.881-0.313,5.186,0.735,6.895,3.08
			c0.1,0.134,0.102,0.207-0.053,0.306c-0.652,0.419-1.295,0.852-1.961,1.292c-0.937-1.37-2.228-2.114-3.879-2.144
			c-1.058-0.019-2.004,0.342-2.855,0.977c-1.611,1.201-2.617,3.871-1.119,6.316c-0.708,0.466-1.416,0.933-2.154,1.419
			c-0.1-0.167-0.199-0.321-0.287-0.482C8.603,11.002,8.301,9.659,8.405,8.242z M4.951,15.686c0.652-0.42,1.295-0.854,1.961-1.293
			c0.935,1.369,2.226,2.113,3.879,2.143c1.056,0.021,2.005-0.342,2.854-0.977c1.611-1.201,2.617-3.871,1.119-6.316
			c0.707-0.467,1.416-0.934,2.154-1.419c0.1,0.167,0.199,0.321,0.285,0.482c0.68,1.253,0.979,2.595,0.879,4.012
			c-0.137,1.833-0.85,3.423-2.156,4.724c-1.145,1.14-2.527,1.854-4.132,2.026c-2.88,0.312-5.185-0.733-6.896-3.08
			C4.801,15.858,4.798,15.784,4.951,15.686z M7.193,22.663c-0.073,0.063-0.19,0.168-0.19,0.168s-0.156-0.101-0.235-0.146
			c-0.332-0.189-0.697-0.17-1.052-0.043c-0.078,0.026-0.156,0.086-0.206,0.151c-0.126,0.17-0.061,0.338,0.147,0.373
			c0.271,0.047,0.544,0.078,0.817,0.116c0.055,0.009,0.111,0.015,0.165,0.031c0.488,0.137,0.671,0.599,0.407,1.027
			c-0.208,0.344-0.54,0.475-0.917,0.504c-0.366,0.029-0.73-0.018-1.052-0.207c-0.166-0.098-0.271-0.246-0.451-0.396
			c0.183-0.106,0.271-0.178,0.388-0.247c0.34,0.362,0.75,0.493,1.229,0.415c0.067-0.012,0.135-0.03,0.197-0.059
			c0.161-0.072,0.233-0.203,0.218-0.377c-0.016-0.18-0.162-0.213-0.297-0.234c-0.223-0.034-0.447-0.049-0.671-0.08
			c-0.099-0.014-0.197-0.034-0.292-0.062c-0.446-0.146-0.58-0.605-0.285-0.976c0.193-0.242,0.462-0.363,0.757-0.414
			c0.368-0.065,0.72-0.056,1.089,0.099c0.132,0.055,0.247,0.149,0.396,0.243C7.272,22.607,7.229,22.631,7.193,22.663z
			 M11.658,22.396c0,0-0.743,1.459-1.104,2.193l-0.083,0.164H9.932c-0.099-0.584-0.196-1.16-0.302-1.783
			c-0.212,0.357-0.4,0.674-0.587,0.988c-0.12,0.205-0.323,0.584-0.432,0.795H8.049c-0.087-0.834-0.172-1.65-0.258-2.479
			c0.169,0,0.323,0,0.498,0c0.054,0.553,0.107,1.104,0.162,1.653c0.012,0.005,0.024,0.009,0.036,0.011
			c0.182-0.295,0.363-0.59,0.545-0.886c0.121-0.196,0.252-0.389,0.358-0.594l0.122-0.211l0.492,0.002c0,0,0.209,1.123,0.321,1.717
			c0.052-0.086,0.088-0.139,0.115-0.194c0.21-0.435,0.424-0.863,0.623-1.304c0.068-0.147,0.102-0.204,0.102-0.204h0.557
			L11.658,22.396z M12.256,24.747c-0.164,0-0.318,0-0.502,0c0.174-0.824,0.345-1.64,0.518-2.466c0.161,0,0.32,0,0.504,0
			C12.601,23.107,12.429,23.924,12.256,24.747z M15.682,22.676c-0.205,0-0.762,0-0.982,0c-0.088,0.41-0.174,0.812-0.26,1.213
			c-0.051,0.238-0.104,0.475-0.147,0.715c-0.021,0.109-0.06,0.166-0.183,0.152c-0.104-0.01-0.211-0.002-0.344-0.002
			c0.146-0.697,0.287-1.377,0.436-2.078c-0.33,0-0.64,0-0.966,0c0.03-0.143,0.055-0.264,0.083-0.396c0.806,0,2.438,0,2.438,0
			L15.682,22.676z M16.383,24.012c0.062,0.131,0.189,0.254,0.318,0.318c0.424,0.215,0.887,0.086,1.25-0.33
			c0.133,0.059,0.271,0.117,0.43,0.186c-0.268,0.439-0.652,0.646-1.139,0.666c-0.187,0.008-0.377-0.004-0.557-0.047
			c-0.628-0.145-0.931-0.635-0.854-1.338c0.149-1.373,1.659-1.572,2.36-1.104c0.158,0.105,0.219,0.213,0.381,0.449l-0.398,0.187
			c-0.26-0.404-0.635-0.526-1.086-0.429C16.505,22.697,16.122,23.469,16.383,24.012z M21.195,24.749c-0.186,0-0.356,0-0.555,0
			c0.088-0.41,0.17-0.81,0.256-1.222c-0.459,0-0.906,0-1.379,0c-0.074,0.347-0.268,1.229-0.268,1.229s-0.389,0-0.516,0
			c0.178-0.84,0.35-1.654,0.521-2.479c0.17,0,0.33,0,0.516,0c-0.055,0.274-0.106,0.543-0.164,0.836h1.367
			c0,0,0.139-0.603,0.188-0.836c0.189,0,0.363,0,0.552,0C21.541,23.107,21.369,23.924,21.195,24.749z"/>
	</g>
</g>
<g>
</g>
<g>
</g>
<g>
</g>
<g>
</g>
<g>
</g>
<g>
</g>
<g>
</g>
<g>
</g>
<g>
</g>
<g>
</g>
<g>
</g>
<g>
</g>
<g>
</g>
<g>
</g>
<g>
</g>
</svg>
