<?xml version="1.0" encoding="iso-8859-1"?>
<!-- Generator: Adobe Illustrator 19.0.0, SVG Export Plug-In . SVG Version: 6.00 Build 0)  -->
<svg version="1.1" id="Capa_1" xmlns="http://www.w3.org/2000/svg" xmlns:xlink="http://www.w3.org/1999/xlink" x="0px" y="0px"
	 viewBox="0 0 45.606 45.606" style="enable-background:new 0 0 45.606 45.606;" xml:space="preserve">
<g>
	<g>
		<path d="M15.246,20.976c-0.065-1.082-0.349-2.111-0.868-3.066c-0.985-1.813-2.482-2.943-4.521-3.327
			c-0.246-0.046-0.497-0.071-0.746-0.106c-0.279,0-0.559,0-0.838,0c-0.253,0.034-0.508,0.062-0.759,0.104
			c-1.426,0.242-2.691,0.846-3.807,1.752c-1.97,1.598-3.148,3.666-3.586,6.158c-0.053,0.296-0.067,0.599-0.101,0.898
			C0.017,23.411,0.007,23.431,0,23.452c0,0.332,0,0.666,0,1c0.027,0.231,0.049,0.463,0.084,0.693
			c0.283,1.879,1.073,3.482,2.594,4.67c0.919,0.717,1.97,1.125,3.127,1.26c0.146,0.019,0.293,0.035,0.439,0.054
			c0.226,0,0.451,0,0.676,0c0.021-0.009,0.042-0.017,0.063-0.019c0.422-0.061,0.852-0.092,1.266-0.19
			c1.62-0.383,3.002-1.206,4.15-2.398C14.424,26.418,15.42,23.914,15.246,20.976z M12.05,21.89
			c-0.199,0.932-0.396,1.865-0.612,2.793c-0.119,0.511-0.307,0.998-0.577,1.45c-0.483,0.808-1.204,1.288-2.111,1.486
			c-1.168,0.257-2.332,0.271-3.473-0.139c-0.64-0.233-1.175-0.608-1.518-1.214c-0.205-0.36-0.278-0.753-0.277-1.167
			c0.002-0.842,0.217-1.649,0.39-2.461c0.28-1.315,0.571-2.627,0.854-3.942c0.023-0.108,0.068-0.152,0.18-0.15
			c0.274,0.004,0.549,0.001,0.824,0.001c0.262,0.001,0.522-0.001,0.784,0.001c0.394,0.002,0.583,0.228,0.5,0.613
			c-0.274,1.266-0.554,2.53-0.829,3.796c-0.104,0.478-0.2,0.959-0.297,1.439c-0.014,0.07-0.013,0.145-0.02,0.215
			c-0.069,0.68,0.341,1.062,0.887,1.172c0.432,0.09,0.861,0.064,1.275-0.094c0.429-0.165,0.701-0.491,0.889-0.896
			c0.243-0.526,0.361-1.092,0.481-1.654c0.314-1.478,0.619-2.958,0.925-4.437c0.024-0.113,0.073-0.155,0.191-0.155
			c0.527,0.001,1.054-0.007,1.581-0.008c0.084,0,0.171,0.011,0.252,0.035c0.232,0.068,0.338,0.238,0.293,0.476
			C12.448,19.997,12.252,20.944,12.05,21.89z M10.23,15.434c-1.616-0.357-3.159-0.115-4.634,0.597
			c-1.442,0.696-2.583,1.74-3.459,3.075c-0.027,0.041-0.056,0.081-0.084,0.122c-0.012-0.008-0.025-0.017-0.037-0.026
			c0.212-0.322,0.41-0.653,0.638-0.963c1.072-1.457,2.44-2.522,4.171-3.093c0.836-0.276,1.695-0.375,2.57-0.303
			c0.33,0.027,0.687,0.077,0.982,0.165c0.85,0.184,2.246,0.806,3.07,2.108C12.057,16.027,10.526,15.499,10.23,15.434z"/>
	</g>
</g>
<g>
	<g>
		<path d="M24.332,21.243c0.041-0.039,0.057-0.11,0.082-0.166c-0.055-0.02-0.107-0.056-0.164-0.056
			c-0.742-0.004-1.486-0.005-2.229,0.001c-0.07,0-0.157,0.04-0.208,0.089c-0.603,0.588-1.2,1.182-1.799,1.774
			c-0.109,0.107-0.222,0.213-0.355,0.341c0.017-0.089,0.025-0.142,0.036-0.194c0.26-1.232,0.522-2.464,0.78-3.697
			c0.1-0.475-0.146-0.776-0.63-0.781c-0.41-0.004-0.82,0.002-1.23-0.004c-0.115-0.001-0.156,0.045-0.178,0.151
			c-0.607,2.901-1.217,5.803-1.827,8.705c-0.033,0.16-0.006,0.194,0.158,0.194c0.446,0.001,0.892,0.002,1.338,0
			c0.417-0.002,0.676-0.215,0.762-0.623c0.058-0.271,0.112-0.546,0.168-0.819c0.053-0.256,0.106-0.516,0.164-0.791
			c0.032,0.045,0.053,0.07,0.073,0.102c0.442,0.673,0.885,1.348,1.324,2.021c0.049,0.076,0.104,0.112,0.196,0.111
			c0.658-0.003,1.315,0,1.973-0.004c0.053,0,0.14-0.021,0.15-0.054c0.015-0.046-0.009-0.12-0.041-0.166
			c-0.358-0.511-0.721-1.019-1.083-1.531c-0.328-0.463-0.655-0.925-0.992-1.399c0.049-0.045,0.087-0.084,0.127-0.121
			C22.062,23.301,23.198,22.273,24.332,21.243z"/>
	</g>
</g>
<g>
	<g>
		<path d="M44.85,18.55c-0.42-0.043-0.801,0.215-0.896,0.611c-0.101,0.416,0.106,0.823,0.492,0.964
			c0.42,0.154,0.881-0.005,1.073-0.373c0.033-0.063,0.058-0.13,0.087-0.194c0-0.126,0-0.252,0-0.378
			C45.485,18.813,45.244,18.59,44.85,18.55z M44.764,20.004c-0.343-0.003-0.606-0.283-0.604-0.645
			c0.004-0.361,0.272-0.638,0.615-0.633c0.34,0.004,0.614,0.294,0.61,0.644C45.381,19.725,45.104,20.007,44.764,20.004z"/>
	</g>
</g>
<g>
	<g>
		<path d="M44.991,19.407c0.124-0.038,0.162-0.131,0.16-0.251c-0.004-0.124-0.068-0.218-0.186-0.231
			c-0.17-0.018-0.345-0.004-0.515-0.004c0,0.303,0,0.598,0,0.896c0.06,0,0.113,0,0.179,0c0-0.131,0-0.255,0-0.426
			c0.069,0.05,0.116,0.069,0.141,0.105c0.047,0.065,0.092,0.136,0.119,0.21c0.049,0.122,0.134,0.139,0.259,0.104
			c-0.076-0.126-0.149-0.249-0.222-0.376C44.95,19.423,44.97,19.414,44.991,19.407z M44.634,19.301c0-0.103,0-0.169,0-0.273
			c0.115,0.029,0.213,0.05,0.308,0.085c0.011,0.004,0.009,0.111-0.005,0.117C44.841,19.261,44.739,19.278,44.634,19.301z"/>
	</g>
</g>
<g>
	<g>
		<path d="M29.72,21.195c-0.119-0.059-0.246-0.113-0.375-0.148c-1.023-0.272-2.056-0.31-3.086-0.07
			c-1.011,0.235-1.634,0.881-1.877,1.89c-0.041,0.161-0.019,0.194,0.149,0.194c0.567,0.001,1.135-0.001,1.703,0.002
			c0.107,0.002,0.162-0.031,0.187-0.144c0.065-0.293,0.239-0.504,0.53-0.596c0.354-0.113,0.72-0.123,1.078-0.025
			c0.217,0.059,0.375,0.192,0.428,0.424c0.076,0.327-0.071,0.642-0.379,0.784c-0.109,0.048-0.228,0.093-0.344,0.107
			c-0.424,0.043-0.85,0.069-1.277,0.109c-0.606,0.057-1.207,0.139-1.774,0.375c-0.531,0.221-0.937,0.567-1.109,1.139
			c-0.103,0.346-0.123,0.701-0.072,1.055c0.096,0.679,0.465,1.137,1.119,1.354c0.39,0.13,0.793,0.155,1.201,0.138
			c0.689-0.027,1.316-0.191,1.787-0.756c-0.037,0.132-0.072,0.267-0.104,0.402c-0.029,0.125,0.002,0.171,0.131,0.171
			c0.44,0.003,0.883,0.011,1.323-0.002c0.369-0.008,0.6-0.21,0.695-0.567c0.144-0.543,0.291-1.086,0.42-1.634
			c0.214-0.9,0.424-1.803,0.485-2.733C30.604,21.998,30.319,21.489,29.72,21.195z M27.424,26.134
			c-0.388,0.315-0.836,0.378-1.312,0.253c-0.248-0.064-0.42-0.226-0.457-0.493c-0.044-0.315,0.036-0.59,0.312-0.778
			c0.267-0.181,0.574-0.22,0.885-0.256c0.218-0.027,0.439-0.037,0.656-0.074c0.201-0.035,0.398-0.09,0.611-0.14
			C28.028,25.198,27.893,25.747,27.424,26.134z"/>
	</g>
</g>
<g>
	<g>
		<path d="M43.718,20.961c-0.705-0.247-1.402-0.148-2.08,0.127c-0.373,0.15-0.691,0.377-0.957,0.689
			c0.014-0.07,0.027-0.14,0.043-0.209c0.17-0.801,0.342-1.601,0.51-2.402c0.08-0.383-0.113-0.611-0.504-0.612
			c-0.445-0.001-0.893,0.006-1.338-0.003c-0.144-0.003-0.199,0.042-0.23,0.187c-0.256,1.246-0.521,2.491-0.785,3.736
			c-0.348,1.638-0.693,3.272-1.041,4.91c-0.039,0.185-0.014,0.218,0.174,0.218c0.411,0,0.819,0,1.229,0
			c0.476,0,0.765-0.232,0.867-0.701c0.162-0.771,0.312-1.543,0.488-2.311c0.096-0.428,0.198-0.862,0.36-1.268
			c0.229-0.579,0.695-0.849,1.322-0.831c0.406,0.012,0.683,0.237,0.723,0.639c0.02,0.22-0.004,0.45-0.049,0.668
			c-0.246,1.189-0.504,2.374-0.758,3.562c-0.043,0.213-0.027,0.24,0.187,0.24c0.437,0,0.874,0.002,1.312-0.001
			c0.424-0.003,0.672-0.211,0.764-0.618c0.211-0.953,0.428-1.904,0.639-2.856c0.119-0.527,0.25-1.051,0.229-1.598
			C44.797,21.79,44.393,21.196,43.718,20.961z"/>
	</g>
</g>
<g>
	<g>
		<path d="M36.115,21.081c-1.174-0.407-2.352-0.352-3.492,0.132c-0.785,0.335-1.209,0.947-1.219,1.824
			c-0.012,0.781,0.297,1.291,1.02,1.582c0.314,0.127,0.652,0.199,0.98,0.295c0.344,0.1,0.697,0.178,1.035,0.299
			c0.289,0.104,0.396,0.347,0.322,0.645c-0.047,0.198-0.187,0.324-0.363,0.408c-0.275,0.13-0.568,0.141-0.859,0.094
			c-0.508-0.082-0.709-0.293-0.785-0.798c-0.014-0.096-0.057-0.132-0.147-0.13c-0.281,0.002-0.56,0-0.839,0
			c-0.274,0-0.551,0-0.823,0c-0.164,0-0.188,0.027-0.175,0.193c0.007,0.062,0.015,0.125,0.021,0.188
			c0.125,0.911,0.6,1.533,1.494,1.809c0.553,0.17,1.117,0.186,1.686,0.16c0.552-0.021,1.095-0.095,1.611-0.297
			c0.635-0.25,1.094-0.673,1.271-1.35c0.052-0.199,0.087-0.407,0.093-0.611c0.024-0.945-0.254-1.465-1.134-1.766
			c-0.391-0.135-0.797-0.217-1.194-0.332c-0.267-0.077-0.539-0.147-0.791-0.263c-0.312-0.143-0.346-0.501-0.094-0.737
			c0.062-0.057,0.137-0.102,0.213-0.137c0.246-0.112,0.506-0.134,0.769-0.099c0.387,0.052,0.598,0.262,0.616,0.615
			c0.007,0.131,0.058,0.17,0.183,0.169c0.535-0.004,1.072-0.001,1.606-0.002c0.172,0,0.188-0.016,0.188-0.184
			C37.305,21.975,36.897,21.352,36.115,21.081z"/>
	</g>
</g>
<g>
</g>
<g>
</g>
<g>
</g>
<g>
</g>
<g>
</g>
<g>
</g>
<g>
</g>
<g>
</g>
<g>
</g>
<g>
</g>
<g>
</g>
<g>
</g>
<g>
</g>
<g>
</g>
<g>
</g>
</svg>
