<?xml version="1.0" encoding="iso-8859-1"?>
<!-- Generator: Adobe Illustrator 19.0.0, SVG Export Plug-In . SVG Version: 6.00 Build 0)  -->
<svg version="1.1" id="Capa_1" xmlns="http://www.w3.org/2000/svg" xmlns:xlink="http://www.w3.org/1999/xlink" x="0px" y="0px"
	 viewBox="0 0 50.499 50.499" style="enable-background:new 0 0 50.499 50.499;" xml:space="preserve">
<g>
	<g>
		<path d="M3.679,24.671c-0.408-0.16-0.823-0.304-1.235-0.453c-0.012,0.028-0.023,0.056-0.034,0.083
			c0.443,0.234,0.887,0.47,1.369,0.725C3.751,24.86,3.808,24.722,3.679,24.671z"/>
	</g>
</g>
<g>
	<g>
		<path d="M9.718,20.959c-0.019-0.008-0.037-0.017-0.056-0.024c-0.694-0.406-1.434-0.683-2.238-0.765
			c-0.861-0.087-1.687,0.029-2.361,0.605c-0.95,0.811-1.221,1.915-1.189,3.107c0.021,0.819,0.198,1.619,0.457,2.397
			c-0.01,0.039,0.707,1.646,0.725,1.658c0,0.056,0.757,1.36,0.801,1.432c0.435,0.689,0.936,1.332,1.453,1.958
			c0.248,0.299,0.478,0.627,0.855,0.917c-0.332-0.641-0.63-1.208-0.921-1.778c-0.522-1.024-0.953-2.084-1.394-3.141l-0.002-0.003
			c-0.44-1.246-0.51-1.689-0.597-2.076c-0.187-0.841-0.322-1.688-0.071-2.54c0.174-0.595,0.533-1.05,1.115-1.289
			c0.844-0.345,1.678-0.173,2.506,0.086c0.281,0.088,1.48,0.648,1.641,0.728c0.622,0.308,2.315,1.333,2.315,1.333
			S10.746,21.541,9.718,20.959z"/>
	</g>
</g>
<g>
	<g>
		<path d="M14.684,23.023c-0.973-1.779-2.425-3.043-4.255-3.881c-1.562-0.716-3.182-1.036-4.894-0.692
			c-2.424,0.487-4.179,1.913-5.509,3.933c-0.016,0.031-0.052,0.066,0.003,0.09c0.011,0.005,0.039-0.029,0.059-0.046
			C0.779,21.729,1.5,21.066,2.33,20.53c1.512-0.976,3.138-1.483,4.948-1.21c2.313,0.349,4.223,1.418,5.701,3.239
			c0.473,0.583,0.899,1.193,1.065,1.943c0.19,0.863-0.227,1.577-1.067,1.832c-0.424,0.13-0.862,0.176-1.302,0.183
			c-1.26,0.016-2.478-0.254-3.686-0.57c-0.76-0.198-2.498-0.623-2.498-0.623l0.006,0.046c0,0,0.017,0.341,0.125,0.479
			c0.05,0.062,0.141,0.116,0.242,0.158c1.033,0.418,2.066,0.832,3.144,1.119c1.25,0.334,2.512,0.58,3.817,0.389
			c1.361-0.203,2.23-0.998,2.391-2.26C15.318,24.456,15.061,23.713,14.684,23.023z"/>
	</g>
</g>
<g>
	<g>
		<path d="M22.699,20.004c-0.719-0.051-1.304,0.189-1.793,0.846c0-0.198-0.013-0.309,0.003-0.417c0.032-0.23-0.053-0.3-0.285-0.289
			c-0.409,0.02-0.819,0.012-1.229,0.003c-0.173-0.004-0.255,0.027-0.254,0.232c0.008,1.771,0.007,3.542,0,5.313
			c0,0.2,0.068,0.241,0.25,0.234c0.399-0.012,0.8-0.02,1.198,0.002c0.25,0.015,0.326-0.05,0.327-0.313
			c0.003-0.931-0.061-1.863,0.038-2.792c0.075-0.705,0.492-1.06,1.204-1.002c0.158,0.014,0.215-0.021,0.257-0.161
			c0.146-0.478,0.291-0.957,0.456-1.429C22.941,20.033,22.863,20.015,22.699,20.004z"/>
	</g>
</g>
<g>
	<g>
		<path d="M37.55,18.526c0.003-0.218-0.063-0.276-0.272-0.27c-0.439,0.015-0.879,0.012-1.318,0.001
			c-0.175-0.004-0.231,0.056-0.229,0.229c0.004,2.414,0.004,4.827-0.002,7.241c-0.002,0.177,0.063,0.227,0.231,0.223
			c0.44-0.011,0.88-0.015,1.319,0c0.214,0.007,0.271-0.062,0.271-0.275c-0.012-1.187-0.006-2.373-0.006-3.559
			C37.544,20.92,37.538,19.723,37.55,18.526z"/>
	</g>
</g>
<g>
	<g>
		<path d="M44.074,21.437c-0.615-0.947-1.44-1.528-2.604-1.5c-0.265,0.012-0.522-0.003-0.772,0.063
			c-0.965,0.255-1.638,0.847-2.069,1.749c-0.612,1.288-0.11,2.983,1.101,3.745c1.311,0.824,2.832,0.61,4.051-0.221
			c0.178-0.122,0.164-0.227,0.06-0.374c-0.172-0.251-0.34-0.505-0.504-0.761c-0.242-0.38-0.241-0.381-0.637-0.15
			c-0.07,0.042-0.14,0.085-0.214,0.118c-0.537,0.247-1.077,0.39-1.641,0.075c-0.197-0.109-0.262-0.162-0.015-0.313
			c1.051-0.642,2.086-1.311,3.135-1.957C44.187,21.773,44.197,21.626,44.074,21.437z M41.966,21.745
			c-0.617,0.384-1.236,0.763-1.892,1.167c-0.008-0.558,0.251-0.933,0.635-1.215c0.376-0.28,0.806-0.314,1.247-0.141
			C42.111,21.616,42.054,21.69,41.966,21.745z"/>
	</g>
</g>
<g>
	<g>
		<path d="M44.407,28.407c-0.089-0.701-0.599-1.055-1.305-0.988c-0.396,0.038-0.722,0.196-1.015,0.521
			c0.091-0.402-0.102-0.482-0.418-0.436c-0.04,0.008-0.083,0.008-0.123,0c-0.255-0.042-0.298,0.082-0.295,0.312
			c0.013,0.981,0.005,1.965,0.005,2.947c0,0.605,0,0.598,0.602,0.594c0.193-0.002,0.24-0.062,0.238-0.246
			c-0.013-0.625-0.008-1.248-0.004-1.873c0.002-0.133,0.008-0.268,0.034-0.396c0.099-0.452,0.495-0.726,0.955-0.669
			c0.377,0.049,0.532,0.277,0.532,0.791c0.001,0.604,0,1.207,0,1.812c0,0.604,0,0.604,0.608,0.574
			c0.029-0.002,0.062-0.004,0.092-0.002c0.106,0.006,0.146-0.055,0.145-0.15C44.438,30.266,44.526,29.333,44.407,28.407z"/>
	</g>
</g>
<g>
	<g>
		<path d="M34.612,21.877c-0.004-1.004-0.536-1.653-1.517-1.863c-0.835-0.178-1.643-0.01-2.454,0.174
			c-0.132,0.03-0.15,0.107-0.171,0.213c-0.093,0.459-0.194,0.916-0.302,1.435c0.153-0.065,0.254-0.111,0.358-0.152
			c0.514-0.202,1.037-0.39,1.605-0.294c0.592,0.099,0.83,0.458,0.708,1.056c-0.892-0.668-2.158-0.426-2.812,0.229
			c-0.648,0.648-0.723,1.738-0.18,2.511c0.62,0.88,1.695,1.026,3.101,0.396c-0.047,0.362,0.179,0.352,0.429,0.341
			c0.296-0.008,0.596,0,0.891,0.021c0.248,0.017,0.359-0.023,0.354-0.322C34.6,24.374,34.614,23.125,34.612,21.877z M32.299,24.681
			c-0.5,0.098-0.982-0.135-1.082-0.521c-0.123-0.492,0.261-0.9,0.846-0.898c0.449,0.001,0.776,0.251,0.819,0.623
			C32.932,24.302,32.714,24.599,32.299,24.681z"/>
	</g>
</g>
<g>
	<g>
		<path d="M50.387,25.648c-0.543-0.785-1.104-1.559-1.604-2.372c-0.095-0.027-0.117-0.101-0.128-0.184c0-0.001,0-0.001,0-0.001
			c-0.133-0.074-0.168-0.189-0.076-0.303c0.17-0.211,0.281-0.467,0.501-0.639l-0.001,0.006c0.021-0.028,0.042-0.058,0.062-0.087
			c0.344-0.563,0.744-1.088,1.133-1.622c0.055-0.074,0.136-0.146,0.089-0.241c-0.044-0.087-0.148-0.056-0.224-0.056
			c-0.492-0.006-0.983,0.001-1.476-0.006c-0.172-0.002-0.285,0.056-0.376,0.206c-0.188,0.313-0.404,0.608-0.587,0.926
			c-0.146,0.257-0.254,0.169-0.366-0.01c-0.183-0.294-0.357-0.592-0.536-0.888c-0.081-0.138-0.177-0.236-0.36-0.233
			c-0.53,0.008-1.062,0-1.596,0.002c-0.068,0-0.154-0.023-0.195,0.05c-0.045,0.076,0.024,0.135,0.062,0.189
			c0.524,0.757,1.046,1.517,1.584,2.264c0.135,0.186,0.145,0.313,0.008,0.503c-0.593,0.812-1.166,1.634-1.746,2.452
			c-0.062,0.087-0.151,0.164-0.129,0.292c0.045,0.006,0.086,0.015,0.127,0.015c0.377,0.002,0.764-0.042,1.135,0.013
			c0.629,0.095,1.006-0.147,1.259-0.717c0.13-0.29,0.288-0.589,0.541-0.825c0.28,0.472,0.551,0.913,0.812,1.36
			c0.062,0.107,0.131,0.17,0.262,0.172c0.562,0.007,1.125,0.021,1.688,0.031c0.081,0,0.183,0.008,0.229-0.062
			C50.543,25.783,50.434,25.719,50.387,25.648z"/>
	</g>
</g>
<g>
	<g>
		<path d="M36.47,28.943c0-0.319-0.035-0.625-0.156-0.914c-0.14-0.338-0.379-0.543-0.752-0.596
			c-0.576-0.082-1.043,0.084-1.371,0.596c-0.4-0.748-1.457-0.84-2.098-0.07c0.071-0.466-0.178-0.469-0.447-0.44
			c-0.029,0.004-0.062,0.006-0.092,0c-0.24-0.043-0.287,0.066-0.283,0.291c0.013,1.002,0.006,2.006,0.006,3.01
			c0,0.555,0,0.541,0.552,0.539c0.229,0,0.27-0.084,0.264-0.287c-0.013-0.572-0.007-1.146-0.004-1.719
			c0.001-0.27,0.028-0.531,0.155-0.774c0.16-0.308,0.447-0.454,0.758-0.388c0.297,0.062,0.45,0.287,0.451,0.67
			c0.003,0.646,0.001,1.291,0.001,1.936c0,0.573,0,0.562,0.567,0.566c0.23,0.002,0.265-0.09,0.262-0.289
			c-0.01-0.635,0-1.271,0.001-1.903c0-0.187,0.03-0.363,0.11-0.534c0.164-0.346,0.459-0.512,0.791-0.438
			c0.278,0.06,0.446,0.296,0.453,0.68c0.012,0.646,0.008,1.29,0.01,1.937c0.002,0.558,0,0.547,0.551,0.551
			c0.212,0,0.281-0.059,0.277-0.276C36.461,30.374,36.474,29.656,36.47,28.943z"/>
	</g>
</g>
<g>
	<g>
		<path d="M30.383,27.512c-0.28-0.018-0.424,0.065-0.518,0.337c-0.175,0.502-0.386,0.989-0.589,1.48
			c-0.088,0.211-0.146,0.438-0.295,0.647c-0.27-0.604-0.523-1.185-0.782-1.762c-0.341-0.756-0.343-0.756-1.229-0.678
			c0.403,0.819,0.787,1.608,1.184,2.395c0.449,0.896,0.451,0.894,0.039,1.784c-0.217,0.472-0.215,0.448,0.308,0.479
			c0.311,0.019,0.44-0.09,0.559-0.369c0.528-1.283,1.088-2.557,1.635-3.834C30.892,27.53,30.89,27.546,30.383,27.512z"/>
	</g>
</g>
<g>
	<g>
		<path d="M46.818,30.639c-0.461,0.038-0.674-0.182-0.682-0.652c-0.008-0.407-0.002-0.817-0.002-1.228c0-0.562,0-0.559,0.555-0.565
			c0.096-0.002,0.211,0.052,0.274-0.067c0.151-0.277-0.026-0.588-0.341-0.589c-0.488-0.001-0.484-0.001-0.488-0.477
			c-0.005-0.471,0.061-0.406-0.402-0.41c-0.448-0.004-0.448-0.002-0.448,0.451c0,0.092-0.003,0.184,0,0.273
			c0.004,0.091-0.009,0.164-0.126,0.155c-0.309-0.021-0.203,0.213-0.21,0.363c-0.007,0.14-0.062,0.332,0.202,0.303
			c0.145-0.016,0.134,0.089,0.134,0.183c0,0.309,0,0.613,0,0.92c0.001,0,0.003,0,0.005,0c0,0.309-0.016,0.615,0.002,0.922
			c0.044,0.77,0.457,1.157,1.215,1.163c0.493,0.005,0.487,0.005,0.552-0.479C47.08,30.709,47.068,30.614,46.818,30.639z"/>
	</g>
</g>
<g>
	<g>
		<path d="M38.289,30.031c0.765-0.469,1.515-0.965,2.273-1.449c0.105-0.069,0.221-0.113,0.084-0.27
			c-0.444-0.516-0.959-0.888-1.586-0.875c-1.233-0.002-2.099,0.795-2.129,1.894c-0.024,0.847,0.325,1.501,1.088,1.871
			c0.838,0.409,1.652,0.29,2.388-0.277c0.332-0.257,0.307-0.253,0.024-0.562c-0.186-0.199-0.298-0.234-0.527-0.033
			c-0.51,0.45-1.168,0.463-1.627,0.096C38.101,30.281,38.036,30.187,38.289,30.031z M37.916,29.512
			c-0.163,0.106-0.188,0.028-0.188-0.117c0.004-0.492,0.215-0.873,0.639-1.112c0.423-0.239,0.841-0.185,1.285,0.116
			C39.052,28.787,38.482,29.147,37.916,29.512z"/>
	</g>
</g>
<g>
	<g>
		<path d="M25.612,23.859c1.055-0.665,2.106-1.334,3.167-1.988c0.173-0.106,0.204-0.189,0.1-0.36
			c-0.597-1.007-1.464-1.567-2.45-1.593c-1.548,0.003-2.729,0.834-3.131,2.063c-0.426,1.305-0.005,2.676,1.089,3.429
			c1.442,0.999,2.951,0.667,4.234-0.189c0.128-0.087,0.072-0.166,0.012-0.256c-0.212-0.325-0.435-0.643-0.632-0.976
			c-0.125-0.212-0.209-0.235-0.429-0.082c-0.586,0.406-1.226,0.603-1.932,0.295c-0.092-0.04-0.221-0.07-0.227-0.175
			C25.407,23.931,25.537,23.907,25.612,23.859z M24.875,22.885c-0.063-0.393,0.185-0.911,0.591-1.188
			c0.432-0.293,0.893-0.291,1.42-0.067C26.177,22.073,25.528,22.477,24.875,22.885z"/>
	</g>
</g>
<g>
	<g>
		<path d="M26.785,28.659c-0.003-0.638-0.376-1.076-0.998-1.216c-0.546-0.115-1.077-0.023-1.61,0.076
			c-0.091,0.015-0.175,0.047-0.2,0.16c-0.04,0.186-0.091,0.365-0.138,0.553c0.151,0.035,0.25-0.032,0.353-0.064
			c0.335-0.106,0.674-0.16,1.026-0.119c0.54,0.067,0.767,0.377,0.673,0.929c-1.179-0.447-1.861-0.359-2.273,0.295
			c-0.341,0.543-0.258,1.281,0.193,1.723c0.551,0.543,1.314,0.533,2.213-0.079c-0.144,0.43,0.069,0.463,0.343,0.436
			c0.047-0.006,0.1-0.009,0.151,0c0.213,0.032,0.276-0.055,0.273-0.271C26.778,30.275,26.789,29.467,26.785,28.659z M25.088,30.772
			c-0.505-0.002-0.868-0.316-0.865-0.75c0.002-0.424,0.362-0.739,0.844-0.74c0.505-0.004,0.871,0.307,0.875,0.74
			C25.944,30.473,25.6,30.774,25.088,30.772z"/>
	</g>
</g>
<g>
	<g>
		<path d="M22.728,28.188c-0.275-0.385-0.647-0.624-1.105-0.72c-0.652-0.138-1.226,0.015-1.697,0.558
			c-0.044-0.527-0.044-0.512-0.527-0.521c-0.249-0.003-0.326,0.066-0.323,0.328c0.016,1.249,0.006,2.497,0.006,3.746
			c0,0.639-0.001,0.635,0.631,0.615c0.162-0.006,0.209-0.053,0.205-0.211c-0.01-0.365-0.003-0.731-0.003-1.153
			c0.875,0.763,1.831,0.791,2.582,0.11C23.223,30.284,23.328,29.024,22.728,28.188z M21.072,30.649
			c-0.647-0.004-1.165-0.545-1.165-1.215c0-0.685,0.526-1.238,1.18-1.24c0.647-0.002,1.199,0.559,1.207,1.227
			C22.303,30.108,21.761,30.655,21.072,30.649z"/>
	</g>
</g>
<g>
	<g>
		<path d="M49.679,29.252c-0.277-0.104-0.559-0.197-0.832-0.306c-0.168-0.065-0.32-0.156-0.305-0.372
			c0.018-0.212,0.156-0.32,0.344-0.388c0.334-0.119,0.646-0.025,0.945,0.108c0.147,0.066,0.223,0.062,0.271-0.097
			c0.027-0.087,0.063-0.175,0.109-0.253c0.09-0.148,0.053-0.225-0.107-0.301c-0.479-0.228-0.978-0.295-1.492-0.188
			c-0.545,0.115-0.911,0.547-0.932,1.069c-0.022,0.543,0.202,0.832,0.805,1.033c0.242,0.08,0.488,0.149,0.722,0.252
			c0.151,0.063,0.271,0.18,0.268,0.375c-0.01,0.196-0.109,0.317-0.281,0.399c-0.289,0.138-0.57,0.115-0.859,0.004
			c-0.427-0.166-0.43-0.161-0.625,0.259c-0.004,0.01-0.008,0.02-0.014,0.025c-0.09,0.13-0.065,0.208,0.087,0.276
			c0.358,0.162,0.725,0.272,1.116,0.274c0.314,0.002,0.611-0.062,0.884-0.223c0.396-0.231,0.599-0.582,0.585-1.038
			C50.351,29.714,50.1,29.413,49.679,29.252z"/>
	</g>
</g>
<g>
</g>
<g>
</g>
<g>
</g>
<g>
</g>
<g>
</g>
<g>
</g>
<g>
</g>
<g>
</g>
<g>
</g>
<g>
</g>
<g>
</g>
<g>
</g>
<g>
</g>
<g>
</g>
<g>
</g>
</svg>
