<?xml version="1.0" encoding="iso-8859-1"?>
<!-- Generator: Adobe Illustrator 19.0.0, SVG Export Plug-In . SVG Version: 6.00 Build 0)  -->
<svg version="1.1" id="Capa_1" xmlns="http://www.w3.org/2000/svg" xmlns:xlink="http://www.w3.org/1999/xlink" x="0px" y="0px"
	 viewBox="0 0 51.361 51.361" style="enable-background:new 0 0 51.361 51.361;" xml:space="preserve">
<g>
	<g>
		<path d="M14.324,26.075c-0.883-0.765-2.834-1.871-3.142-2.24c-0.151-0.181-0.414-0.477-0.357-0.959
			c0.073-0.633,0.458-0.99,1.248-1.144c0.825-0.16,1.377,0.197,1.661,0.455c0.283,0.259,0.688,0.96,0.812,1.895h0.136v-2.88h-0.136
			c-0.036,0.297-0.123,0.407-0.251,0.48c-0.133,0.076-0.364,0.099-0.573,0c-0.208-0.098-0.823-0.528-1.635-0.528
			c-0.813,0-1.378,0.295-1.796,0.688c-0.418,0.394-0.615,0.984-0.615,1.502c0,0.603,0.287,0.979,0.518,1.241
			c0.175,0.199,0.8,0.693,1.487,1.15c0.545,0.362,1.121,0.737,1.525,1.002c0.646,0.422,0.714,0.873,0.742,1.185
			c0.076,0.858-0.624,1.555-1.265,1.655c-0.805,0.131-1.641-0.158-2.084-0.67c-0.271-0.312-0.708-0.858-0.831-1.795H9.633v3.039
			h0.135c0.037-0.298,0.135-0.457,0.295-0.556c0.137-0.084,0.367-0.092,0.542-0.022c0.289,0.108,1.083,0.603,2.005,0.603
			c0.812,0,1.418-0.336,1.845-0.722c0.444-0.397,0.762-1.181,0.731-1.696C15.136,26.935,14.78,26.467,14.324,26.075z"/>
	</g>
</g>
<g>
	<g>
		<path d="M7.825,22.181c0-0.381,0.338-0.737,0.781-0.737H9.03v-0.16H5.437v0.16h0.425c0.448,0,0.78,0.356,0.78,0.737v3.401H2.387
			v-3.401c0-0.381,0.343-0.737,0.78-0.737h0.424v-0.16H0v0.16h0.426c0.441,0,0.78,0.356,0.78,0.737v3.795v3.18
			c0,0.389-0.339,0.738-0.78,0.738H0v0.16h3.592v-0.16H3.168c-0.437,0-0.78-0.353-0.78-0.738c0,0,0.005-3.129,0-3.129h4.254
			c-0.006,0,0,3.129,0,3.129c0,0.395-0.338,0.738-0.78,0.738H5.437v0.16H9.03v-0.16H8.606c-0.438,0-0.781-0.353-0.781-0.738v-3.18
			V22.181z"/>
	</g>
</g>
<g>
	<g>
		<path d="M20.875,25.578c1.137-0.338,1.603-1.514,1.365-2.448c-0.307-1.205-1.6-1.586-2.042-1.672
			c-0.263-0.052-0.67-0.123-1.42-0.123c-0.928,0-2.227,0-3.119,0v0.16h0.518c0.325,0,0.7,0.282,0.7,0.7v7.004
			c0,0.416-0.376,0.693-0.704,0.693h-0.518v0.16c1.01,0,2.267,0.002,3.26,0.002c0.557,0,1.121,0.002,1.342-0.025
			c0.487-0.068,1.995-0.336,2.336-1.676C22.883,27.216,22.437,26.112,20.875,25.578z M20.442,22.119
			c0.381,0.267,0.603,0.653,0.688,1.07c0.142,0.695-0.126,1.479-0.896,1.968c-0.491,0.314-1.758,0.282-2.188,0.173l-0.001-3.482
			C18.608,21.675,19.692,21.59,20.442,22.119z M20.614,29.311c-0.806,0.58-1.962,0.434-2.569,0.246v-3.732
			c0.455-0.107,1.827-0.13,2.375,0.225C21.786,26.931,21.581,28.621,20.614,29.311z"/>
	</g>
</g>
<g>
	<g>
		<polygon points="33.833,25.672 38.214,30.056 38.214,21.291 		"/>
	</g>
</g>
<g>
	<g>
		<polygon points="42.597,25.672 38.216,30.054 46.979,30.054 		"/>
	</g>
</g>
<g>
	<g>
		<polygon points="46.979,21.291 46.979,30.054 51.361,25.672 		"/>
	</g>
</g>
<g>
	<g>
		<path d="M31.032,28.021c-1.157,1.557-2.672,1.591-3.36,1.485c-0.803-0.123-1.844-0.596-2.385-1.734
			c-0.669-1.402-0.42-3.063-0.026-4.035c0.32-0.79,0.96-1.611,2.204-1.832c0.825-0.148,1.522,0.113,1.989,0.408
			c0.281,0.178,0.476,0.378,0.58,0.477c0.357,0.345,0.64,0.874,0.726,1.623l0.18-0.006l-0.127-2.97h-0.15
			c0,0.289-0.139,0.437-0.312,0.511C30.181,22.021,30,22,29.685,21.819c-0.633-0.364-1.375-0.584-2.502-0.474
			c-1.507,0.147-2.651,1.132-3.198,2.121c-0.319,0.577-0.513,1.562-0.51,2.448c0.005,0.996,0.411,2.14,0.941,2.744
			c0.501,0.57,1.6,1.534,3.346,1.549c1.364,0.013,2.559-0.797,3.457-2.065L31.032,28.021z"/>
	</g>
</g>
<g>
	<g>
		<polygon points="38.214,21.29 42.597,25.672 46.979,21.29 		"/>
	</g>
</g>
<g>
</g>
<g>
</g>
<g>
</g>
<g>
</g>
<g>
</g>
<g>
</g>
<g>
</g>
<g>
</g>
<g>
</g>
<g>
</g>
<g>
</g>
<g>
</g>
<g>
</g>
<g>
</g>
<g>
</g>
</svg>
