<?xml version="1.0" encoding="iso-8859-1"?>
<!-- Generator: Adobe Illustrator 19.0.0, SVG Export Plug-In . SVG Version: 6.00 Build 0)  -->
<svg version="1.1" id="Capa_1" xmlns="http://www.w3.org/2000/svg" xmlns:xlink="http://www.w3.org/1999/xlink" x="0px" y="0px"
	 viewBox="0 0 54.051 54.051" style="enable-background:new 0 0 54.051 54.051;" xml:space="preserve">
<g>
	<g>
		<polygon points="50.9,23.223 50.9,23.512 51.371,23.512 51.368,24.79 51.714,24.79 51.714,23.512 52.183,23.512 52.183,23.223 		
			"/>
	</g>
</g>
<g>
	<g>
		<path d="M47.636,23.223v0.363h1.461l-2.02,5.846l-2.451-5.846h1.256v-0.363h-3.581v0.363h0.632l3.359,8.093
			c-0.102,0.357-0.211,0.695-0.326,1.015c-0.117,0.317-0.244,0.597-0.377,0.83c-0.135,0.233-0.275,0.419-0.43,0.552
			c-0.148,0.137-0.309,0.201-0.475,0.201c-0.136,0-0.269-0.062-0.396-0.184c-0.13-0.123-0.255-0.401-0.377-0.838l-0.453-1.625
			h-0.361v2.612c0.246,0.265,0.673,0.396,1.275,0.396c0.233,0,0.446-0.026,0.637-0.084c0.19-0.055,0.371-0.166,0.539-0.324
			c0.168-0.162,0.328-0.391,0.478-0.68c0.151-0.291,0.307-0.67,0.463-1.14l3.072-8.824h0.754v-0.363H47.636z"/>
	</g>
</g>
<g>
	<g>
		<path d="M42.445,31.197v-6.265c0-0.257-0.062-0.514-0.178-0.771c-0.114-0.257-0.3-0.486-0.552-0.687
			c-0.252-0.201-0.565-0.366-0.944-0.495c-0.378-0.128-0.832-0.193-1.355-0.193c-0.447,0-0.875,0.056-1.289,0.166
			c-0.412,0.109-0.833,0.253-1.271,0.431v2.715h0.361c0.201-0.581,0.383-1.063,0.537-1.449c0.16-0.385,0.318-0.687,0.48-0.904
			c0.16-0.218,0.346-0.373,0.545-0.462c0.201-0.09,0.449-0.133,0.74-0.133c0.446,0,0.8,0.114,1.065,0.343
			c0.26,0.228,0.396,0.611,0.396,1.147v1.761c-0.282,0.169-0.602,0.294-0.972,0.375c-0.361,0.084-0.732,0.158-1.113,0.225
			c-0.379,0.069-0.754,0.143-1.117,0.228c-0.364,0.085-0.688,0.212-0.979,0.386c-0.293,0.174-0.524,0.408-0.698,0.704
			c-0.173,0.297-0.259,0.691-0.259,1.183c0,0.738,0.231,1.311,0.703,1.717c0.467,0.408,1.082,0.613,1.844,0.613
			c0.6,0,1.128-0.164,1.574-0.479c0.447-0.32,0.771-0.741,0.972-1.267h0.045v1.472h2.268v-0.361H42.445z M40.98,28.117
			c0,0.928-0.191,1.676-0.572,2.242c-0.377,0.563-0.886,0.856-1.523,0.879c-0.45,0-0.787-0.13-1.016-0.387
			c-0.232-0.258-0.346-0.702-0.346-1.342c0-0.607,0.091-1.041,0.278-1.312c0.182-0.269,0.432-0.466,0.744-0.595
			c0.316-0.129,0.683-0.232,1.101-0.309c0.42-0.08,0.862-0.23,1.334-0.455V28.117z"/>
	</g>
</g>
<g>
	<g>
		<polygon points="53.567,23.223 53.215,24.301 53.211,24.301 52.844,23.223 52.363,23.223 52.363,24.79 52.685,24.79 
			52.685,23.689 52.687,23.689 53.074,24.79 53.34,24.79 53.725,23.678 53.731,23.678 53.731,24.79 54.051,24.79 54.051,23.223 		
			"/>
	</g>
</g>
<g>
	<g>
		<path d="M17.971,22.17c-0.415-0.495-1.229-0.851-1.981-0.851c-0.718,0-1.273,0.216-1.733,0.635
			c-0.511,0.463-0.79,1.02-0.779,1.844h5.135C18.616,22.818,18.188,22.426,17.971,22.17z"/>
	</g>
</g>
<g>
	<g>
		<path d="M52.431,38.102c-1.205-0.548-2.451-0.989-3.717-1.389c-2.213-0.705-4.457-1.281-6.739-1.695
			c-1.567-0.283-3.14-0.539-4.716-0.754c-1.262-0.172-2.539-0.285-3.813-0.385c-1.232-0.097-2.471-0.144-3.705-0.211
			c-0.221-0.014-0.443-0.023-0.668-0.035c-1.356,0-2.713,0-4.07,0c-0.037,0.005-0.075,0.021-0.113,0.022
			c-1.398,0.058-2.792,0.09-4.187,0.169c-0.808,0.047-1.612,0.121-2.416,0.188c4.002-1.011,6.966-4.631,6.966-8.948
			c0-0.502-0.051-0.991-0.127-1.472h0.044l2.847,8.211h0.838l1.739-4.957h0.033l1.676,4.957h0.873l2.945-8.211h0.366v-0.363h-2.239
			v0.363h1.368l-2.276,6.437h-0.032l-2.21-6.437h1.57v-0.363h-4.149v0.363h1.004l0.873,2.616l-1.308,3.821h-0.033l-2.249-6.439
			h1.071v-0.363h-2.809c-0.851-4.227-4.584-7.41-9.063-7.41c-5.104,0-9.242,4.138-9.242,9.244c0,4.974,3.93,9.02,8.854,9.226
			c-0.641,0.073-1.282,0.139-1.918,0.229c-2.407,0.338-4.791,0.785-7.143,1.4c-2.197,0.573-4.347,1.283-6.409,2.244
			C0.102,38.179,0.06,38.206,0,38.235c0.673-0.151,1.319-0.312,1.972-0.446c2.069-0.424,4.16-0.71,6.261-0.916
			c1.879-0.184,3.762-0.349,5.649-0.459c2.208-0.131,4.421-0.207,6.632-0.281c1.391-0.046,2.783-0.06,4.175-0.063
			c2.062-0.003,4.121,0.004,6.183,0.019c1.248,0.012,2.495,0.025,3.741,0.074c1.463,0.058,2.925,0.133,4.384,0.24
			c1.312,0.098,2.618,0.231,3.926,0.383c1.351,0.156,2.699,0.344,4.043,0.541c1.498,0.218,2.994,0.463,4.49,0.695
			c0.377,0.059,0.752,0.122,1.129,0.184C52.538,38.154,52.489,38.126,52.431,38.102z M11.472,29.997
			c-1.08-1.073-1.78-2.904-1.78-4.842c0-2.004,0.625-3.77,1.716-4.878c1.09-1.107,2.923-1.693,4.659-1.693
			c1.682,0,3.412,0.479,4.478,1.563c1.064,1.083,1.776,2.915,1.776,4.882c0,0.12,0.012,0.691,0.002,0.931h-8.968
			c0.011,1.289,0.241,1.606,0.699,2.092c0.438,0.466,1.057,0.849,2.104,0.849c0.777,0,1.212-0.056,1.492-0.258
			c0.543-0.396,0.67-0.573,0.9-1.121l3.635,0.049c-0.348,1.216-1.169,2.257-2.108,2.931c-0.94,0.672-2.431,1.039-3.891,1.039
			C14.346,31.541,12.546,31.068,11.472,29.997z"/>
	</g>
</g>
<g>
</g>
<g>
</g>
<g>
</g>
<g>
</g>
<g>
</g>
<g>
</g>
<g>
</g>
<g>
</g>
<g>
</g>
<g>
</g>
<g>
</g>
<g>
</g>
<g>
</g>
<g>
</g>
<g>
</g>
</svg>
