<?xml version="1.0" encoding="iso-8859-1"?>
<!-- Generator: Adobe Illustrator 19.0.0, SVG Export Plug-In . SVG Version: 6.00 Build 0)  -->
<svg version="1.1" id="Capa_1" xmlns="http://www.w3.org/2000/svg" xmlns:xlink="http://www.w3.org/1999/xlink" x="0px" y="0px"
	 viewBox="0 0 56.54 56.54" style="enable-background:new 0 0 56.54 56.54;" xml:space="preserve">
<g>
	<g>
		<path d="M10.45,24.769c-0.231-1.166-1.001-1.908-2.059-2.367c-0.891-0.385-1.829-0.486-2.795-0.447
			C4.521,22,3.5,22.238,2.572,22.781c-1.694,0.992-2.646,2.432-2.567,4.451c0.05,1.26,0.636,2.195,1.734,2.805
			c0.893,0.492,1.868,0.633,2.88,0.684c0.533-0.068,1.077-0.104,1.603-0.217c1.36-0.291,2.528-0.93,3.37-2.064
			C10.403,27.345,10.714,26.111,10.45,24.769z M5.184,29.23c-0.813,0.16-1.572,0.033-2.179-0.59
			c-0.472-0.488-0.611-1.096-0.562-1.748c0.063-0.805,0.309-1.553,0.79-2.209c0.663-0.904,1.537-1.428,2.387-1.453
			c1.452,0,2.251,0.617,2.423,1.746C8.301,26.687,7.366,28.802,5.184,29.23z"/>
	</g>
</g>
<g>
	<g>
		<path d="M31.522,22.787c-1.301-0.863-2.761-0.965-4.252-0.758c-0.612,0.086-1.218,0.174-1.84,0.17
			c-2.949-0.012-5.898-0.004-8.849-0.004c-0.589,0-1.169,0.076-1.733,0.24c-0.903,0.266-1.722,0.684-2.296,1.455
			c-0.595,0.803-0.786,1.676-0.295,2.604c0.253,0.479,0.678,0.787,1.151,1.029c0.207,0.105,0.427,0.193,0.634,0.285
			c-0.332,0.105-0.666,0.197-0.99,0.316c-0.372,0.133-0.723,0.314-1.002,0.604c-0.383,0.397-0.383,0.924,0.031,1.279
			c0.211,0.182,0.467,0.319,0.724,0.434c0.329,0.143,0.679,0.238,0.977,0.338c-0.467,0.094-0.978,0.18-1.482,0.299
			c-0.521,0.121-1.032,0.281-1.475,0.602c-0.315,0.229-0.491,0.521-0.44,0.928c0.037,0.3,0.194,0.529,0.404,0.729
			c0.375,0.363,0.835,0.58,1.321,0.744c1.33,0.442,2.701,0.558,4.095,0.511c0.666-0.023,1.322-0.095,1.969-0.246
			c0.759-0.177,1.483-0.439,2.082-0.966c0.764-0.668,0.711-1.709-0.008-2.312c-0.436-0.362-0.947-0.569-1.479-0.733
			c-1.092-0.336-2.229-0.453-3.346-0.666c-0.396-0.075-0.788-0.187-1.164-0.33c-0.267-0.103-0.272-0.348-0.03-0.503
			c0.149-0.096,0.321-0.183,0.494-0.211c0.747-0.129,1.495-0.25,2.246-0.348c0.757-0.1,1.499-0.242,2.196-0.564
			c0.633-0.287,1.196-0.672,1.573-1.271c0.529-0.838,0.616-1.934-0.151-2.75c-0.061-0.064-0.117-0.129-0.188-0.207
			c1.209,0,2.396,0,3.596,0c-0.172,0.188-0.335,0.354-0.482,0.529c-0.892,1.08-1.25,2.322-1.026,3.699
			c0.203,1.239,0.954,2.073,2.103,2.525c1.491,0.589,3.022,0.589,4.55,0.152c2.164-0.623,3.945-2.436,3.822-5.057
			C32.909,24.236,32.422,23.382,31.522,22.787z M15.769,31.273c0.261-0.037,0.547,0.062,0.813,0.133
			c0.429,0.113,0.853,0.244,1.273,0.387c0.16,0.059,0.312,0.156,0.449,0.26c0.278,0.211,0.29,0.478,0.041,0.725
			c-0.267,0.269-0.611,0.39-0.967,0.451c-0.487,0.084-0.981,0.129-1.324,0.172c-0.979-0.06-1.815-0.051-2.613-0.321
			c-0.204-0.069-0.407-0.17-0.582-0.295c-0.268-0.192-0.279-0.476-0.004-0.654c0.282-0.184,0.593-0.352,0.916-0.438
			C14.428,31.515,15.097,31.372,15.769,31.273z M18.492,26.111c-0.393,0.494-0.921,0.752-1.536,0.846
			c-0.165,0.023-0.332,0.035-0.451,0.047c-0.666-0.029-1.249-0.148-1.731-0.572c-0.552-0.484-0.657-1.227-0.239-1.83
			c0.441-0.637,1.077-0.957,1.832-1.061c0.537-0.076,1.051,0.002,1.541,0.23c0.547,0.254,0.905,0.666,0.945,1.285
			C18.878,25.449,18.733,25.804,18.492,26.111z M29.366,28.326c-0.64,0.635-1.432,0.943-2.086,0.957
			c-1.333,0.002-2.16-0.643-2.359-1.674c-0.135-0.689-0.004-1.361,0.253-2.002c0.442-1.113,1.191-1.922,2.369-2.27
			c0.51-0.148,1.028-0.164,1.542-0.008c0.807,0.242,1.277,0.811,1.39,1.621C30.652,26.244,30.297,27.392,29.366,28.326z"/>
	</g>
</g>
<g>
	<g>
		<path d="M56.522,24.968c-0.146-1.115-0.79-1.896-1.758-2.416c-0.901-0.486-1.873-0.639-2.892-0.6
			c-0.822,0.031-1.613,0.176-2.373,0.479c-1.226,0.492-2.233,1.258-2.805,2.477c-0.613,1.311-0.609,2.627,0.215,3.861
			c0.551,0.824,1.37,1.293,2.299,1.586c1.021,0.32,2.069,0.363,3.135,0.279c0.982-0.076,1.926-0.312,2.844-0.673
			c0.31-0.12,0.498-0.28,0.538-0.633c0.041-0.354,0.146-0.702,0.235-1.108c-0.129,0.055-0.197,0.086-0.27,0.111
			c-0.644,0.244-1.277,0.521-1.935,0.723c-1.031,0.317-2.086,0.401-3.141,0.108c-1.287-0.356-2.146-1.265-1.898-2.726
			c0.033-0.186,0.09-0.27,0.304-0.27c2.389,0.01,4.776,0.008,7.166,0.008c0.051,0,0.108,0.016,0.151-0.004
			c0.061-0.029,0.147-0.08,0.149-0.127C56.516,25.687,56.568,25.322,56.522,24.968z M53.973,25.058c-1.527,0-3.057,0-4.585,0
			c-0.062,0-0.127,0-0.226,0c0.549-1.033,1.33-1.65,2.482-1.758c0.479-0.045,0.938-0.02,1.393,0.123
			c0.652,0.207,1.051,0.652,1.182,1.328C54.271,25.019,54.242,25.058,53.973,25.058z"/>
	</g>
</g>
<g>
	<g>
		<path d="M43.577,22.443c-0.828-0.424-1.711-0.438-2.605-0.313c-0.981,0.139-1.862,0.539-2.674,1.1
			c-0.191,0.127-0.371,0.262-0.592,0.416c0.092-0.441,0.16-0.848,0.258-1.246c0.045-0.182-0.021-0.209-0.178-0.207
			c-0.593,0.004-1.186-0.002-1.781,0c-0.471,0.003-0.383-0.057-0.481,0.398c-0.476,2.227-0.943,4.453-1.418,6.678
			c-0.078,0.371-0.152,0.74-0.234,1.135c0.108,0.008,0.182,0.021,0.256,0.021c0.619,0,1.238-0.007,1.856,0.006
			c0.193,0.002,0.271-0.06,0.31-0.248c0.34-1.596,0.687-3.193,1.041-4.787c0.026-0.11,0.09-0.238,0.176-0.301
			c0.527-0.377,1.039-0.768,1.595-1.092c0.653-0.385,1.364-0.641,2.149-0.584c0.535,0.041,1.011,0.383,1.104,0.871
			c0.052,0.27,0.058,0.568,0.001,0.838c-0.297,1.455-0.625,2.904-0.938,4.356c-0.067,0.299-0.125,0.6-0.187,0.895
			c0.041,0.02,0.056,0.039,0.074,0.039c0.724,0.002,1.445,0.007,2.169,0c0.046,0,0.118-0.071,0.137-0.125
			c0.055-0.178,0.092-0.36,0.133-0.543c0.358-1.579,0.748-3.153,1.065-4.741C45.022,23.962,44.567,22.956,43.577,22.443z"/>
	</g>
</g>
<g>
</g>
<g>
</g>
<g>
</g>
<g>
</g>
<g>
</g>
<g>
</g>
<g>
</g>
<g>
</g>
<g>
</g>
<g>
</g>
<g>
</g>
<g>
</g>
<g>
</g>
<g>
</g>
<g>
</g>
</svg>
