<?xml version="1.0" encoding="iso-8859-1"?>
<!-- Generator: Adobe Illustrator 19.0.0, SVG Export Plug-In . SVG Version: 6.00 Build 0)  -->
<svg version="1.1" id="Capa_1" xmlns="http://www.w3.org/2000/svg" xmlns:xlink="http://www.w3.org/1999/xlink" x="0px" y="0px"
	 viewBox="0 0 52.109 52.109" style="enable-background:new 0 0 52.109 52.109;" xml:space="preserve">
<g>
	<g>
		<path d="M13.056,21.263c-0.812,0.009-1.622,0.009-2.432,0.001c-0.14-0.002-0.176,0.054-0.197,0.167
			c-0.221,1.188-0.444,2.37-0.668,3.554c-0.095,0.508-0.193,1.016-0.3,1.564c-0.03-0.095-0.048-0.146-0.063-0.198
			c-0.452-1.628-0.906-3.257-1.354-4.888c-0.039-0.146-0.096-0.201-0.256-0.199c-0.719,0.006-1.438-0.002-2.156-0.006
			c-0.05,0-0.1,0-0.15,0c-0.07,0-0.139,0.004-0.209,0.006c-0.016,0.051-0.037,0.104-0.052,0.154
			c-0.326,1.166-0.653,2.332-0.981,3.495c-0.147,0.528-0.294,1.052-0.456,1.624c-0.025-0.123-0.04-0.199-0.055-0.273
			C3.42,24.643,3.113,23.021,2.811,21.4c-0.02-0.108-0.067-0.135-0.171-0.135c-0.33,0.008-0.66,0.003-0.989,0.003
			c-0.499,0-1,0.005-1.499-0.003c-0.155-0.006-0.168,0.056-0.14,0.178c0.084,0.349,0.178,0.697,0.243,1.047
			c0.151,0.815,0.364,1.617,0.517,2.433c0.104,0.563,0.267,1.116,0.392,1.677c0.301,1.352,0.597,2.708,0.891,4.064
			c0.027,0.13,0.072,0.176,0.212,0.176c0.829-0.01,1.659-0.01,2.487,0c0.127,0,0.178-0.04,0.213-0.159
			c0.277-0.964,0.562-1.93,0.843-2.892c0.26-0.887,0.52-1.771,0.788-2.685c0.025,0.075,0.044,0.116,0.058,0.161
			c0.544,1.805,1.09,3.602,1.628,5.398c0.043,0.141,0.102,0.175,0.239,0.175c0.763-0.009,1.522-0.004,2.285-0.004
			c0.322,0,0.322,0,0.414-0.288c0.005-0.035,0.003-0.072,0.01-0.109c0.198-0.906,0.397-1.814,0.598-2.728
			c0.455-2.085,0.91-4.17,1.368-6.258C13.227,21.318,13.222,21.261,13.056,21.263z"/>
	</g>
</g>
<g>
	<g>
		<path d="M23.847,24.621c-0.386-1.558-1.3-2.647-2.868-3.092c-1.208-0.342-2.446-0.376-3.67-0.078
			c-1.456,0.353-2.493,1.235-3.028,2.634c-0.506,1.323-0.508,2.68,0.019,4.001c0.569,1.431,1.593,2.364,3.159,2.62
			c1.111,0.181,2.221,0.166,3.326-0.043c0.859-0.161,1.598-0.541,2.195-1.185c0.342-0.362,0.629-0.766,0.873-1.229
			c-0.95-0.087-1.878-0.158-2.801-0.275c-0.34-0.042-0.556,0.031-0.796,0.29c-0.712,0.765-1.988,0.653-2.563-0.194
			c-0.196-0.289-0.27-0.621-0.334-0.957c-0.029-0.158-0.002-0.19,0.159-0.19c1.629,0.004,3.256,0.002,4.884,0.002
			c0.493,0,0.988-0.002,1.48,0.002c0.108,0,0.164-0.013,0.164-0.146C24.048,26.055,24.021,25.33,23.847,24.621z M20.468,25.247
			c-0.494-0.011-0.986-0.002-1.479-0.002c-0.476,0-0.949,0-1.425,0c-0.222,0-0.225-0.003-0.191-0.229
			c0.064-0.433,0.196-0.834,0.494-1.177c0.642-0.742,2.155-0.697,2.574,0.485c0.087,0.242,0.136,0.491,0.181,0.744
			C20.644,25.199,20.618,25.248,20.468,25.247z"/>
	</g>
</g>
<g>
	<g>
		<path d="M33.784,23.344c-0.021-0.064-0.039-0.128-0.06-0.191c-0.213-0.707-0.621-1.252-1.292-1.589
			c-0.533-0.267-1.105-0.369-1.691-0.371c-1.66-0.008-3.317-0.003-4.974-0.008c-0.132,0-0.159,0.042-0.158,0.167
			c0.004,0.749,0.003,1.497,0.002,2.247c-0.002,0.669-0.006,1.339-0.008,2.011c0.004,0.072,0.009,0.146,0.009,0.218
			c0,1.631,0.002,3.266-0.003,4.897c0,0.154,0.043,0.19,0.191,0.19c0.937-0.008,1.876-0.008,2.814,0c0.146,0,0.185-0.04,0.185-0.184
			c-0.007-0.936-0.007-1.875-0.005-2.816c0-0.162-0.07-0.371,0.031-0.475c0.106-0.115,0.321-0.035,0.489-0.039
			c0.712-0.01,1.425,0.033,2.132-0.108c1.256-0.249,2.077-1.028,2.338-2.241C33.905,24.481,33.882,23.912,33.784,23.344z
			 M30.205,25.108c-0.43,0.155-0.879,0.101-1.321,0.109c-0.077,0-0.085-0.049-0.085-0.109c0-0.544,0.001-1.085-0.004-1.628
			c0-0.082,0.041-0.104,0.113-0.1c0.145,0.002,0.293,0,0.481,0c0.228-0.006,0.495,0,0.755,0.073c0.367,0.101,0.602,0.404,0.62,0.787
			C30.782,24.661,30.58,24.972,30.205,25.108z"/>
	</g>
</g>
<g>
	<g>
		<path d="M48.753,21.187c-0.123,0-0.191,0.038-0.258,0.15c-0.537,0.914-1.082,1.821-1.625,2.733
			c-0.032,0.053-0.049,0.122-0.129,0.159c-0.037-0.063-0.074-0.125-0.111-0.188c-0.538-0.905-1.077-1.809-1.611-2.718
			c-0.055-0.095-0.116-0.135-0.229-0.133c-0.512,0.006-1.023,0.003-1.537,0.003c-0.607,0-1.215,0-1.862,0
			c0.061,0.093,0.1,0.154,0.139,0.213c1.174,1.764,2.348,3.526,3.527,5.288c0.079,0.117,0.116,0.231,0.116,0.375
			c-0.006,1.218,0,2.437-0.006,3.654c-0.001,0.146,0.029,0.199,0.187,0.195c0.936-0.008,1.877-0.008,2.815,0
			c0.146,0,0.182-0.039,0.181-0.182c-0.005-1.238-0.002-2.476-0.004-3.714c0-0.106,0.019-0.196,0.081-0.291
			c0.999-1.498,1.996-2.999,2.994-4.5c0.224-0.34,0.451-0.68,0.688-1.041C50.972,21.19,49.863,21.193,48.753,21.187z"/>
	</g>
</g>
<g>
	<g>
		<path d="M43.233,30.736c-0.63-1.675-1.254-3.349-1.883-5.023c-0.024-0.065-0.044-0.139-0.065-0.206
			c-0.007-0.011-0.017-0.019-0.021-0.03c-0.517-1.379-1.035-2.757-1.547-4.136c-0.039-0.102-0.08-0.153-0.203-0.153
			c-1.021,0.005-2.047,0.005-3.068,0c-0.111,0-0.158,0.042-0.193,0.141c-0.788,2.097-1.553,4.203-2.369,6.287
			c-0.318,0.809-0.596,1.638-0.895,2.453c-0.102,0.276-0.209,0.552-0.318,0.855c0.904,0,1.781,0,2.656,0
			c0.162-0.002,0.318-0.014,0.476-0.008c0.096,0.006,0.138-0.028,0.164-0.123c0.118-0.425,0.255-0.851,0.37-1.278
			c0.039-0.134,0.1-0.169,0.229-0.165c0.915,0.005,1.828,0.005,2.742,0c0.138-0.004,0.202,0.034,0.24,0.176
			c0.113,0.413,0.25,0.825,0.365,1.239c0.035,0.125,0.096,0.153,0.219,0.153c0.995-0.004,1.987-0.008,2.979,0
			C43.274,30.918,43.285,30.879,43.233,30.736z M38.657,27.045c-0.47-0.008-0.938-0.006-1.408,0c-0.094,0-0.15-0.012-0.114-0.133
			c0.265-0.859,0.522-1.723,0.786-2.583c0.006-0.016,0.018-0.032,0.039-0.066c0.158,0.516,0.311,1.017,0.463,1.517
			c0.115,0.372,0.228,0.745,0.344,1.115C38.802,27.004,38.785,27.046,38.657,27.045z"/>
	</g>
</g>
<g>
</g>
<g>
</g>
<g>
</g>
<g>
</g>
<g>
</g>
<g>
</g>
<g>
</g>
<g>
</g>
<g>
</g>
<g>
</g>
<g>
</g>
<g>
</g>
<g>
</g>
<g>
</g>
<g>
</g>
</svg>
