<?xml version="1.0" encoding="iso-8859-1"?>
<!-- Generator: Adobe Illustrator 19.0.0, SVG Export Plug-In . SVG Version: 6.00 Build 0)  -->
<svg version="1.1" id="Capa_1" xmlns="http://www.w3.org/2000/svg" xmlns:xlink="http://www.w3.org/1999/xlink" x="0px" y="0px"
	 viewBox="0 0 36.2 36.2" style="enable-background:new 0 0 36.2 36.2;" xml:space="preserve">
<g>
	<g>
		<path d="M18.954,25.527c0.338,0,0.674,0,1.033,0c0.043-0.23,0.082-0.448,0.129-0.698C18.911,24.741,18.946,24.689,18.954,25.527z"
			/>
	</g>
</g>
<g>
	<g>
		<path d="M13.851,24.799c0.46,0.491,0.834,0.938,1.533,0.694c0.03-0.219,0.064-0.449,0.1-0.694
			C14.933,24.799,14.441,24.799,13.851,24.799z"/>
	</g>
</g>
<g>
	<g>
		<path d="M19.01,23.032c-0.016-0.104-0.028-0.197-0.04-0.295c-0.341,0-0.664,0-1.012,0c-0.144,0.293-0.288,0.588-0.453,0.93
			c0.985,0,1.854,0,2.78,0C19.969,23.133,19.489,23.085,19.01,23.032z"/>
	</g>
</g>
<g>
	<g>
		<path d="M17.719,23.894c-0.042,0.236-0.08,0.454-0.122,0.699c0.38,0,0.728,0,1.049,0c0.105-0.193,0.2-0.367,0.295-0.542
			c0.038,0.008,0.073,0.017,0.109,0.021c0.017,0.168,0.031,0.338,0.049,0.517c0.354,0,0.7,0,1.053,0
			c0.044-0.238,0.087-0.454,0.134-0.695C19.407,23.894,18.572,23.894,17.719,23.894z"/>
	</g>
</g>
<g>
	<g>
		<path d="M17.551,24.813c-0.045,0.229-0.083,0.438-0.13,0.701c0.383,0,0.74,0,1.11,0c0.035-0.247,0.068-0.464,0.104-0.701
			C18.245,24.813,17.901,24.813,17.551,24.813z"/>
	</g>
</g>
<g>
	<g>
		<path d="M15.952,25.506c1.079,0.081,1.042,0.138,1.124-0.675C16.124,24.661,16.074,24.69,15.952,25.506z"/>
	</g>
</g>
<g>
	<g>
		<path d="M15.632,26.446c0.943,0.146,1.028,0.096,1.177-0.669C15.923,25.599,15.797,25.671,15.632,26.446z"/>
	</g>
</g>
<g>
	<g>
		<path d="M13.73,25.739c0.459,0.551,0.912,0.939,1.616,0.697c0-0.23,0-0.459,0-0.697C14.805,25.739,14.304,25.739,13.73,25.739z"/>
	</g>
</g>
<g>
	<g>
		<path d="M13.803,23.911c0.229,0.203,0.404,0.323,0.534,0.479c0.305,0.365,0.714,0.244,1.061,0.187
			c0.128-0.021,0.196-0.4,0.314-0.666C15.048,23.911,14.474,23.911,13.803,23.911z"/>
	</g>
</g>
<g>
	<g>
		<path d="M16.178,24.566c0.945,0.185,1.039,0.134,1.134-0.632C16.378,23.73,16.273,23.788,16.178,24.566z"/>
	</g>
</g>
<g>
	<g>
		<path d="M11.707,27.134c-0.308-0.031-0.617-0.021-0.927-0.021c-1.061-0.002-2.119,0-3.209,0c0.066-0.166,0.114-0.281,0.185-0.455
			c-0.703,0.001-1.344,0.046-1.968-0.013c-0.612-0.061-0.943,0.198-1.148,0.747c2.514,0,5.016,0,7.52,0
			C12.028,27.246,11.87,27.152,11.707,27.134z"/>
	</g>
</g>
<g>
	<g>
		<path d="M18.564,27.39c0.382,0,0.728,0,1.084,0c0.043-0.242,0.083-0.46,0.123-0.68C18.735,26.522,18.682,26.553,18.564,27.39z"/>
	</g>
</g>
<g>
	<g>
		<path d="M8.171,28.352c-0.27-0.011-0.373,0.104-0.506,0.326c-0.574,0.967-1.184,1.914-1.784,2.865
			c-0.068,0.111-0.155,0.209-0.278,0.369c0.771,0,1.448,0.014,2.127-0.01c0.139-0.006,0.321-0.104,0.403-0.219
			c0.364-0.504,0.724-1.014,1.035-1.551c0.314-0.539,0.572-1.114,0.902-1.773C9.329,28.359,8.75,28.376,8.171,28.352z"/>
	</g>
</g>
<g>
	<g>
		<path d="M4.607,27.603c-0.076-0.002-0.181,0.021-0.228,0.076c-0.319,0.363-0.629,0.738-1.002,1.188c0.47,0,0.853,0,1.285,0
			c-0.543,1.221-1.435,2.09-2.36,3.047c0.836,0,1.581,0.002,2.325-0.004c0.073,0,0.163-0.051,0.217-0.104
			c0.948-0.985,1.713-2.097,2.316-3.362c-0.183-0.021-0.326-0.039-0.473-0.056c-0.005-0.058-0.01-0.117-0.015-0.175
			C7.808,27.598,9.065,28,10.31,27.857c-0.142,0.789-0.265,1.496-0.396,2.202c-0.171,0.904-0.173,0.904-1.068,0.988
			c-0.015,0-0.026,0.013-0.073,0.037c-0.043,0.248-0.092,0.521-0.142,0.806c1.047,0,2.061,0,3.093,0
			c0.255-1.42,0.506-2.817,0.772-4.29C9.781,27.6,7.194,27.6,4.607,27.603z"/>
	</g>
</g>
<g>
	<g>
		<path d="M11.288,23.893c-0.102,0.003-0.267,0.125-0.285,0.214c-0.05,0.253-0.199,0.266-0.399,0.264
			c-1.188-0.006-2.377-0.002-3.565-0.006c-0.085,0-0.173-0.027-0.293-0.05c0.118-0.157,0.203-0.271,0.313-0.424
			c-0.882,0-1.706,0-2.569,0c0.428,0.574,0.922,0.767,1.593,0.74c1.524-0.056,3.051-0.017,4.574-0.017c0.775,0,1.553,0,2.361,0
			c0.045-0.246,0.087-0.473,0.134-0.731C12.493,23.883,11.89,23.872,11.288,23.893z"/>
	</g>
</g>
<g>
	<g>
		<path d="M4.128,25.768c0.406,0.459,0.78,0.75,1.42,0.733c2.162-0.047,4.324-0.019,6.487-0.019
			c0.684,0.001,0.684,0.001,0.766-0.716C9.907,25.768,7.043,25.768,4.128,25.768z"/>
	</g>
</g>
<g>
	<g>
		<path d="M18.762,26.446c1.256,0.098,1.065,0.098,1.162-0.666C18.86,25.612,18.787,25.652,18.762,26.446z"/>
	</g>
</g>
<g>
	<g>
		<path d="M12.816,23.079c-0.173-0.127-0.397-0.179-0.686-0.181c-1.16,0.009-2.266,0.009-3.485,0.007
			c-0.285,0.006-0.569,0.027-0.859,0.059c-0.291,0.029-0.589,0.063-0.896,0.091c-0.012-0.058-0.038-0.183-0.06-0.293
			c-0.609-0.007-1.217-0.015-1.824-0.019c-0.18,0.002-0.358,0.004-0.541,0.008c0.17,0.183,0.333,0.334,0.473,0.506
			c0.3,0.38,0.692,0.482,1.158,0.455l7.111,0.012C13.114,23.411,12.988,23.204,12.816,23.079z"/>
	</g>
</g>
<g>
	<g>
		<path d="M15.983,28.508c0.062-0.32,0.114-0.604,0.168-0.895c-0.609,0-1.174,0-1.786,0c0.113,0.922-0.461,1.022-1.153,0.916
			c-0.049,0.267-0.087,0.471-0.135,0.726c0.306,0,0.567,0,0.948,0c-0.454,0.936-0.87,1.788-1.29,2.655
			c0.484,0,0.978,0.019,1.469-0.01c0.14-0.008,0.331-0.109,0.397-0.227c0.326-0.576,0.671-1.151,0.902-1.768
			c0.176-0.453,0.321-0.806,0.925-0.625c0.04-0.269,0.073-0.482,0.109-0.725C16.341,28.537,16.189,28.527,15.983,28.508z"/>
	</g>
</g>
<g>
	<g>
		<path d="M4.334,24.818c0.49,0.781,1.205,0.823,1.99,0.68c0.026-0.128,0.053-0.259,0.081-0.396c1.467,0,2.903,0,4.363,0
			c0,0.157,0,0.285,0,0.428c0.702,0,1.378,0,2.089,0c0.043-0.226,0.085-0.441,0.138-0.712C10.072,24.818,7.203,24.818,4.334,24.818z
			"/>
	</g>
</g>
<g>
	<g>
		<path d="M17.649,25.733c-0.082,0.001-0.165,0.02-0.283,0.031c-0.038,0.253-0.071,0.465-0.106,0.7c0.395,0,0.742,0,1.099,0
			c0.039-0.249,0.072-0.475,0.112-0.732C18.155,25.732,17.902,25.73,17.649,25.733z"/>
	</g>
</g>
<g>
	<g>
		<path d="M34.45,4.269c-10.888,0-21.777,0-32.664,0C0.744,4.269,0.255,5.121,0,6.055c0,4.111,0,8.222,0,12.334
			c0,0.881,0.827,1.57,1.821,1.743c0.166,0.028,0.338,0.032,0.506,0.032c10.53,0.002,21.062,0.002,31.591,0.002
			c1.378,0,2.281-0.905,2.281-2.291c0.002-3.643,0-7.284,0-10.927C36.199,5.354,35.925,4.269,34.45,4.269z M24.919,7.817
			c0.235-0.672,0.701-1.118,1.423-1.256c0.151-0.03,0.311-0.033,0.463-0.033c2.278-0.002,4.559-0.001,6.837,0
			c0.123,0,0.248,0.016,0.418,0.028c0,0.698,0.01,1.374-0.017,2.048c-0.004,0.083-0.221,0.223-0.342,0.225
			c-0.949,0.019-1.898,0.011-2.845,0.011c-1.485,0-2.973,0-4.459,0c-0.825,0-0.922,0.07-1.196,0.954
			C24.728,9.139,24.684,8.489,24.919,7.817z M1.964,9.353c0.47,1,0.47,1,1.408,1.664c-0.175,0.115-0.35,0.222-0.513,0.342
			c-0.172,0.126-0.333,0.265-0.524,0.419C1.631,11.204,1.452,10.114,1.964,9.353z M8.791,11.081
			c-0.184,0.364-0.414,0.679-0.52,1.043c-0.111,0.372-0.101,0.779-0.153,1.247c-0.111,0-0.26,0-0.406,0c-1.148,0-2.294,0-3.44,0
			C3.24,13.37,3.107,13.465,2.746,14.53c-0.381-0.778-0.406-1.49-0.076-2.19c0.34-0.723,0.908-1.234,1.73-1.259H8.791z
			 M8.605,10.621c0-0.294,0-0.559,0-0.861c0.304,0.292,0.59,0.563,0.9,0.861C9.21,10.621,8.929,10.621,8.605,10.621z M11.964,17.795
			c-0.191,0-0.357,0-0.522,0c-2.334-0.002-4.669-0.002-7.002-0.002c-1.253,0-2.16-0.642-2.548-1.842
			c-0.233-0.727-0.233-1.466,0.02-2.297c0.085,0.209,0.135,0.333,0.182,0.458c0.376,0.978,0.952,1.376,1.996,1.376
			c2.465,0,4.927,0,7.391,0c0.151,0,0.304,0,0.484,0C11.965,16.284,11.965,17.013,11.964,17.795z M11.97,13.369
			c-0.454,0-0.901,0-1.348,0c-1.146,0-1.326,0.093-1.973,1.051c0-0.725-0.066-1.42,0.017-2.098c0.095-0.803,0.702-1.256,1.505-1.258
			c0.591-0.001,1.185,0,1.799,0C11.97,11.835,11.97,12.566,11.97,13.369z M11.477,8.841c-2.396,0-4.792,0-7.187,0
			c-0.979,0-1.104,0.095-1.347,1.033C2.629,9.672,2.439,9.187,2.491,8.662c0.104-1.068,0.968-2.173,2.316-2.147
			C7.03,6.56,9.256,6.527,11.481,6.527c0.151,0,0.305,0,0.498,0c0,0.806,0,1.527,0.001,2.314C11.805,8.841,11.64,8.841,11.477,8.841
			z M14.712,17.78c-0.794,0-1.514,0-2.275,0c-0.009-0.123-0.026-0.244-0.026-0.365c-0.002-2.848-0.007-5.698,0-8.546
			c0.005-1.455,1.262-2.554,2.705-2.387c0.123,0.013,0.239,0.064,0.397,0.109c-0.068,0.104-0.104,0.176-0.156,0.234
			c-0.448,0.494-0.651,1.069-0.649,1.743c0.012,2.875,0.005,5.749,0.005,8.623C14.713,17.371,14.713,17.554,14.712,17.78z
			 M17.137,6.522c1.332,0.036,2.665-0.006,3.998,0.011c1.547,0.019,2.623,1.811,1.934,3.2c-0.039,0.081-0.105,0.15-0.201,0.283
			c-0.047-0.202-0.07-0.336-0.109-0.464c-0.159-0.498-0.409-0.704-0.93-0.706c-1.899-0.008-3.799-0.02-5.695,0.014
			c-0.3,0.005-0.596,0.239-0.879,0.362C14.89,7.693,15.609,6.478,17.137,6.522z M21.072,13.353
			c-1.898,0.063-3.798,0.013-5.698,0.011c-0.04,0-0.08-0.017-0.151-0.034c0-0.739,0-1.479,0-2.266c0.166,0,0.318,0,0.471,0
			c1.828,0,3.656-0.001,5.486,0c1.545,0.002,1.961-0.276,2.539-1.732C24.381,11.187,23.006,13.29,21.072,13.353z M24.355,9.386
			c0.268,0.356,0.494,0.718,0.781,1.018c0.428,0.443,0.973,0.663,1.602,0.661c1.77-0.005,3.54-0.013,5.311,0.002
			c1.498,0.013,2.521,1.636,1.916,3.006c-0.047,0.098-0.113,0.187-0.205,0.339c-0.061-0.141-0.1-0.222-0.127-0.306
			c-0.18-0.499-0.535-0.737-1.066-0.737c-1.54,0.003-3.084,0.008-4.627-0.004c-0.832-0.007-1.631-0.181-2.344-0.633
			C24.405,11.978,23.991,10.845,24.355,9.386z M34.193,16.795c-0.621,0.635-1.354,1.004-2.262,1
			c-2.312-0.006-4.619-0.002-6.93-0.002c-0.139,0-0.278,0-0.457,0c0-0.797,0-1.528,0-2.305c0.176,0,0.33,0,0.479,0
			c2.327,0,4.653-0.044,6.973,0.017c1.307,0.035,2.229-0.393,2.695-1.673C35.095,14.809,34.893,16.077,34.193,16.795z"/>
	</g>
</g>
<g>
	<g>
		<path d="M17.212,26.69c-0.045,0.25-0.085,0.467-0.128,0.707c0.383,0,0.732,0,1.097,0c0.043-0.234,0.082-0.449,0.13-0.707
			C17.905,26.69,17.559,26.69,17.212,26.69z"/>
	</g>
</g>
<g>
	<g>
		<path d="M20.51,25.521c0.31,0,0.611,0,0.928,0c0.015-0.244,0.027-0.464,0.041-0.682C20.489,24.722,20.31,24.693,20.51,25.521z"/>
	</g>
</g>
<g>
	<g>
		<path d="M23.048,23.038c-0.018-0.112-0.034-0.209-0.054-0.359h-1.611c-0.002,0-0.008,0-0.012,0l-0.102,0.359
			c-0.029,0.041-0.162,0.017-0.244,0.018c-0.15,0.002-0.301,0-0.467,0c-0.037,0.232-0.064,0.409-0.104,0.646
			c0.889,0,1.744-0.002,2.598,0c0.576,0,0.576,0.002,0.615-0.629C23.464,23.061,23.255,23.052,23.048,23.038z"/>
	</g>
</g>
<g>
	<g>
		<path d="M20.6,23.902c-0.039,0.236-0.074,0.44-0.117,0.692c0.378,0,0.691,0,1.017,0c0.041-0.238,0.078-0.455,0.119-0.692
			C21.258,23.902,20.934,23.902,20.6,23.902z"/>
	</g>
</g>
<g>
	<g>
		<path d="M21.421,25.756c-0.335,0-0.635,0-0.973,0c0.022,0.254,0.045,0.473,0.067,0.706c0.342,0,0.658,0,1.008,0
			C21.487,26.202,21.454,25.977,21.421,25.756z"/>
	</g>
</g>
<g>
	<g>
		<path d="M29.91,24.19c0-0.046,0.004-0.092,0.004-0.138c1.312,0,2.619,0,3.929,0c0-0.047-0.002-0.096-0.004-0.143
			c-2.951,0.002-5.905,0.002-8.861,0.002c-0.002,0.054-0.004,0.105-0.008,0.158c0.912,0,1.824,0,2.736,0
			c-0.002,0.064-0.006,0.129-0.006,0.194c-1.041,0-2.08,0-3.123,0c-0.016,0.056-0.025,0.108-0.039,0.163
			c0.221,0.062,0.438,0.18,0.656,0.181c2.402,0.013,4.801,0.009,7.2,0.007c0.135,0,0.268-0.013,0.397-0.02
			c0.007-0.045,0.011-0.09,0.013-0.135C31.894,23.988,30.859,24.414,29.91,24.19z"/>
	</g>
</g>
<g>
	<g>
		<path d="M32.493,28.493c0.043-0.873,0.022-0.894-0.801-0.896c-1.881,0.002-3.76,0-5.641,0c-0.726,0-1.449,0-2.175,0
			c-0.006,0.053-0.018,0.104-0.026,0.158c0.18,0.051,0.356,0.147,0.541,0.151c0.875,0.017,1.752,0.006,2.672,0.006
			c-0.051,0.229-0.088,0.412-0.133,0.627c-1.168,0-2.304,0-3.476,0c-0.037,0.246-0.066,0.46-0.101,0.731c1.179,0,2.3,0,3.425,0
			c-0.069,0.759-0.069,0.759-0.757,0.759c-0.752,0-1.504,0-2.256,0c-0.639,0-0.639,0-0.67,0.719c1.14,0,2.277,0,3.484,0
			c-0.24,0.57-0.742,0.177-1.049,0.412c-0.039,0.22-0.084,0.463-0.135,0.725c1.061,0,2.072,0,3.088,0
			c0.072-0.382,0.141-0.743,0.217-1.146c1.125,0,2.237,0,3.344,0c0.097-0.516,0.189-0.982,0.279-1.457
			c0.225-0.02,0.412-0.035,0.625-0.054c0.031-0.231,0.061-0.438,0.09-0.662C32.833,28.54,32.661,28.514,32.493,28.493z
			 M28.836,29.995c0.043-0.232,0.082-0.457,0.129-0.715c0.41,0,0.773,0,1.137,0C29.996,30.136,30.234,30.071,28.836,29.995z
			 M30.276,28.51c-0.389,0-0.762,0-1.168,0c0.032-0.204,0.061-0.378,0.094-0.573c0.383,0,0.762,0,1.174,0
			C30.344,28.134,30.313,28.31,30.276,28.51z"/>
	</g>
</g>
<g>
	<g>
		<path d="M33.521,23.058c-1.004-0.002-2.01,0.006-3.014-0.011c-0.16-0.005-0.322-0.128-0.479-0.193
			c-0.002-0.032-0.002-0.119-0.002-0.119c-0.681,0.087-1.361-0.085-2.017,0.054c-0.055,0.389-0.35,0.263-0.562,0.266
			c-0.779,0.01-1.562,0.003-2.338,0.003c-0.349,0-0.691,0-1.037,0c0.299,0.338,0.514,0.671,1.024,0.662
			c2.207-0.036,4.414-0.021,6.618-0.024c0.728-0.002,1.455,0,2.18,0c0.039-0.221,0.066-0.387,0.111-0.638
			C33.827,23.058,33.675,23.058,33.521,23.058z"/>
	</g>
</g>
<g>
	<g>
		<path d="M32.433,24.788c-2.5,0-5-0.002-7.497-0.002c-0.145,0-0.285,0.016-0.434,0.021c0.379,0.703,0.971,0.803,1.645,0.743
			c0.259-0.022,0.476-0.032,0.685-0.233c0.076-0.07,0.156-0.365,0.156-0.365l0.582,0.008c-0.031,0.27-0.046,0.406-0.066,0.584
			c0.607,0,1.201-0.008,1.794,0.003c0.096,0.003,0.396,0,0.396,0l0.044-0.513h1.146c-0.014,0.191-0.021,0.328-0.031,0.487
			c0.722,0,1.422,0,2.121,0C33.156,24.812,33.136,24.788,32.433,24.788z"/>
	</g>
</g>
<g>
	<g>
		<path d="M22.497,23.894c-0.049,0.224-0.097,0.437-0.149,0.677c1.045,0.144,1.141,0.088,1.17-0.677
			C23.186,23.894,22.854,23.894,22.497,23.894z"/>
	</g>
</g>
<g>
	<g>
		<path d="M13.22,26.688c0.245,0.305,0.517,0.669,0.822,0.697c0.893,0.082,1.798,0.028,2.71,0.028
			c0.047-0.258,0.085-0.477,0.13-0.725C15.615,26.688,14.417,26.688,13.22,26.688z"/>
	</g>
</g>
<g>
	<g>
		<path d="M18.998,27.598c-0.399-0.063-0.524,0.103-0.584,0.489c-0.146,0.99-0.352,1.971-0.534,2.953c-0.238,0-0.441,0-0.671,0
			c0.459-1.11,0.78-2.227,0.91-3.424c-0.381,0-0.716,0-1.085,0c-0.248,1.531-0.564,3.03-1.651,4.281
			c0.739-0.001,1.517,0.276,1.801-0.718c0,0.229,0,0.459,0,0.729c0.437,0,0.857-0.015,1.277,0.004
			c0.272,0.014,0.399-0.051,0.442-0.354c0.108-0.729,0.271-1.443,0.399-2.167c0.104-0.588,0.196-1.179,0.3-1.793
			C19.362,27.602,19.175,27.624,18.998,27.598z"/>
	</g>
</g>
<g>
	<g>
		<path d="M21.84,28.515c0.049-0.313,0.088-0.589,0.135-0.914c-0.237,0-0.432,0-0.625,0c-0.887-0.003-0.887-0.003-1.117,0.821
			c-0.008,0.024-0.028,0.047-0.043,0.067c-0.598,0.088-0.618,0.114-0.588,0.748c0.138,0.012,0.276,0.023,0.483,0.041
			c-0.155,0.883-0.307,1.734-0.467,2.631c0.432,0,0.812-0.023,1.189,0.006c0.332,0.027,0.436-0.102,0.481-0.416
			c0.113-0.748,0.271-1.488,0.416-2.262c0.324,0,0.604,0,0.896,0c0.041-0.25,0.074-0.461,0.111-0.722
			C22.393,28.515,22.127,28.515,21.84,28.515z"/>
	</g>
</g>
<g>
	<g>
		<path d="M21.662,26.454c0.992,0.123,1.102,0.068,1.307-0.688C21.775,25.704,22.051,25.597,21.662,26.454z"/>
	</g>
</g>
<g>
	<g>
		<path d="M16.921,23.038c-0.015-0.111-0.029-0.209-0.039-0.311c-0.076,0.001-0.149,0-0.22-0.001
			c-0.303,0.009-0.607,0.018-0.91,0.023c-0.118,0.021-0.241,0.054-0.366,0.104c-0.115,0.062-0.227,0.188-0.343,0.194
			c-0.456,0.022-0.911,0.009-1.367,0.009c-0.013,0.038-0.024,0.075-0.033,0.111c0.225,0.178,0.439,0.492,0.673,0.505
			c1.017,0.057,2.037,0.024,3.069,0.024c0.036-0.22,0.062-0.396,0.1-0.623C17.26,23.059,17.095,23.051,16.921,23.038z"/>
	</g>
</g>
<g>
	<g>
		<path d="M20.394,26.669c-0.108,0.003-0.252,0.142-0.309,0.253c-0.062,0.13-0.049,0.299-0.074,0.491c0.922,0,1.82,0.006,2.726-0.01
			c0.08,0,0.19-0.132,0.228-0.227c0.057-0.139,0.057-0.301,0.09-0.518C22.139,26.661,21.266,26.649,20.394,26.669z"/>
	</g>
</g>
<g>
	<g>
		<path d="M23.12,24.79c-0.267-0.002-0.53,0-0.826,0c-0.071,0.242-0.141,0.478-0.213,0.721c1.167,0.062,1.072,0.164,1.197-0.693
			C23.224,24.808,23.174,24.792,23.12,24.79z"/>
	</g>
</g>
<g>
	<g>
		<path d="M30.834,25.733l-0.032,0.27l-1.146-0.012l-0.009-0.289l-2.16-0.002l-0.185,0.312c-0.026,0.036-0.137,0.012-0.207,0.013
			c-0.199,0.002-0.396,0.002-0.594,0.002c-0.059-0.151-0.156-0.284-0.256-0.286c-0.658-0.02-1.32-0.011-2.1-0.011
			c0.488,0.433,0.807,0.8,1.465,0.777c1.826-0.061,3.652-0.024,5.475-0.024c0.576,0,1.152,0,1.738,0
			c0.041-0.266,0.076-0.482,0.115-0.756C32.252,25.727,30.834,25.733,30.834,25.733z"/>
	</g>
</g>
<g>
	<g>
		<path d="M29.722,26.904c0.865,0.002,1.729,0.002,2.597,0c0.141,0,0.284-0.019,0.473-0.033c-0.226-0.237-6.919-0.312-7.617-0.101
			c0.733,0.265,1.403,0.037,2.021,0.175c0.084,0.364-0.175,0.314-0.358,0.315c-0.945,0.004-1.893-0.002-2.84-0.002
			c-0.174,0-0.346,0.014-0.518,0.021c0.004,0.033,0.004,0.066,0.006,0.1c2.836,0,5.672,0,8.505,0
			c0.004-0.029,0.008-0.061,0.014-0.092c-0.881,0-1.756,0-2.625,0C29.31,26.895,29.515,26.904,29.722,26.904z"/>
	</g>
</g>
<g>
</g>
<g>
</g>
<g>
</g>
<g>
</g>
<g>
</g>
<g>
</g>
<g>
</g>
<g>
</g>
<g>
</g>
<g>
</g>
<g>
</g>
<g>
</g>
<g>
</g>
<g>
</g>
<g>
</g>
</svg>
