<?xml version="1.0" encoding="iso-8859-1"?>
<!-- Generator: Adobe Illustrator 19.0.0, SVG Export Plug-In . SVG Version: 6.00 Build 0)  -->
<svg version="1.1" id="Capa_1" xmlns="http://www.w3.org/2000/svg" xmlns:xlink="http://www.w3.org/1999/xlink" x="0px" y="0px"
	 viewBox="0 0 51.119 51.119" style="enable-background:new 0 0 51.119 51.119;" xml:space="preserve">
<g>
	<g>
		<path d="M24.114,27.832c-0.064,0.03-0.112,0.05-0.156,0.075c-0.505,0.282-1.047,0.409-1.624,0.385
			c-0.637-0.025-1.146-0.293-1.457-0.854c-0.466-0.843-0.482-1.746-0.24-2.653c0.248-0.929,0.913-1.401,1.875-1.376
			c0.534,0.014,1.031,0.164,1.501,0.459c0.229-0.486,0.453-0.957,0.684-1.445c-0.108-0.059-0.203-0.115-0.301-0.164
			c-0.916-0.455-1.888-0.536-2.878-0.38c-1.439,0.227-2.489,0.987-2.99,2.384c-0.368,1.021-0.368,2.071-0.038,3.108
			c0.364,1.146,1.124,1.926,2.26,2.317c0.884,0.304,1.789,0.306,2.697,0.109c0.471-0.1,0.907-0.283,1.309-0.574
			C24.54,28.754,24.329,28.3,24.114,27.832z"/>
	</g>
</g>
<g>
	<g>
		<path d="M17.467,26.354c0.048-0.715,0.051-1.396-0.108-2.066c-0.235-0.998-0.746-1.787-1.722-2.203
			c-0.598-0.256-1.228-0.317-1.869-0.256c-1.43,0.135-2.477,0.839-3.085,2.146c-0.431,0.923-0.473,1.904-0.283,2.888
			c0.29,1.5,1.154,2.504,2.649,2.903c0.863,0.23,1.739,0.202,2.611,0.037c0.565-0.106,1.087-0.323,1.581-0.625
			c-0.23-0.458-0.451-0.902-0.678-1.354c-0.096,0.045-0.184,0.086-0.271,0.129c-0.68,0.338-1.396,0.475-2.154,0.379
			c-0.908-0.116-1.672-1.071-1.558-1.978C14.201,26.354,15.826,26.354,17.467,26.354z M12.555,24.907
			c0.085-0.548,0.239-1.053,0.728-1.357c0.492-0.304,1.02-0.325,1.532-0.037c0.403,0.228,0.652,0.818,0.604,1.396
			C14.468,24.909,13.527,24.909,12.555,24.907z"/>
	</g>
</g>
<g>
	<g>
		<path d="M9.409,28.737c-0.683-1.032-1.358-2.073-2.059-3.093c-0.238-0.349-0.544-0.647-0.82-0.97
			c0.059-0.015,0.133-0.032,0.207-0.052c1.073-0.281,1.876-0.883,2.287-1.942c0.225-0.579,0.274-1.185,0.222-1.798
			c-0.11-1.296-0.701-2.29-1.93-2.783c-1.465-0.588-2.965-0.538-4.438-0.011c-0.912,0.325-1.475,1.002-1.684,1.95
			c-0.068,0.311-0.087,0.632-0.132,0.971c-0.329,0-0.665,0-1.062,0c0.797,0.666,1.549,1.295,2.307,1.929
			c0.753-0.641,1.491-1.27,2.229-1.899c-0.007-0.015-0.015-0.029-0.022-0.045c-0.417,0-0.834,0-1.249,0
			c-0.035-0.624,0.243-1.048,0.817-1.229c0.567-0.179,1.151-0.199,1.731-0.088c0.628,0.12,0.999,0.515,1.113,1.146
			c0.024,0.136,0.041,0.272,0.052,0.408c0.074,0.881-0.349,1.613-1.125,1.959c-0.361,0.162-0.744,0.209-1.133,0.21
			c-1.13,0.002-2.259,0-3.388,0c-0.078,0-0.156,0-0.247,0c0,2.131,0,4.242,0,6.374c0.753,0,1.49,0,2.254,0c0-1.582,0-3.152,0-4.71
			c0.608-0.107,1.089,0.075,1.457,0.534c0.246,0.306,0.493,0.612,0.708,0.94c0.669,1.021,1.325,2.049,1.979,3.078
			c0.081,0.131,0.167,0.174,0.315,0.17c0.696-0.006,1.392-0.002,2.088-0.002c0.057,0,0.112,0,0.211,0
			C9.853,29.411,9.633,29.073,9.409,28.737z"/>
	</g>
</g>
<g>
	<g>
		<path d="M32.616,27.989c-0.021-1.916-0.011-3.833-0.013-5.751c0-0.077,0-0.153,0-0.238c-0.715,0-1.406,0-2.119,0
			c0,0.086,0,0.164,0,0.241c0,1.588,0,3.177-0.002,4.765c0,0.079,0.008,0.176-0.035,0.226c-0.373,0.466-0.809,0.851-1.43,0.935
			c-0.608,0.081-1.031-0.21-1.129-0.771c-0.023-0.135-0.027-0.273-0.027-0.412c-0.002-1.577,0-3.152,0-4.728
			c0-0.083,0-0.166,0-0.255c-0.712,0-1.399,0-2.107,0c0,0.086,0,0.164,0,0.241c0,1.688-0.001,3.373,0.002,5.061
			c0,0.244,0.015,0.486,0.04,0.728c0.096,0.889,0.64,1.594,1.433,1.785c1.209,0.294,2.272,0.016,3.147-0.893
			c0.056-0.057,0.113-0.117,0.179-0.188c0.054,0.352,0.106,0.678,0.157,0.999c0.718,0,1.398,0,2.054,0
			C32.716,29.147,32.622,28.569,32.616,27.989z"/>
	</g>
</g>
<g>
	<g>
		<path d="M40.361,18.308c0,3.815,0,7.616,0,11.421c0.713,0,1.406,0,2.113,0c0-3.821,0-7.62,0-11.421
			C41.761,18.308,41.062,18.308,40.361,18.308z"/>
	</g>
</g>
<g>
	<g>
		<path d="M50.897,21.996c-0.562,0.003-1.125,0.009-1.69-0.001c-0.162-0.004-0.229,0.05-0.271,0.201
			c-0.483,1.583-0.973,3.163-1.461,4.744c-0.02,0.062-0.051,0.121-0.102,0.241c-0.055-0.114-0.084-0.168-0.104-0.226
			c-0.148-0.438-0.299-0.881-0.445-1.318c-0.389-1.154-0.773-2.308-1.168-3.46c-0.023-0.069-0.107-0.169-0.164-0.17
			c-0.695-0.012-1.393-0.008-2.109-0.008c0.033,0.097,0.061,0.177,0.09,0.254c0.916,2.391,1.832,4.782,2.742,7.172
			c0.029,0.073,0.055,0.172,0.029,0.239c-0.135,0.384-0.271,0.767-0.436,1.138c-0.197,0.448-0.529,0.763-1.021,0.878
			c-0.379,0.089-0.765,0.068-1.147,0.025c-0.06-0.008-0.172,0.035-0.179,0.069c-0.101,0.505-0.187,1.013-0.276,1.53
			c0.09,0.021,0.164,0.043,0.239,0.059c0.525,0.096,1.054,0.103,1.584,0.039c0.722-0.086,1.353-0.351,1.854-0.888
			c0.478-0.507,0.773-1.121,1.015-1.762l3.242-8.756C51.039,21.996,50.97,21.996,50.897,21.996z"/>
	</g>
</g>
<g>
	<g>
		<path d="M36.377,22.958c0-0.319,0-0.638,0-0.954c-0.711,0-1.403,0-2.101,0c0,2.582,0,5.152,0,7.73c0.701,0,1.39,0,2.107,0
			c0-0.082,0-0.152,0-0.225c0-1.497,0-2.992,0.002-4.489c0-0.071-0.01-0.155,0.023-0.211c0.303-0.52,0.693-0.941,1.305-1.09
			c0.393-0.096,0.775-0.047,1.164,0.118c0.168-0.618,0.334-1.22,0.508-1.845C38.131,21.568,37.138,21.868,36.377,22.958z"/>
	</g>
</g>
<g>
</g>
<g>
</g>
<g>
</g>
<g>
</g>
<g>
</g>
<g>
</g>
<g>
</g>
<g>
</g>
<g>
</g>
<g>
</g>
<g>
</g>
<g>
</g>
<g>
</g>
<g>
</g>
<g>
</g>
</svg>
