<?xml version="1.0" encoding="iso-8859-1"?>
<!-- Generator: Adobe Illustrator 19.0.0, SVG Export Plug-In . SVG Version: 6.00 Build 0)  -->
<svg version="1.1" id="Capa_1" xmlns="http://www.w3.org/2000/svg" xmlns:xlink="http://www.w3.org/1999/xlink" x="0px" y="0px"
	 viewBox="0 0 49.946 49.946" style="enable-background:new 0 0 49.946 49.946;" xml:space="preserve">
<g>
	<g>
		<path d="M11.478,23.848c-0.334-0.095-0.674-0.094-1.012-0.029c-0.395,0.077-0.682,0.294-0.67,0.826
			c0.014,0.608,0.003,1.218,0.003,1.823c0,0.631,0,1.263,0,1.895c0.001,0.393,0.181,0.633,0.56,0.738
			c0.337,0.096,0.681,0.098,1.021,0.021c0.445-0.096,0.63-0.338,0.63-0.793c0-1.256,0-2.512,0-3.768
			C12.01,24.19,11.835,23.95,11.478,23.848z"/>
	</g>
</g>
<g>
	<g>
		<path d="M8.534,21.383c-0.087-0.423-0.279-0.572-0.71-0.572c-1.802,0-3.604,0-5.407,0c-0.584,0-1.168-0.001-1.751,0
			c-0.319,0.001-0.517,0.152-0.608,0.459C0.037,21.338,0.019,21.409,0,21.478c0,0.183,0,0.365,0,0.547
			c0.037,0.035,0.03,0.086,0.04,0.13c0.081,0.339,0.292,0.519,0.627,0.519c2.41,0,4.819,0,7.229,0c0.316,0,0.523-0.156,0.61-0.459
			C8.585,21.941,8.591,21.661,8.534,21.383z"/>
	</g>
</g>
<g>
	<g>
		<path d="M6.505,27.821c-0.083-0.33-0.251-0.471-0.591-0.494c-0.232-0.016-0.466,0.002-0.697-0.02
			c-0.547-0.048-0.828-0.271-0.816-0.857c0.014-0.72,0.004-1.438,0.003-2.157c0-0.433-0.201-0.692-0.622-0.788
			c-0.333-0.076-0.67-0.079-1.004-0.006c-0.477,0.104-0.673,0.354-0.673,0.838c0,0.388,0,0.776,0,1.166c0,0.033-0.001,0.066,0,0.101
			c0.013,0.514-0.035,1.026,0.041,1.536c0.072,0.478,0.257,0.897,0.611,1.233c0.382,0.363,0.853,0.546,1.356,0.658
			c0.604,0.135,1.217,0.148,1.832,0.138c0.264-0.007,0.451-0.148,0.534-0.403C6.581,28.454,6.584,28.135,6.505,27.821z"/>
	</g>
</g>
<g>
	<g>
		<path d="M33.716,20.911c-0.423-0.143-0.853-0.143-1.271-0.002c-0.328,0.11-0.482,0.343-0.482,0.693c0,1.271,0,2.545,0,3.816
			c-0.001,0.364,0.178,0.61,0.525,0.718c0.355,0.111,0.719,0.113,1.078,0.029c0.426-0.102,0.607-0.344,0.607-0.781
			c0-0.625,0-1.249,0-1.873c0-0.648,0-1.296,0-1.943C34.17,21.245,34.019,21.013,33.716,20.911z"/>
	</g>
</g>
<g>
	<g>
		<path d="M49.878,22.716c-0.151-0.627-0.556-1.049-1.116-1.34c-0.515-0.268-1.07-0.398-1.638-0.485
			c-0.354-0.054-0.709-0.088-1.065-0.102c-0.017,0-0.035,0.002-0.039-0.021c-0.533,0-1.066,0-1.601,0
			c-0.004,0.017-0.016,0.02-0.03,0.021c-0.191,0.014-0.384,0.022-0.574,0.041c-0.568,0.057-1.129,0.152-1.668,0.346
			c-0.369,0.133-0.717,0.309-1.01,0.575c-0.441,0.401-0.638,0.909-0.638,1.497c0,1.142,0,2.283,0,3.423
			c0,0.807,0.354,1.407,1.047,1.812c0.568,0.33,1.197,0.479,1.841,0.568c0.713,0.104,1.43,0.127,2.147,0.113
			c0.646-0.012,1.287-0.055,1.922-0.174c0.524-0.099,1.035-0.24,1.502-0.513c0.459-0.267,0.802-0.631,0.938-1.159
			c0.017-0.063,0.013-0.134,0.05-0.191c0-0.141,0-0.283,0-0.426c-0.078-0.272-0.281-0.41-0.543-0.47
			c-0.416-0.095-0.834-0.095-1.25,0.021c-0.255,0.07-0.435,0.229-0.515,0.482c-0.09,0.283-0.287,0.443-0.561,0.535
			c-0.379,0.13-0.773,0.174-1.172,0.197c-0.572,0.033-1.146,0.029-1.719-0.038c-0.332-0.04-0.658-0.104-0.965-0.24
			c-0.121-0.054-0.232-0.12-0.33-0.211c-0.148-0.137-0.217-0.304-0.217-0.504c0-1.03,0.004-2.06-0.002-3.09
			c-0.002-0.305,0.129-0.521,0.381-0.677c0.271-0.167,0.574-0.25,0.885-0.295c0.918-0.135,1.836-0.14,2.748,0.035
			c0.279,0.055,0.549,0.141,0.785,0.309c0.205,0.146,0.326,0.338,0.309,0.6c-0.006,0.096,0.043,0.226-0.02,0.28
			c-0.056,0.048-0.181,0.017-0.273,0.017c-1.15,0.001-2.303,0.001-3.453,0.001c-0.342,0-0.504,0.145-0.551,0.485
			c-0.029,0.21-0.031,0.418,0.02,0.623c0.062,0.258,0.213,0.382,0.473,0.382c1.578,0,3.153,0,4.729-0.004
			c0.231-0.001,0.457-0.048,0.664-0.154c0.369-0.19,0.506-0.521,0.556-0.908c0.004-0.022-0.013-0.055,0.021-0.071
			c0-0.013,0-0.026,0-0.04c0-0.283,0-0.567,0-0.851c0-0.014,0-0.026,0-0.04C49.903,22.959,49.907,22.834,49.878,22.716z"/>
	</g>
</g>
<g>
	<g>
		<path d="M11.506,20.89c-0.403-0.121-0.812-0.119-1.214,0.01c-0.323,0.103-0.485,0.335-0.493,0.674c-0.002,0.119,0,0.237,0,0.354
			c0,0.122-0.003,0.243,0,0.364c0.01,0.35,0.173,0.578,0.506,0.688c0.348,0.113,0.704,0.113,1.058,0.042
			c0.46-0.093,0.647-0.334,0.647-0.799c0-0.212,0-0.425,0-0.638C12.01,21.232,11.845,20.994,11.506,20.89z"/>
	</g>
</g>
<g>
	<g>
		<path d="M38.729,21.586c0.001-0.384-0.178-0.619-0.553-0.716c-0.295-0.076-0.595-0.078-0.894-0.027
			c-0.42,0.07-0.726,0.281-0.709,0.852c0.017,0.521,0.004,1.04,0.004,1.56c0,1.157,0,2.316,0,3.474c0,0.377-0.17,0.601-0.521,0.683
			c-0.117,0.026-0.237,0.041-0.36,0.041c-1.748,0-3.496,0-5.244,0c-0.123,0-0.244-0.015-0.362-0.041
			c-0.271-0.064-0.462-0.217-0.511-0.506c-0.015-0.086-0.019-0.176-0.019-0.263c0-1.675,0-3.35,0-5.023
			c0-0.403-0.192-0.647-0.586-0.748c-0.289-0.073-0.582-0.079-0.873-0.033c-0.483,0.075-0.746,0.3-0.741,0.875
			c0.01,1.692,0.004,3.383,0.002,5.074c0,0.194,0.01,0.391,0.041,0.584c0.114,0.748,0.508,1.276,1.217,1.562
			c0.44,0.177,0.905,0.237,1.377,0.239c1.024,0.007,2.052,0.003,3.078,0.003c1.006,0,2.012,0.001,3.019-0.001
			c0.323-0.001,0.646-0.028,0.963-0.1c0.521-0.117,0.981-0.336,1.297-0.787c0.256-0.367,0.361-0.783,0.371-1.222
			c0.014-0.694,0.004-1.392,0.006-2.087C38.731,23.848,38.731,22.718,38.729,21.586z"/>
	</g>
</g>
<g>
	<g>
		<path d="M24.912,20.902c-0.098-0.037-0.199-0.065-0.304-0.071c-0.681-0.04-1.363-0.021-2.044-0.012
			c-0.335,0.005-0.594,0.149-0.795,0.439c-0.473,0.682-0.971,1.346-1.459,2.016c-0.168,0.23-0.337,0.463-0.509,0.697
			c-0.038-0.052-0.071-0.098-0.104-0.145c-0.64-0.885-1.281-1.77-1.919-2.656c-0.114-0.158-0.262-0.259-0.449-0.307
			c-0.147-0.038-0.298-0.053-0.45-0.053c-0.537,0-1.073,0-1.61,0c-0.125-0.001-0.249,0.005-0.374,0.019
			c-0.535,0.059-0.818,0.37-0.818,0.905c0,2.214,0,4.428,0,6.643c0,0.389,0.189,0.64,0.566,0.732
			c0.342,0.086,0.688,0.086,1.031,0.002c0.293-0.072,0.49-0.248,0.542-0.558c0.015-0.089,0.017-0.183,0.017-0.271
			c0.001-1.941,0-3.884,0.001-5.826c0-0.035-0.01-0.073,0.01-0.108c0.036,0.012,0.047,0.046,0.066,0.072
			c0.84,1.146,1.682,2.296,2.52,3.443c0.119,0.164,0.269,0.271,0.465,0.314c0.267,0.062,0.535,0.059,0.804,0.025
			c0.266-0.032,0.468-0.16,0.623-0.385c0.25-0.365,0.517-0.718,0.777-1.074c0.585-0.805,1.17-1.609,1.774-2.438
			c0,0.065,0,0.101,0,0.138c0,1.972,0,3.942,0,5.915c0,0.42,0.188,0.658,0.599,0.756c0.272,0.063,0.548,0.062,0.824,0.023
			c0.057-0.008,0.113-0.021,0.169-0.034c0.383-0.104,0.564-0.351,0.564-0.767c0.002-1.059,0-2.113,0-3.171
			c0-1.145,0.002-2.288,0-3.433C25.43,21.303,25.262,21.034,24.912,20.902z"/>
	</g>
</g>
<g>
</g>
<g>
</g>
<g>
</g>
<g>
</g>
<g>
</g>
<g>
</g>
<g>
</g>
<g>
</g>
<g>
</g>
<g>
</g>
<g>
</g>
<g>
</g>
<g>
</g>
<g>
</g>
<g>
</g>
</svg>
