<?xml version="1.0" encoding="iso-8859-1"?>
<!-- Generator: Adobe Illustrator 19.0.0, SVG Export Plug-In . SVG Version: 6.00 Build 0)  -->
<svg version="1.1" id="Capa_1" xmlns="http://www.w3.org/2000/svg" xmlns:xlink="http://www.w3.org/1999/xlink" x="0px" y="0px"
	 viewBox="0 0 45.12 45.12" style="enable-background:new 0 0 45.12 45.12;" xml:space="preserve">
<g>
	<g>
		<rect x="18.972" y="13.865" width="3.412" height="3.461"/>
	</g>
</g>
<g>
	<g>
		<rect x="9.637" y="25.31" width="3.461" height="3.455"/>
	</g>
</g>
<g>
	<g>
		<rect x="22.383" y="17.326" width="4.602" height="4.591"/>
	</g>
</g>
<g>
	<g>
		<rect x="27.11" y="11.149" width="2.582" height="2.716"/>
	</g>
</g>
<g>
	<g>
		<path d="M17.708,12.389c-0.103-0.015-0.202-0.043-0.304-0.065c-0.479-0.109-0.958-0.218-1.438-0.328
			c-0.697-0.159-1.393-0.32-2.09-0.479c-0.54-0.124-1.079-0.245-1.62-0.368c-0.727-0.165-1.453-0.329-2.178-0.495
			c-0.544-0.123-1.087-0.246-1.63-0.371C7.771,10.128,7.095,9.97,6.419,9.815C5.64,9.638,4.861,9.461,4.084,9.284
			C3.933,9.249,3.783,9.217,3.633,9.183L0.01,8.316L0,36.804l3.633-0.905v-0.002c0.016-0.002,0.029-0.003,0.043-0.006
			c0.578-0.131,1.156-0.261,1.733-0.392c0.92-0.209,1.84-0.418,2.758-0.625c0.8-0.183,1.601-0.364,2.401-0.547
			c0.867-0.195,1.734-0.391,2.601-0.588c0.818-0.185,1.636-0.374,2.453-0.562c0.686-0.157,1.372-0.318,2.06-0.469
			c0.083-0.02,0.092-0.059,0.092-0.127c-0.001-2.218-0.001-4.435-0.001-6.653c0-0.035,0-0.071,0.002-0.101c-0.576,0-1.139,0-1.708,0
			c0,1.719,0,3.43,0,5.145c-0.21,0.037-0.408,0.072-0.606,0.105c-0.332,0.057-0.664,0.107-0.997,0.164
			c-0.327,0.053-0.652,0.109-0.977,0.166c-0.298,0.046-0.594,0.095-0.892,0.147c-0.266,0.044-0.53,0.088-0.795,0.132
			c-0.249,0.042-0.499,0.083-0.749,0.125c-0.328,0.057-0.659,0.107-0.987,0.164c-0.336,0.059-0.671,0.114-1.006,0.172
			c-0.329,0.057-0.659,0.11-0.988,0.167c-0.335,0.058-0.672,0.114-1.007,0.17c-0.333,0.058-0.667,0.11-1,0.167
			c-0.367,0.06-0.732,0.126-1.097,0.188c-0.422,0.071-0.842,0.147-1.264,0.209c-0.03,0.005-0.05,0.012-0.068,0.021V12.02
			c0.01,0.004,0.021,0.007,0.034,0.008c0.081,0.009,0.161,0.026,0.242,0.039c0.561,0.096,1.122,0.191,1.683,0.287
			c0.532,0.091,1.064,0.181,1.595,0.271c0.565,0.096,1.129,0.191,1.693,0.286c0.538,0.09,1.076,0.181,1.614,0.272
			c0.49,0.082,0.98,0.164,1.469,0.247c0.338,0.056,0.677,0.112,1.014,0.17c0.449,0.077,0.897,0.156,1.347,0.232
			c0.333,0.057,0.667,0.11,1,0.165c0.246,0.041,0.492,0.084,0.746,0.127c0,1.3,0,2.592,0,3.89c0.57,0,1.132,0,1.704,0
			c0-0.044,0-0.076,0-0.109c0-1.797,0-3.594,0-5.391c0-0.014,0-0.027,0-0.04C17.78,12.425,17.766,12.398,17.708,12.389z"/>
	</g>
</g>
<g>
	<g>
		<polygon points="13.222,19.084 13.222,16.177 7.92,16.177 7.92,21.424 13.222,21.424 13.222,24.715 18.849,24.715 18.849,19.084 
					"/>
	</g>
</g>
<g>
	<g>
		<rect x="18.972" y="25.401" width="3.412" height="3.346"/>
	</g>
</g>
<g>
	<g>
		<path d="M41.086,28.337c-1.409-0.457-1.733-0.741-1.733-1.512c0-0.552,0.471-1.146,1.504-1.146c0.861,0,1.434,0.423,1.748,1.292
			l0.055,0.15l0.525-0.174l-0.055-0.158c-0.367-1.062-1.174-1.646-2.273-1.646c-1.352,0-2.059,0.848-2.059,1.682
			c0,1.143,0.55,1.526,2.105,2.032c1.449,0.472,1.824,0.813,1.824,1.665c0,0.816-0.672,1.325-1.754,1.325
			c-1.105,0-1.695-0.444-2.033-1.535l-0.049-0.161l-0.527,0.176l0.047,0.154c0.269,0.884,0.801,1.902,2.562,1.902
			c1.381,0,2.311-0.748,2.311-1.861C43.284,29.153,42.371,28.753,41.086,28.337z"/>
	</g>
</g>
<g>
	<g>
		<path d="M44.526,26.168c0.105-0.025,0.174-0.091,0.174-0.216c0-0.146-0.104-0.225-0.281-0.225h-0.277c0,0.005,0,0.787,0,0.787
			c0.008,0,0.111,0,0.111,0c0-0.008,0-0.29,0-0.333h0.164l0.178,0.333h0.117L44.526,26.168z M44.413,26.095h-0.16v-0.268h0.158
			c0.113,0,0.18,0.034,0.18,0.131C44.588,26.059,44.522,26.095,44.413,26.095z"/>
	</g>
</g>
<g>
	<g>
		<path d="M44.407,25.417c-0.402,0-0.717,0.319-0.717,0.72c0,0.397,0.312,0.717,0.715,0.717c0.398,0,0.715-0.319,0.715-0.72
			C45.12,25.735,44.806,25.417,44.407,25.417z M44.407,26.768c-0.35,0-0.623-0.283-0.623-0.634c0-0.35,0.271-0.631,0.621-0.631
			c0.348,0,0.621,0.283,0.621,0.634C45.024,26.487,44.754,26.768,44.407,26.768z"/>
	</g>
</g>
<g>
	<g>
		<path d="M35.688,25.28h-2.131v6.969h0.557V29.01h1.574c1.475,0,2.391-0.709,2.391-1.853C38.079,25.999,37.163,25.28,35.688,25.28z
			 M35.698,28.475h-1.584v-2.659h1.584c1.145,0,1.826,0.502,1.826,1.344C37.524,27.995,36.858,28.475,35.698,28.475z"/>
	</g>
</g>
<g>
	<g>
		<rect x="31.414" y="25.28" width="0.554" height="6.969"/>
	</g>
</g>
<g>
	<g>
		<path d="M28.957,28.638c0.528-0.258,0.965-0.744,0.965-1.516c0-1.633-1.358-1.843-2.543-1.843h-1.985v6.97h2.453
			c1.496,0,2.391-0.698,2.391-1.869C30.237,29.308,29.55,28.841,28.957,28.638z M25.948,25.814h1.449
			c1.418,0,1.973,0.367,1.973,1.308c0,1.164-1.223,1.289-1.748,1.289h-1.674V25.814z M27.864,31.723h-1.916v-2.774h1.674
			c0.939,0,2.061,0.248,2.061,1.432C29.683,31.245,29.036,31.723,27.864,31.723z"/>
	</g>
</g>
<g>
</g>
<g>
</g>
<g>
</g>
<g>
</g>
<g>
</g>
<g>
</g>
<g>
</g>
<g>
</g>
<g>
</g>
<g>
</g>
<g>
</g>
<g>
</g>
<g>
</g>
<g>
</g>
<g>
</g>
</svg>
