<?xml version="1.0" encoding="iso-8859-1"?>
<!-- Generator: Adobe Illustrator 19.0.0, SVG Export Plug-In . SVG Version: 6.00 Build 0)  -->
<svg version="1.1" id="Capa_1" xmlns="http://www.w3.org/2000/svg" xmlns:xlink="http://www.w3.org/1999/xlink" x="0px" y="0px"
	 viewBox="0 0 47.809 47.809" style="enable-background:new 0 0 47.809 47.809;" xml:space="preserve">
<g>
	<g>
		<path d="M16.145,29.526c0.001-0.097-0.028-0.127-0.123-0.123c-0.121,0.006-0.243,0.008-0.365,0
			c-0.099-0.007-0.127,0.026-0.127,0.127c0.004,0.668,0.002,1.334,0.002,2c0,0.047,0,0.094,0,0.143
			c-0.023-0.016-0.032-0.031-0.039-0.049c-0.337-0.707-0.674-1.414-1.007-2.121c-0.034-0.074-0.074-0.102-0.154-0.1
			c-0.189,0.006-0.379,0.002-0.569,0.002c-0.081,0-0.162,0-0.247,0c0,1.002,0,1.985,0,2.985c0.152,0,0.298,0,0.444,0
			c0.165,0,0.165-0.001,0.165-0.16c0-0.739,0-1.483,0-2.254c0.026,0.048,0.038,0.07,0.049,0.091c0.348,0.744,0.696,1.488,1.04,2.235
			c0.031,0.068,0.066,0.09,0.137,0.09c0.229-0.003,0.459-0.003,0.688,0c0.076,0,0.106-0.022,0.105-0.104
			c-0.003-0.256-0.001-0.51-0.001-0.764C16.143,30.858,16.141,30.192,16.145,29.526z"/>
	</g>
</g>
<g>
	<g>
		<path d="M9.346,29.405c-0.255,0.004-0.509,0.01-0.763-0.002c-0.127-0.007-0.172,0.045-0.206,0.154
			c-0.198,0.654-0.405,1.305-0.615,1.975c-0.014-0.031-0.019-0.041-0.022-0.051c-0.19-0.66-0.382-1.318-0.57-1.977
			c-0.022-0.077-0.053-0.105-0.134-0.103c-0.15,0.006-0.301,0.002-0.451,0.002c-0.16,0-0.32,0-0.483,0c0,1,0,1.985,0,2.984
			c0.161,0,0.315-0.005,0.468,0.002c0.101,0.005,0.135-0.027,0.134-0.132c-0.003-0.733-0.001-1.469-0.001-2.204
			c0-0.027,0-0.06,0-0.089c0.126,0.346,0.235,0.693,0.342,1.04c0.134,0.431,0.268,0.858,0.399,1.29c0.022,0.07,0.057,0.1,0.13,0.096
			c0.121-0.006,0.243,0.002,0.365-0.006c0.031-0.001,0.079-0.035,0.089-0.063c0.192-0.597,0.38-1.191,0.568-1.787
			c0.065-0.205,0.13-0.407,0.195-0.61c0.006,0.001,0.013,0.003,0.019,0.004c0,0.815,0,1.631,0,2.461
			c0.186,0,0.364-0.003,0.542,0.001c0.077,0.003,0.101-0.026,0.1-0.1c-0.001-0.928-0.001-1.855,0-2.783
			C9.453,29.429,9.426,29.403,9.346,29.405z"/>
	</g>
</g>
<g>
	<g>
		<path d="M12.757,30.155c-0.126-0.325-0.34-0.571-0.674-0.698c-0.316-0.119-0.639-0.141-0.969-0.075
			c-0.368,0.073-0.652,0.265-0.84,0.59c-0.154,0.268-0.222,0.557-0.251,0.864c0.027,0.212,0.037,0.427,0.083,0.635
			c0.086,0.388,0.307,0.681,0.676,0.849c0.34,0.154,0.696,0.185,1.058,0.103c0.386-0.089,0.691-0.296,0.859-0.664
			C12.938,31.236,12.967,30.697,12.757,30.155z M12.208,30.873c0.001,0.229-0.014,0.459-0.109,0.672
			c-0.14,0.314-0.336,0.441-0.657,0.434c-0.319-0.008-0.527-0.17-0.626-0.464c-0.138-0.412-0.139-0.832,0.005-1.24
			c0.108-0.308,0.351-0.459,0.669-0.455c0.289,0.004,0.528,0.168,0.626,0.467c0.061,0.188,0.082,0.389,0.12,0.584
			C12.226,30.871,12.217,30.873,12.208,30.873z"/>
	</g>
</g>
<g>
	<g>
		<path d="M5.372,15.471c-0.134,1-0.269,1.996-0.403,2.992c-0.012-0.001-0.023-0.002-0.034-0.002
			c-0.043-0.307-0.085-0.614-0.131-0.922c-0.097-0.653-0.199-1.306-0.292-1.961c-0.013-0.093-0.042-0.115-0.131-0.115
			c-0.574,0.004-1.146,0.002-1.72,0.002c-0.038,0-0.076,0.004-0.115,0.006c-0.149,1.004-0.296,1.998-0.442,2.993
			c-0.011,0-0.021,0-0.032,0c-0.134-0.998-0.269-1.996-0.404-2.996c-0.562,0-1.108,0-1.668,0c0.003,0.041,0.001,0.069,0.007,0.097
			c0.192,0.882,0.385,1.765,0.576,2.648c0.137,0.635,0.274,1.271,0.407,1.907c0.019,0.089,0.049,0.127,0.152,0.126
			c0.523-0.006,1.046-0.003,1.568-0.003c0.114,0,0.228,0,0.351,0c0.148-1.031,0.296-2.055,0.442-3.079c0.012,0,0.023,0,0.035,0
			c0.147,1.025,0.294,2.05,0.442,3.079c0.054,0,0.093,0,0.132,0c0.563,0,1.125,0,1.688,0c0.22,0,0.22,0,0.268-0.218
			c0.166-0.764,0.333-1.528,0.499-2.292c0.13-0.601,0.259-1.201,0.388-1.798c0.032-0.152,0.062-0.306,0.094-0.464
			C6.483,15.471,5.933,15.471,5.372,15.471z"/>
	</g>
</g>
<g>
	<g>
		<path d="M9.988,19.005c0-0.184,0-0.361,0-0.549c0.562,0,1.115,0,1.67,0c0-0.415,0-0.818,0-1.234c-0.559,0-1.112,0-1.672,0
			c0-0.178,0-0.344,0-0.525c0.607,0,1.207,0,1.811,0c0.002-0.045,0.006-0.076,0.006-0.108c0-0.338-0.003-0.674,0.002-1.011
			c0.001-0.097-0.034-0.118-0.126-0.118c-1.121,0.003-2.242,0.002-3.364,0.002c-0.141,0-0.141,0-0.141,0.141
			c0,1.494,0,2.987,0.001,4.481c0,0.05,0.004,0.099,0.008,0.151c1.235,0,2.451,0,3.669,0c0-0.413,0-0.818,0-1.23
			C11.225,19.005,10.61,19.005,9.988,19.005z"/>
	</g>
</g>
<g>
	<g>
		<path d="M38.332,15.469c0,0.962,0,1.918,0,2.872c-0.006,0.001-0.017,0.003-0.027,0.004c-0.014-0.033-0.029-0.063-0.041-0.095
			c-0.313-0.897-0.627-1.793-0.938-2.691c-0.026-0.071-0.057-0.099-0.137-0.099c-0.677,0.004-1.353,0.005-2.031,0
			c-0.1,0-0.127,0.029-0.125,0.126c0.002,1.511,0.002,3.022,0.002,4.534c0,0.037,0.003,0.076,0.008,0.119
			c0.042,0.003,0.074,0.005,0.104,0.005c0.433,0,0.859-0.003,1.291,0.002c0.095,0.001,0.119-0.021,0.119-0.119
			c-0.004-0.895-0.002-1.791-0.002-2.686c0-0.033,0.006-0.065,0.008-0.097c0.05,0.079,0.082,0.158,0.109,0.238
			c0.295,0.85,0.592,1.7,0.883,2.551c0.031,0.088,0.074,0.111,0.164,0.111c0.68-0.004,1.359-0.002,2.041-0.002
			c0.025,0,0.055-0.004,0.082-0.006c0-1.593,0-3.181,0-4.767C39.334,15.469,38.838,15.469,38.332,15.469z"/>
	</g>
</g>
<g>
	<g>
		<path d="M27.645,19.008c-0.55,0.003-1.102,0.001-1.653,0.001c-0.039,0-0.076-0.004-0.115-0.006c0-0.185,0-0.357,0-0.545
			c0.562,0,1.111,0,1.666,0c0-0.415,0-0.82,0-1.236c-0.557,0-1.106,0-1.664,0c0-0.177,0-0.343,0-0.525c0.611,0,1.212,0,1.812,0
			c0-0.419,0-0.822,0-1.229c-1.207,0-2.404,0-3.607,0c0,1.593,0,3.18,0,4.768c0.024,0.003,0.037,0.006,0.051,0.006
			c1.179,0,2.359,0,3.531,0.002c0.072,0,0.094-0.022,0.092-0.093c-0.002-0.343-0.006-0.687,0.002-1.031
			C27.762,19.028,27.731,19.008,27.645,19.008z"/>
	</g>
</g>
<g>
	<g>
		<path d="M33.538,19.145c-0.035-0.222-0.056-0.447-0.097-0.667c-0.063-0.332-0.271-0.534-0.598-0.615
			c-0.061-0.015-0.117-0.03-0.205-0.052c0.058-0.019,0.084-0.027,0.109-0.036c0.254-0.08,0.482-0.198,0.643-0.424
			c0.178-0.256,0.201-0.549,0.174-0.844c-0.036-0.432-0.248-0.743-0.668-0.899c-0.321-0.119-0.655-0.141-0.991-0.143
			c-0.886-0.005-1.771-0.002-2.654-0.002c-0.036,0-0.071,0-0.114,0c0,1.602,0,3.187,0,4.773c0.61,0,1.215,0,1.832,0
			c0-0.567,0-1.128,0-1.711c0.157,0.013,0.305,0.016,0.446,0.04c0.119,0.019,0.199,0.1,0.226,0.219
			c0.028,0.125,0.047,0.252,0.067,0.379c0.058,0.327,0.113,0.654,0.168,0.981c0.013,0.07,0.041,0.101,0.121,0.101
			c0.547-0.004,1.097-0.002,1.644-0.002c0.03,0,0.062-0.004,0.076-0.005C33.655,19.869,33.596,19.507,33.538,19.145z M31.53,17.389
			c-0.174,0.086-0.359,0.08-0.559,0.067c0.002-0.307,0.002-0.603,0.002-0.912c0.201-0.007,0.399-0.021,0.59,0.06
			c0.164,0.071,0.211,0.21,0.209,0.376C31.77,17.164,31.7,17.306,31.53,17.389z"/>
	</g>
</g>
<g>
	<g>
		<path d="M45.451,15.51c0,3.465,0,6.921,0,10.382c0.193,0,0.381,0,0.574,0c0-3.461,0-6.921,0-10.382
			C45.83,15.51,45.639,15.51,45.451,15.51z"/>
	</g>
</g>
<g>
	<g>
		<path d="M18.584,15.469c0,0.427,0,0.847,0,1.276c0.394,0,0.78,0,1.179,0c0,1.171,0,2.332,0,3.492c0.631,0,1.246,0,1.881,0
			c0-1.17,0-2.329,0-3.497c0.396,0,0.781,0,1.169,0c0-0.43,0-0.849,0-1.271C21.399,15.469,19.993,15.469,18.584,15.469z"/>
	</g>
</g>
<g>
	<g>
		<path d="M16.59,17.427c-0.318-0.117-0.649-0.197-0.974-0.294c-0.208-0.062-0.419-0.118-0.624-0.189
			c-0.108-0.038-0.16-0.133-0.154-0.248c0.006-0.121,0.073-0.211,0.186-0.236c0.127-0.029,0.262-0.045,0.39-0.033
			c0.159,0.015,0.26,0.12,0.276,0.27c0.011,0.099,0.057,0.11,0.14,0.11c0.48-0.002,0.96-0.001,1.439-0.001
			c0.035,0,0.07-0.004,0.1-0.006c0.008-0.016,0.012-0.022,0.013-0.028c0.002-0.011,0.002-0.021,0.002-0.032
			c-0.012-0.488-0.216-0.867-0.649-1.11c-0.298-0.167-0.625-0.24-0.963-0.266c-0.535-0.043-1.066-0.037-1.582,0.135
			c-0.584,0.196-0.991,0.556-1.062,1.201c-0.072,0.644,0.141,1.145,0.77,1.386c0.352,0.135,0.721,0.225,1.083,0.336
			c0.192,0.058,0.385,0.111,0.572,0.18c0.162,0.059,0.242,0.193,0.221,0.329c-0.029,0.196-0.185,0.337-0.388,0.354
			c-0.284,0.023-0.45-0.063-0.517-0.275c-0.024-0.073-0.036-0.15-0.055-0.232c-0.589,0-1.178,0-1.779,0
			c-0.004,0.027-0.007,0.044-0.007,0.062c0,0.025,0,0.05,0.002,0.075c0.053,0.635,0.393,1.048,0.986,1.266
			c0.37,0.137,0.756,0.179,1.148,0.184c0.439,0.006,0.873-0.031,1.29-0.177c0.551-0.194,0.94-0.539,1.052-1.137
			C17.652,18.264,17.34,17.701,16.59,17.427z"/>
	</g>
</g>
<g>
	<g>
		<path d="M27.201,21.199c-0.308,0.006-0.618,0.003-0.924,0.004c-0.276,0-0.551,0-0.84,0c-0.002,0.044-0.006,0.075-0.006,0.106
			c0,1.522,0,3.043-0.002,4.564c0,0.082,0.019,0.111,0.109,0.111c0.539-0.005,1.08-0.002,1.621-0.002c0.146,0,0.146,0,0.146-0.146
			c0-1.379,0-2.758,0-4.136c0-0.132-0.004-0.265,0-0.397C27.306,21.223,27.281,21.198,27.201,21.199z"/>
	</g>
</g>
<g>
	<g>
		<path d="M18.805,31.874c-0.383,0.004-0.766,0.002-1.15,0.002c-0.041,0-0.083-0.004-0.136-0.006c0-0.228,0.003-0.445-0.001-0.664
			c-0.002-0.084,0.025-0.11,0.109-0.11c0.33,0.004,0.659,0.002,0.989,0.002c0.048,0,0.098-0.006,0.152-0.008
			c0-0.167,0-0.323,0-0.489c-0.051-0.004-0.097-0.009-0.142-0.009c-0.333-0.001-0.667,0.001-1-0.002
			c-0.036-0.001-0.102-0.034-0.102-0.054c-0.008-0.207-0.005-0.414-0.005-0.637c0.455,0,0.891,0,1.34,0
			c0-0.125-0.008-0.242,0.002-0.359c0.009-0.11-0.027-0.141-0.136-0.139c-0.576,0.004-1.153,0.004-1.73,0
			c-0.102-0.002-0.133,0.025-0.132,0.129c0.003,0.907,0.001,1.814,0.001,2.719c0,0.041,0,0.084,0,0.132c0.686,0,1.358,0,2.04,0
			c0-0.138-0.005-0.271,0.002-0.403C18.91,31.899,18.885,31.874,18.805,31.874z"/>
	</g>
</g>
<g>
	<g>
		<path d="M15.61,21.212c0,0.091,0,0.176,0,0.261c0,0.931,0.001,1.863-0.003,2.794c0,0.109-0.015,0.23-0.049,0.335
			c-0.045,0.139-0.153,0.223-0.305,0.231c-0.157,0.007-0.284-0.057-0.342-0.207c-0.039-0.098-0.064-0.207-0.064-0.311
			c-0.005-0.992-0.004-1.984-0.004-2.976c0-0.042,0-0.084,0-0.131c-0.629,0-1.248,0-1.873,0c-0.003,0.027-0.006,0.04-0.006,0.054
			c0,1.086-0.005,2.171,0.007,3.255c0.002,0.189,0.054,0.386,0.123,0.562c0.186,0.479,0.573,0.742,1.046,0.877
			c0.684,0.199,1.376,0.193,2.068,0.033c0.822-0.191,1.283-0.765,1.283-1.601c0.002-1.017,0.001-2.034,0.001-3.051
			c0-0.042,0-0.083,0-0.125C16.858,21.212,16.24,21.212,15.61,21.212z"/>
	</g>
</g>
<g>
	<g>
		<path d="M37.747,30.946c-0.136-0.105-0.306-0.168-0.476-0.225c-0.211-0.074-0.434-0.117-0.649-0.18
			c-0.275-0.08-0.373-0.34-0.215-0.547c0.157-0.209,0.565-0.244,0.739-0.049c0.076,0.084,0.113,0.205,0.175,0.32
			c0.178,0,0.377,0,0.582,0c0.041-0.372-0.203-0.717-0.582-0.838c-0.295-0.091-0.598-0.088-0.899-0.023
			c-0.179,0.041-0.341,0.118-0.484,0.24c-0.324,0.281-0.449,1.01,0.145,1.307c0.125,0.06,0.255,0.115,0.387,0.155
			c0.205,0.067,0.416,0.11,0.618,0.179c0.265,0.09,0.317,0.399,0.095,0.574c-0.065,0.051-0.155,0.088-0.239,0.105
			c-0.343,0.068-0.707-0.022-0.705-0.479c0-0.022-0.052-0.059-0.078-0.06c-0.121-0.007-0.242-0.003-0.365-0.003
			c-0.221,0-0.225,0-0.204,0.219c0.032,0.34,0.198,0.587,0.52,0.712c0.346,0.136,0.705,0.136,1.064,0.054
			c0.265-0.06,0.493-0.183,0.659-0.408C38.085,31.661,38.057,31.177,37.747,30.946z"/>
	</g>
</g>
<g>
	<g>
		<path d="M40.957,15.51c0,3.465,0,6.921,0,10.382c0.195,0,0.383,0,0.578,0c0-3.461,0-6.921,0-10.382
			C41.338,15.51,41.146,15.51,40.957,15.51z"/>
	</g>
</g>
<g>
	<g>
		<path d="M40.524,29.418c-0.037-0.004-0.066-0.008-0.094-0.008c-0.575,0-1.147,0-1.72-0.002c-0.094,0-0.106,0.045-0.106,0.125
			c0.002,0.905,0.002,1.813,0.002,2.717c0,0.027-0.008,0.055,0.002,0.076c0.012,0.024,0.037,0.059,0.057,0.059
			c0.194,0.005,0.387,0.003,0.596,0.003c0-0.431,0-0.84,0-1.26c0.396,0,0.783,0,1.189,0c0-0.13,0-0.25,0-0.371
			c0-0.142,0-0.142-0.143-0.142c-0.314,0-0.629,0.002-0.943-0.002c-0.039,0-0.102-0.033-0.104-0.054
			c-0.007-0.216-0.005-0.432-0.005-0.661c0.435,0,0.851,0,1.269,0C40.524,29.73,40.524,29.576,40.524,29.418z"/>
	</g>
</g>
<g>
	<g>
		<path d="M42.975,31.876c-0.383,0-0.767-0.003-1.147,0.001c-0.087,0.001-0.11-0.029-0.108-0.11
			c0.006-0.167,0.002-0.336,0.002-0.504c0-0.166,0-0.165,0.159-0.165c0.314,0,0.623,0,0.935,0c0.051-0.001,0.1-0.005,0.162-0.008
			c0-0.125,0-0.242,0-0.357c0-0.141,0-0.141-0.144-0.141c-0.332-0.001-0.666,0.001-0.998-0.003c-0.037,0-0.106-0.031-0.106-0.049
			c-0.006-0.211-0.004-0.42-0.004-0.641c0.453,0,0.893,0,1.338,0c0-0.132-0.008-0.25,0.002-0.367
			c0.008-0.106-0.029-0.133-0.133-0.131c-0.577,0.004-1.153,0.002-1.729,0.002c-0.041,0-0.082,0.004-0.127,0.006
			c0,0.996,0,1.98,0,2.972c0.674,0,1.346,0,2.023,0c0-0.17,0-0.332,0-0.505C43.053,31.876,43.014,31.876,42.975,31.876z"/>
	</g>
</g>
<g>
	<g>
		<path d="M47.184,15.434c-0.342,0.004-0.625,0.287-0.621,0.625c0.002,0.34,0.293,0.621,0.641,0.618
			c0.338-0.003,0.607-0.28,0.605-0.622C47.809,15.697,47.538,15.43,47.184,15.434z M47.189,16.615
			c-0.299,0.002-0.543-0.251-0.543-0.564c0-0.31,0.246-0.557,0.551-0.554c0.307,0.003,0.529,0.243,0.527,0.567
			C47.725,16.377,47.496,16.613,47.189,16.615z"/>
	</g>
</g>
<g>
	<g>
		<path d="M45.913,31.741c-0.024-0.129-0.039-0.258-0.061-0.385c-0.041-0.24-0.168-0.408-0.445-0.445
			c0.055-0.022,0.086-0.037,0.115-0.051c0.356-0.154,0.457-0.412,0.453-0.688c-0.004-0.338-0.211-0.614-0.529-0.701
			c-0.156-0.042-0.324-0.061-0.488-0.063c-0.383-0.008-0.766-0.002-1.148-0.002c-0.041,0-0.082,0.004-0.129,0.008
			c0,0.994,0,1.978,0,2.97c0.217,0,0.428,0,0.652,0c0-0.396,0-0.786,0-1.188c0.193,0,0.375,0,0.559,0
			c0.226,0,0.299,0.065,0.332,0.289c0.041,0.274,0.082,0.551,0.125,0.825c0.004,0.029,0.033,0.076,0.051,0.077
			c0.218,0.005,0.435,0.003,0.632,0.003C45.991,32.165,45.95,31.952,45.913,31.741z M44.964,30.69
			c-0.188,0.014-0.379,0.008-0.567,0.012c-0.062,0.002-0.08-0.032-0.08-0.088c0.002-0.106,0-0.213,0-0.322
			c0-0.106,0.002-0.215,0-0.321c0-0.06,0.021-0.082,0.082-0.08c0.184,0.008,0.365,0.004,0.549,0.014
			c0.217,0.008,0.338,0.139,0.346,0.365C45.301,30.49,45.163,30.674,44.964,30.69z"/>
	</g>
</g>
<g>
	<g>
		<path d="M22.337,21.207c0,0.961,0,1.916,0,2.871c-0.01,0.001-0.02,0.003-0.031,0.005c-0.01-0.025-0.023-0.048-0.031-0.073
			c-0.317-0.903-0.635-1.806-0.948-2.71c-0.027-0.079-0.064-0.101-0.144-0.1c-0.677,0.003-1.354,0.003-2.031-0.001
			c-0.098-0.001-0.125,0.024-0.125,0.125c0.002,1.513,0.001,3.022,0.001,4.534c0.001,0.038,0.004,0.075,0.006,0.116
			c0.507,0,1.003,0,1.518,0c0-0.968,0-1.93-0.001-2.893c0.01-0.001,0.02-0.003,0.029-0.004c0.018,0.045,0.037,0.088,0.053,0.133
			c0.31,0.889,0.62,1.778,0.928,2.671c0.027,0.08,0.063,0.103,0.144,0.103c0.681-0.002,1.362-0.002,2.042-0.002
			c0.031,0,0.063-0.005,0.099-0.007c0-1.594,0-3.181,0-4.768C23.34,21.207,22.843,21.207,22.337,21.207z"/>
	</g>
</g>
<g>
	<g>
		<path d="M47.497,15.848c-0.02-0.052-0.084-0.117-0.134-0.125c-0.125-0.018-0.256-0.005-0.379-0.005c0,0.233,0,0.456,0,0.679
			c0.012,0,0.025,0.001,0.039,0.001c0-0.105,0-0.209,0-0.307c0.125-0.039,0.203-0.019,0.25,0.087
			c0.029,0.061,0.066,0.119,0.106,0.172c0.019,0.024,0.054,0.037,0.08,0.055c0.007-0.007,0.013-0.015,0.019-0.022
			c-0.062-0.098-0.123-0.196-0.188-0.298c0.047-0.013,0.084-0.019,0.115-0.034C47.493,16.01,47.528,15.929,47.497,15.848z
			 M47.225,16.02c-0.186,0-0.238-0.076-0.188-0.224c0.004-0.013,0.015-0.034,0.021-0.033c0.111,0.008,0.224,0.014,0.332,0.035
			c0.021,0.004,0.041,0.084,0.031,0.121c-0.011,0.036-0.054,0.075-0.091,0.091C47.289,16.027,47.238,16.019,47.225,16.02z"/>
	</g>
</g>
<g>
	<g>
		<path d="M25.354,29.405c-0.588,0-1.176,0.001-1.763-0.001c-0.092,0-0.131,0.023-0.123,0.121c0.008,0.098,0.006,0.193,0.001,0.291
			c-0.005,0.079,0.024,0.106,0.104,0.104c0.218-0.005,0.437,0.002,0.655-0.003c0.093-0.004,0.122,0.023,0.122,0.119
			c-0.004,0.725-0.002,1.449-0.002,2.172c0,0.039-0.005,0.08,0.004,0.117c0.006,0.026,0.035,0.062,0.055,0.062
			c0.196,0.004,0.392,0.003,0.598,0.003c0-0.059,0-0.102,0-0.143c0-0.703-0.002-1.404,0-2.107c0.003-0.247-0.043-0.219,0.224-0.221
			c0.212-0.002,0.426-0.002,0.647-0.002c0-0.172,0-0.332,0-0.512C25.696,29.405,25.524,29.405,25.354,29.405z"/>
	</g>
</g>
<g>
	<g>
		<path d="M21.352,29.422c-0.068-0.003-0.1,0.022-0.127,0.084c-0.108,0.241-0.222,0.482-0.333,0.72
			c-0.08,0.174-0.16,0.344-0.246,0.529c-0.016-0.036-0.025-0.054-0.034-0.075c-0.178-0.395-0.355-0.788-0.536-1.182
			c-0.015-0.03-0.056-0.07-0.086-0.071c-0.225-0.005-0.45-0.003-0.697-0.003c0.022,0.045,0.033,0.075,0.048,0.104
			c0.297,0.555,0.597,1.106,0.89,1.664c0.034,0.063,0.052,0.141,0.054,0.213c0.005,0.293,0.004,0.588,0,0.881
			c-0.001,0.078,0.021,0.106,0.103,0.104c0.143-0.006,0.287-0.006,0.43,0c0.088,0.004,0.118-0.024,0.117-0.114
			c-0.005-0.298-0.004-0.596,0-0.893c0-0.048,0.011-0.107,0.035-0.15c0.234-0.447,0.472-0.893,0.709-1.337
			c0.081-0.151,0.16-0.303,0.25-0.473C21.721,29.423,21.537,29.426,21.352,29.422z"/>
	</g>
</g>
<g>
	<g>
		<path d="M38.327,21.212c0,0.962,0,1.915,0,2.868c-0.035-0.024-0.049-0.052-0.059-0.081c-0.317-0.9-0.631-1.8-0.943-2.701
			c-0.023-0.066-0.051-0.096-0.127-0.096c-0.687,0.003-1.374,0.003-2.062,0.001c-0.083-0.001-0.104,0.028-0.104,0.106
			c0.002,1.522,0.004,3.044,0,4.565c0,0.092,0.033,0.111,0.119,0.111c0.425-0.007,0.85-0.007,1.279,0
			c0.097,0,0.127-0.026,0.126-0.126c-0.004-0.875-0.002-1.748-0.002-2.623c0-0.051,0-0.102,0-0.154
			c0.039,0.031,0.056,0.065,0.07,0.099c0.313,0.902,0.627,1.804,0.938,2.704c0.027,0.076,0.058,0.1,0.136,0.1
			c0.682-0.004,1.36-0.002,2.043-0.002c0.03,0,0.061,0,0.104,0c0-1.602,0-3.186,0-4.771C39.337,21.212,38.837,21.212,38.327,21.212z
			"/>
	</g>
</g>
<g>
	<g>
		<path d="M28.629,32.155c-0.033-0.22-0.068-0.442-0.1-0.665c-0.041-0.279-0.113-0.533-0.477-0.58
			c0.061-0.024,0.096-0.039,0.131-0.053c0.287-0.125,0.455-0.373,0.442-0.674c-0.012-0.318-0.151-0.572-0.459-0.688
			c-0.166-0.062-0.354-0.082-0.534-0.088c-0.396-0.015-0.796-0.002-1.191-0.006c-0.096,0-0.121,0.028-0.121,0.123
			c0.004,0.911,0.002,1.825,0.002,2.739c0.002,0.037,0.004,0.075,0.008,0.115c0.225,0,0.436,0,0.658,0c0-0.397,0-0.788,0-1.186
			c0.229,0,0.447-0.007,0.666,0.004c0.096,0.004,0.172,0.069,0.195,0.172c0.021,0.08,0.033,0.16,0.045,0.242
			c0.037,0.254,0.072,0.508,0.108,0.768c0.236,0,0.466,0,0.697,0C28.675,32.296,28.641,32.228,28.629,32.155z M27.635,30.687
			c-0.201,0.021-0.406,0.013-0.611,0.011c-0.021,0-0.057-0.043-0.057-0.065c-0.005-0.24-0.003-0.479-0.003-0.722
			c0.251,0,0.488-0.019,0.722,0.006c0.174,0.018,0.264,0.18,0.26,0.389C27.939,30.501,27.818,30.668,27.635,30.687z"/>
	</g>
</g>
<g>
	<g>
		<path d="M33.473,22.563c-0.183-0.564-0.541-0.984-1.082-1.24c-0.365-0.173-0.754-0.237-1.154-0.244
			c-0.539-0.009-1.059,0.072-1.52,0.368c-0.646,0.409-0.918,1.035-0.996,1.765c-0.045,0.413-0.021,0.823,0.084,1.224
			c0.138,0.531,0.414,0.97,0.881,1.275c0.451,0.294,0.955,0.386,1.483,0.401c0.209-0.021,0.423-0.031,0.627-0.069
			c0.779-0.147,1.354-0.569,1.64-1.324C33.704,24.011,33.706,23.284,33.473,22.563z M31.585,24.51
			c-0.057,0.271-0.226,0.381-0.467,0.358c-0.14-0.01-0.261-0.067-0.306-0.201c-0.063-0.186-0.133-0.376-0.143-0.566
			c-0.011-0.394,0.007-0.791,0.024-1.187c0.006-0.118,0.049-0.238,0.09-0.351c0.062-0.163,0.186-0.25,0.361-0.255
			c0.182-0.007,0.317,0.065,0.396,0.234c0.106,0.229,0.121,0.476,0.14,0.722c0.008,0.107,0,0.215,0,0.323
			c0.012,0.001,0.022,0.002,0.034,0.003C31.673,23.897,31.651,24.207,31.585,24.51z"/>
	</g>
</g>
<g>
	<g>
		<path d="M34.92,29.404c-0.13,0.002-0.263,0.006-0.396-0.002c-0.094-0.005-0.123,0.021-0.123,0.118
			c0.004,0.691,0.002,1.384,0.002,2.074c0,0.027-0.002,0.049-0.006,0.094c-0.02-0.036-0.031-0.054-0.041-0.075
			c-0.334-0.703-0.668-1.406-1-2.111c-0.033-0.073-0.072-0.102-0.152-0.1c-0.232,0.006-0.467,0.006-0.697,0
			c-0.102-0.002-0.125,0.03-0.125,0.129c0.002,0.914,0.002,1.826,0.002,2.738c0,0.036,0,0.07,0,0.121c0.166,0,0.32,0,0.471,0
			c0.144-0.001,0.144-0.001,0.144-0.14c0-0.748,0-1.496,0-2.244c0.006-0.002,0.013-0.002,0.019-0.003
			c0.086,0.185,0.172,0.368,0.258,0.553c0.27,0.583,0.541,1.167,0.816,1.749c0.017,0.038,0.075,0.08,0.116,0.081
			c0.241,0.008,0.48,0.004,0.72,0.005c0.063,0,0.09-0.022,0.09-0.088c-0.002-0.934-0.002-1.869,0-2.805
			C35.018,29.43,34.994,29.403,34.92,29.404z"/>
	</g>
</g>
<g>
	<g>
		<path d="M31.825,32.29c-0.104-0.3-0.208-0.603-0.315-0.908c-0.218-0.628-0.435-1.255-0.65-1.885
			c-0.023-0.072-0.062-0.098-0.139-0.096c-0.177,0.006-0.353,0.008-0.527-0.002c-0.107-0.007-0.148,0.039-0.182,0.133
			c-0.25,0.703-0.502,1.405-0.757,2.107c-0.086,0.241-0.172,0.481-0.268,0.746c0.19,0,0.358-0.004,0.526,0.002
			c0.075,0.002,0.107-0.027,0.129-0.096c0.047-0.15,0.104-0.298,0.148-0.447c0.023-0.07,0.059-0.101,0.139-0.099
			c0.254,0.006,0.51,0.002,0.764,0.002c0.3,0,0.298,0,0.394,0.289c0.037,0.115,0.056,0.267,0.136,0.328
			c0.078,0.058,0.229,0.02,0.346,0.021c0.09,0.002,0.18,0.001,0.281,0.001C31.837,32.337,31.831,32.314,31.825,32.29z
			 M30.005,31.242c0.14-0.401,0.275-0.797,0.423-1.219c0.135,0.418,0.264,0.813,0.395,1.219
			C30.546,31.242,30.283,31.242,30.005,31.242z"/>
	</g>
</g>
<g>
</g>
<g>
</g>
<g>
</g>
<g>
</g>
<g>
</g>
<g>
</g>
<g>
</g>
<g>
</g>
<g>
</g>
<g>
</g>
<g>
</g>
<g>
</g>
<g>
</g>
<g>
</g>
<g>
</g>
</svg>
