<?xml version="1.0" encoding="iso-8859-1"?>
<!-- Generator: Adobe Illustrator 19.0.0, SVG Export Plug-In . SVG Version: 6.00 Build 0)  -->
<svg version="1.1" id="Capa_1" xmlns="http://www.w3.org/2000/svg" xmlns:xlink="http://www.w3.org/1999/xlink" x="0px" y="0px"
	 viewBox="0 0 43.752 43.752" style="enable-background:new 0 0 43.752 43.752;" xml:space="preserve">
<g>
	<g>
		<path d="M17.383,12.486C7.854,12.361,0.07,16.758,0,22.31c-0.028,2.243,1.206,4.336,3.313,6.031
			c-1.036-1.564-1.607-3.262-1.588-4.957c0.073-5.598,7.75-10.035,17.144-9.908c5.125,0.065,9.688,1.478,12.78,3.655
			C28.59,14.404,23.352,12.568,17.383,12.486z"/>
	</g>
</g>
<g>
	<g>
		<path d="M16.232,26.508c-0.262,0-0.86,0.204-1.801,0.61c-0.938,0.406-1.74,0.611-2.405,0.611c-0.856,0-1.589-0.158-2.179-0.465
			c-0.739-0.391-1.104-0.951-1.104-1.685h7.411c0.681,0.002,1.186-0.122,1.511-0.368c0.324-0.245,0.485-0.685,0.485-1.32
			c0-1.771-0.634-3.305-1.905-4.592c-1.272-1.283-2.85-1.927-4.747-1.927c-2.029,0-3.733,0.678-5.108,2.042
			C5.014,20.771,4.326,22.4,4.326,24.31c0,2.004,0.66,3.664,1.986,4.981c1.322,1.316,3.051,1.978,5.187,1.978
			c1.331,0,2.64-0.218,3.92-0.658c1.684-0.584,2.524-1.398,2.524-2.442c0-0.456-0.17-0.847-0.502-1.173
			C17.11,26.672,16.706,26.508,16.232,26.508z M9.579,21.359c0.557-0.477,1.157-0.712,1.802-0.712c0.631,0,1.221,0.235,1.782,0.712
			c0.553,0.476,0.844,1.003,0.86,1.583h-5.28C8.743,22.361,9.02,21.835,9.579,21.359z"/>
	</g>
</g>
<g>
	<g>
		<path d="M41.885,19.425c-1.299-1.369-2.983-2.05-5.049-2.05c-2.049,0-3.731,0.681-5.045,2.05c-1.242,1.32-1.865,2.946-1.865,4.886
			c0,1.938,0.623,3.563,1.865,4.885c1.295,1.385,2.979,2.074,5.045,2.074s3.75-0.689,5.049-2.074
			c1.242-1.32,1.867-2.946,1.867-4.885C43.752,22.372,43.127,20.748,41.885,19.425z M38.947,26.539
			c-0.506,0.684-1.209,1.02-2.111,1.02c-0.899,0-1.604-0.334-2.106-1.02c-0.451-0.613-0.676-1.357-0.676-2.229
			s0.225-1.608,0.676-2.207c0.504-0.679,1.207-1.018,2.106-1.018c0.902,0,1.605,0.338,2.111,1.018
			c0.449,0.597,0.676,1.334,0.676,2.207S39.396,25.925,38.947,26.539z"/>
	</g>
</g>
<g>
	<g>
		<path d="M29.795,27.437c-0.332-0.358-0.729-0.54-1.179-0.537c-0.313,0-0.824,0.109-1.522,0.328
			c-0.697,0.224-1.244,0.332-1.648,0.332c-0.909,0-1.612-0.349-2.12-1.043c-0.454-0.599-0.683-1.336-0.683-2.205
			c0-0.924,0.254-1.672,0.76-2.257c0.543-0.645,1.3-0.967,2.279-0.967c0.366,0,0.864,0.103,1.493,0.304
			c0.629,0.205,1.107,0.309,1.441,0.309c0.484,0,0.891-0.183,1.203-0.54c0.318-0.357,0.473-0.772,0.473-1.246
			c0-0.927-0.596-1.613-1.787-2.05c-0.856-0.326-1.885-0.489-3.075-0.489c-2.07,0-3.735,0.673-5.005,2.013
			c-1.274,1.342-1.906,2.982-1.906,4.921s0.622,3.565,1.866,4.885c1.294,1.385,2.975,2.074,5.045,2.074
			c1.07,0,2.086-0.201,3.051-0.606c1.208-0.507,1.812-1.191,1.812-2.056C30.293,28.187,30.129,27.795,29.795,27.437z"/>
	</g>
</g>
<g>
</g>
<g>
</g>
<g>
</g>
<g>
</g>
<g>
</g>
<g>
</g>
<g>
</g>
<g>
</g>
<g>
</g>
<g>
</g>
<g>
</g>
<g>
</g>
<g>
</g>
<g>
</g>
<g>
</g>
</svg>
