<?xml version="1.0" encoding="iso-8859-1"?>
<!-- Generator: Adobe Illustrator 19.0.0, SVG Export Plug-In . SVG Version: 6.00 Build 0)  -->
<svg version="1.1" id="Capa_1" xmlns="http://www.w3.org/2000/svg" xmlns:xlink="http://www.w3.org/1999/xlink" x="0px" y="0px"
	 viewBox="0 0 54.667 54.667" style="enable-background:new 0 0 54.667 54.667;" xml:space="preserve">
<g>
	<g>
		<path d="M20.044,27.558c-0.022-0.876-0.398-1.672-1.24-2.11c-1.219-0.634-3.314-0.633-4.351,0.891
			c-0.024,0.036-0.012,0.097-0.019,0.146c-0.038-0.029-0.075-0.059-0.113-0.089c0-0.346,0-0.691,0-1.064c-0.777,0-1.504,0-2.224,0
			c0,2.861,0,5.695,0,8.521c0.79,0,1.557,0,2.347,0c0-0.148,0-0.277,0-0.404c0-1.402-0.021-2.807,0.013-4.207
			c0.014-0.492,0.102-1.006,0.273-1.465c0.248-0.659,0.98-0.955,1.795-0.83c0.656,0.1,1.042,0.496,1.153,1.223
			c0.047,0.301,0.073,0.604,0.073,0.907c0.008,1.473,0.005,2.944,0.005,4.419c0,0.122,0,0.246,0,0.357c0.818,0,1.583,0,2.306,0
			C20.062,31.736,20.101,29.646,20.044,27.558z"/>
	</g>
</g>
<g>
	<g>
		<path d="M27.113,20.545c0,1.893,0,3.787,0,5.734c-0.165-0.176-0.27-0.301-0.388-0.413c-1.352-1.284-3.851-1.03-4.998,0.566
			c-1.211,1.683-1.234,3.546-0.49,5.404c0.708,1.777,2.381,2.586,4.252,2.185c0.724-0.158,1.296-0.543,1.77-1.25
			c0,0.438,0,0.758,0,1.086c0.761,0,1.488,0,2.24,0c0-4.453,0-8.882,0-13.312C28.705,20.545,27.909,20.545,27.113,20.545z
			 M26.906,31.199c-0.254,0.683-0.788,1.054-1.515,1.116c-0.72,0.061-1.303-0.209-1.72-0.808c-0.676-0.976-0.711-2.808-0.07-3.81
			c0.424-0.66,1.054-0.893,1.806-0.833c0.704,0.056,1.235,0.412,1.482,1.062c0.304,0.999,0.265,1.627,0.265,1.627
			S27.23,30.32,26.906,31.199z"/>
	</g>
</g>
<g>
	<g>
		<path d="M8.717,25.32c0,2.875,0,5.707,0,8.535c0.781,0,1.533,0,2.293,0c0-2.854,0-5.685,0-8.535
			C10.239,25.32,9.484,25.32,8.717,25.32z"/>
	</g>
</g>
<g>
	<g>
		<path d="M8.491,20.999l-0.008,0.008L8.48,22.173l0.942,0.556l-0.947,0.643l-0.002,1.141c0.961-0.621,1.854-1.196,2.779-1.795
			L8.491,20.999z"/>
	</g>
</g>
<g>
	<g>
		<path d="M6.338,25.299c-0.242-0.008-0.35,0.081-0.443,0.291c-0.537,1.217-1.088,2.428-1.638,3.641
			c-0.049,0.107-0.105,0.215-0.186,0.375c-0.073-0.16-0.119-0.252-0.159-0.347c-0.533-1.231-1.071-2.463-1.596-3.699
			c-0.081-0.189-0.177-0.265-0.388-0.259C1.286,25.319,0.643,25.314,0,25.319c0,0.022,0,0.046,0,0.069
			c0.043,0.067,0.095,0.133,0.128,0.204c1.248,2.625,2.493,5.25,3.74,7.875c0.059,0.12,0.122,0.238,0.214,0.412
			c1.398-2.886,2.765-5.705,4.155-8.573C7.568,25.306,6.951,25.319,6.338,25.299z"/>
	</g>
</g>
<g>
	<g>
		<path d="M30.673,20.633l-0.006,0.007l-0.004,1.168l0.942,0.556l-0.944,0.642l-0.002,1.141c0.959-0.62,1.853-1.196,2.778-1.795
			L30.673,20.633z"/>
	</g>
</g>
<g>
	<g>
		<path d="M54.5,32.104c-0.023-1.487-0.003-2.971-0.008-4.455c-0.004-1.218-0.508-1.917-1.662-2.304
			c-0.846-0.283-1.723-0.307-2.6-0.261c-0.89,0.044-1.744,0.231-2.473,0.771c-0.689,0.511-1.025,1.204-1.068,2.077
			c0.791,0,1.549,0,2.199,0c0.276-0.397,0.433-0.826,0.74-1.024c0.624-0.403,1.344-0.356,2.014-0.046
			c0.408,0.184,0.481,0.588,0.479,0.984c-0.003,0.37-0.234,0.601-0.58,0.703c-0.291,0.085-0.588,0.15-0.885,0.205
			c-0.872,0.158-1.765,0.234-2.61,0.48c-1.131,0.324-1.626,1.127-1.623,2.33c0.002,1.164,0.566,1.994,1.638,2.347
			c0.339,0.111,0.709,0.165,1.065,0.183c1.128,0.061,2.18-0.174,3.063-0.982c0.07,0.277,0.129,0.518,0.187,0.742
			c0.815,0,1.59,0,2.291,0C54.607,33.256,54.512,32.68,54.5,32.104z M52.062,31.107c-0.101,0.699-0.496,1.194-1.205,1.326
			c-0.406,0.071-0.84,0.067-1.246,0.008c-0.487-0.069-0.75-0.388-0.815-0.84c-0.073-0.471,0.104-0.942,0.531-1.121
			c0.432-0.185,0.909-0.269,1.37-0.377c0.241-0.057,0.487-0.063,0.725-0.119c0.222-0.05,0.439-0.138,0.73-0.234
			C52.124,30.229,52.126,30.672,52.062,31.107z"/>
	</g>
</g>
<g>
	<g>
		<path d="M43.23,20.633l-0.005,0.007l-0.006,1.168l0.943,0.556l-0.945,0.642l-0.001,1.141c0.959-0.62,1.851-1.196,2.777-1.795
			L43.23,20.633z"/>
	</g>
</g>
<g>
	<g>
		<path d="M40.343,30.575c-0.23-0.005-0.314,0.062-0.369,0.296c-0.214,0.911-0.801,1.399-1.693,1.452
			c-0.814,0.048-1.473-0.392-1.793-1.241c-0.381-1.004-0.359-2.019,0.029-3.015c0.213-0.541,0.575-0.959,1.162-1.135
			c1.102-0.33,1.911,0.148,2.299,1.375c0.736,0,1.481,0,2.276,0c-0.016-0.737-0.259-1.356-0.703-1.893
			c-1.32-1.589-4.337-1.846-6.051-0.492c-1.347,1.062-1.718,2.538-1.624,4.165c0.083,1.441,0.684,2.612,1.934,3.392
			c0.902,0.562,1.899,0.682,2.935,0.608c1.943-0.142,3.443-1.609,3.56-3.507C41.649,30.58,40.993,30.59,40.343,30.575z"/>
	</g>
</g>
<g>
	<g>
		<path d="M30.659,25.332c0,2.859,0,5.691,0,8.527c0.78,0,1.536,0,2.308,0c0-2.851,0-5.686,0-8.527
			C32.186,25.332,31.424,25.332,30.659,25.332z"/>
	</g>
</g>
<g>
	<g>
		<path d="M43.219,25.32c0,2.871,0,5.705,0,8.539c0.783,0,1.539,0,2.309,0c0-2.854,0-5.687,0-8.539
			C44.757,25.32,44.001,25.32,43.219,25.32z"/>
	</g>
</g>
<g>
</g>
<g>
</g>
<g>
</g>
<g>
</g>
<g>
</g>
<g>
</g>
<g>
</g>
<g>
</g>
<g>
</g>
<g>
</g>
<g>
</g>
<g>
</g>
<g>
</g>
<g>
</g>
<g>
</g>
</svg>
