<?xml version="1.0" encoding="iso-8859-1"?>
<!-- Generator: Adobe Illustrator 19.0.0, SVG Export Plug-In . SVG Version: 6.00 Build 0)  -->
<svg version="1.1" id="Capa_1" xmlns="http://www.w3.org/2000/svg" xmlns:xlink="http://www.w3.org/1999/xlink" x="0px" y="0px"
	 viewBox="0 0 33.738 33.738" style="enable-background:new 0 0 33.738 33.738;" xml:space="preserve">
<g>
	<g>
		<path d="M3.44,5.89H3.136c-1.162,0.051-2.63,0.557-2.63,0.86c0,0.101,0,0.153,0.051,0.252l0.252,0.607
			C0.852,7.707,0.86,7.711,0.912,7.711c0.202,0,1.026-0.61,2.242-0.61c0.052,0,0.034,0.004,0.085,0.004
			c1.314,0,1.667,0.606,1.667,1.72v0.658c-0.405,0-1.062,0.051-1.77,0.151C1.67,9.887,0,10.647,0,12.772
			c0,1.667,0.911,2.63,2.428,2.63h0.708c1.164-0.103,1.922-0.355,2.125-0.507c0.962-0.606,1.063-1.771,1.063-2.731V8.522
			C6.324,6.903,5.566,5.89,3.44,5.89z M4.906,13.427c0,0.303-0.91,0.658-1.77,0.708H2.833c-0.963,0-1.468-0.758-1.468-1.516
			c0-1.114,0.86-1.569,1.771-1.771c0.708-0.202,1.417-0.202,1.77-0.202V13.427z"/>
	</g>
</g>
<g>
	<g>
		<path d="M14.685,1.692c-0.659,0-1.163,0.506-1.163,1.113c0,0.657,0.504,1.162,1.163,1.163c0.606,0,1.111-0.505,1.111-1.163
			C15.796,2.198,15.291,1.692,14.685,1.692z"/>
	</g>
</g>
<g>
	<g>
		<path d="M11.244,17.525h-0.557c-1.113,0.101-1.871,0.506-2.276,0.759c-1.062,0.559-1.062,1.921-1.062,2.429v9.763
			c0,0.102,0,0.254,0.101,0.254c0.15-0.051,0.101,0,0.253-0.051l0.909-0.254c0.102,0,0.152-0.102,0.152-0.201v-3.848
			c0.455,0.305,1.011,0.608,1.923,0.659h0.354c2.177,0,3.138-2.274,3.138-4.958C14.179,19.75,13.267,17.525,11.244,17.525z
			 M10.891,25.769h-0.204c-0.809-0.049-1.364-0.305-1.923-0.606v-5.108c0-0.556,0.76-1.242,1.974-1.295
			c0.114-0.02,0.153-0.02,0.253-0.02c1.519,0,1.62,1.82,1.62,3.388C12.611,23.95,12.458,25.769,10.891,25.769z"/>
	</g>
</g>
<g>
	<g>
		<path d="M8.918,8.319c0-0.909,0.657-1.264,1.418-1.264c0.959,0,1.769,0.506,1.87,0.506c0.102,0,0.152-0.052,0.253-0.204
			l0.254-0.506c0-0.101,0.05-0.151,0.05-0.202c0-0.1-0.05-0.202-0.2-0.253c-0.508-0.253-1.57-0.557-2.227-0.557
			c-1.673,0-2.834,1.063-2.834,2.63c0,2.834,4.147,2.378,4.147,4.351c0,0.91-0.656,1.365-1.468,1.365
			c-1.315,0-2.276-0.658-2.426-0.658c-0.052,0-0.154,0-0.204,0.153l-0.253,0.607c-0.049,0.05-0.049,0.1-0.049,0.202
			c0,0.353,1.921,0.911,2.831,0.911c1.619,0,3.037-0.91,3.038-2.679C13.118,9.787,8.918,10.393,8.918,8.319z"/>
	</g>
</g>
<g>
	<g>
		<path d="M32.516,18.864c0.101-0.04,0.182-0.097,0.248-0.17c0.062-0.073,0.096-0.167,0.096-0.28c0-0.085-0.016-0.155-0.047-0.21
			c-0.03-0.057-0.08-0.104-0.147-0.143c-0.063-0.034-0.128-0.059-0.19-0.065c-0.062-0.007-0.146-0.012-0.254-0.012h-0.478v1.563
			h0.282v-0.604h0.211l0.484,0.604h0.389L32.516,18.864z M32.348,18.71c-0.049,0.012-0.102,0.018-0.154,0.018h-0.168V18.2h0.197
			c0.056,0,0.102,0.004,0.138,0.01c0.034,0.005,0.067,0.019,0.096,0.037c0.032,0.022,0.058,0.049,0.07,0.08
			c0.014,0.03,0.021,0.065,0.021,0.108c0,0.054-0.008,0.098-0.02,0.133c-0.016,0.033-0.035,0.064-0.064,0.091
			C32.43,18.681,32.391,18.699,32.348,18.71z"/>
	</g>
</g>
<g>
	<g>
		<path d="M33.303,17.753c-0.289-0.29-0.639-0.434-1.045-0.434c-0.408,0-0.759,0.144-1.048,0.434
			c-0.288,0.288-0.434,0.637-0.434,1.044c0,0.409,0.146,0.759,0.434,1.048c0.289,0.289,0.64,0.432,1.048,0.432
			c0.406,0,0.756-0.145,1.045-0.432c0.289-0.289,0.435-0.639,0.435-1.048C33.738,18.39,33.592,18.041,33.303,17.753z M33.162,19.709
			c-0.25,0.252-0.553,0.376-0.904,0.376c-0.354,0-0.656-0.124-0.906-0.376c-0.25-0.251-0.375-0.556-0.375-0.912
			s0.125-0.659,0.375-0.909c0.25-0.252,0.553-0.377,0.906-0.377c0.353,0,0.654,0.125,0.904,0.377
			c0.249,0.25,0.375,0.553,0.375,0.909S33.411,19.457,33.162,19.709z"/>
	</g>
</g>
<g>
	<g>
		<path d="M29.508,25.669l-0.05-7.737c0-0.153,0.05-0.354-0.102-0.354l-1.012-0.053c-0.152,0-0.252,0-0.252,0.102l-0.054,7.59
			c-0.502,0.454-1.111,0.605-2.021,0.605c-1.164,0.051-1.871-1.162-1.924-2.631c-0.102-1.871,0-3.541,0-5.412
			c0-0.051-0.205-0.201-0.354-0.201h-0.911c0,0-0.2,0.252-0.2,0.303c0.05,1.011,0.401,7.283,0.656,7.74
			c0.103,0.15,0.304,0.456,0.505,0.707c0.203,0.204,0.456,0.356,0.76,0.557c0.655,0.405,2.731,0.254,3.543-0.455l0.051,0.86
			l-0.051,0.96c-0.054,0.962-0.054,2.529-1.52,2.58c-0.961,0-1.417-0.606-1.569-0.1c0,0.047-0.152,0.757-0.101,0.858
			c0.15,0.202,0.605,0.404,1.417,0.456c1.064,0.048,2.277-0.507,2.631-1.266C29.557,29.565,29.508,26.731,29.508,25.669z"/>
	</g>
</g>
<g>
	<g>
		<path d="M18.473,17.601h-0.306c-1.162,0.051-2.63,0.557-2.63,0.859c0,0.102,0,0.152,0.052,0.252l0.251,0.607
			c0.044,0.098,0.05,0.102,0.102,0.102c0.203,0,1.028-0.611,2.243-0.611c0.051,0,0.033,0.004,0.082,0.004
			c1.314,0,1.67,0.607,1.67,1.721v0.657c-0.403,0-1.062,0.052-1.771,0.151c-1.467,0.254-3.136,1.012-3.136,3.137
			c0,1.668,0.91,2.632,2.428,2.632h0.708c1.163-0.103,1.925-0.354,2.124-0.509c0.965-0.605,1.062-1.771,1.062-2.729V20.23
			C21.354,18.614,20.598,17.601,18.473,17.601z M18.165,25.849h-0.304c-0.962,0-1.468-0.761-1.468-1.519
			c0-1.112,0.86-1.569,1.771-1.771c0.709-0.203,1.416-0.203,1.771-0.203v2.784h0.001C19.936,25.443,19.028,25.797,18.165,25.849z"/>
	</g>
</g>
<g>
	<g>
		<path d="M20.347,5.89h-0.303c-1.164,0.051-2.631,0.557-2.631,0.86c0,0.101,0,0.153,0.051,0.252l0.252,0.607
			c0.043,0.098,0.051,0.102,0.104,0.102c0.2,0,1.026-0.61,2.241-0.61c0.053,0,0.033,0.004,0.084,0.004
			c1.313,0,1.671,0.606,1.671,1.72v0.658c-0.406,0-1.062,0.051-1.771,0.151c-1.467,0.253-3.137,1.013-3.137,3.138
			c0,1.667,0.911,2.63,2.427,2.63h0.71c1.163-0.103,1.922-0.355,2.125-0.507c0.963-0.606,1.062-1.771,1.062-2.731l0.001-3.643
			C23.233,6.903,22.472,5.89,20.347,5.89z M20.046,14.135h-0.304c-0.963,0-1.468-0.758-1.468-1.516c0-1.114,0.859-1.569,1.771-1.771
			c0.709-0.202,1.414-0.202,1.771-0.202v2.781h0.001C21.817,13.73,20.905,14.085,20.046,14.135z"/>
	</g>
</g>
<g>
	<g>
		<path d="M15.241,6.143h-0.962c-0.152,0-0.253,0.052-0.253,0.203v8.598c0,0.152,0.101,0.203,0.253,0.203h0.962
			c0.151,0,0.252-0.051,0.252-0.203V6.395C15.493,6.244,15.442,6.143,15.241,6.143z"/>
	</g>
</g>
<g>
</g>
<g>
</g>
<g>
</g>
<g>
</g>
<g>
</g>
<g>
</g>
<g>
</g>
<g>
</g>
<g>
</g>
<g>
</g>
<g>
</g>
<g>
</g>
<g>
</g>
<g>
</g>
<g>
</g>
</svg>
