<?xml version="1.0" encoding="iso-8859-1"?>
<!-- Generator: Adobe Illustrator 19.0.0, SVG Export Plug-In . SVG Version: 6.00 Build 0)  -->
<svg version="1.1" id="Capa_1" xmlns="http://www.w3.org/2000/svg" xmlns:xlink="http://www.w3.org/1999/xlink" x="0px" y="0px"
	 viewBox="0 0 42.32 42.32" style="enable-background:new 0 0 42.32 42.32;" xml:space="preserve">
<g>
	<g>
		<polygon points="39.275,17.377 39.275,24.463 21.061,29.01 2.824,24.461 2.824,17.377 0,17.377 0,32.845 42.32,32.845 
			42.32,17.377 		"/>
	</g>
</g>
<g>
	<g>
		<path d="M3.976,9.475v14.387l17.179,4.284l17.157-4.282V9.475H3.976z M26.201,14.857c0.038-0.053,0.085-0.104,0.14-0.15
			c0.054-0.047,0.118-0.089,0.189-0.129c0.21-0.122,0.655-0.182,1.009-0.18c0.337,0,0.607,0.02,0.812,0.057
			c0.101,0.019,0.195,0.048,0.281,0.087c0.083,0.04,0.162,0.089,0.229,0.149c0.182,0.147,0.309,0.494,0.31,0.786v1.293
			c0,0.237,0.019,0.336,0.067,0.457c0.018,0.05,0.043,0.105,0.071,0.166h-1.053c-0.081-0.145-0.087-0.181-0.103-0.249
			c-0.007-0.031-0.013-0.067-0.021-0.11c-0.146,0.142-0.292,0.243-0.438,0.304c-0.217,0.088-0.449,0.121-0.692,0.122
			c-0.349,0-0.613-0.081-0.795-0.243c-0.091-0.082-0.158-0.172-0.203-0.271c-0.047-0.099-0.068-0.209-0.068-0.327
			c0-0.112,0.017-0.213,0.05-0.305c0.033-0.091,0.083-0.173,0.146-0.245c0.065-0.072,0.158-0.134,0.279-0.188
			c0.121-0.052,0.267-0.097,0.443-0.132c0.422-0.085,0.695-0.144,0.82-0.178c0.127-0.035,0.26-0.08,0.396-0.134
			c0-0.138-0.028-0.235-0.085-0.29c-0.08-0.071-0.184-0.082-0.301-0.083c-0.092,0-0.174,0.007-0.24,0.022
			c-0.116,0.03-0.189,0.049-0.271,0.166c-0.029,0.044-0.054,0.097-0.076,0.16L26.026,15.3
			C26.066,15.111,26.125,14.965,26.201,14.857z M22.57,13.351h2.074c0.456,0,0.791,0.108,1.019,0.322
			c0.11,0.108,0.196,0.238,0.253,0.391c0.057,0.152,0.083,0.328,0.083,0.527c0,0.409-0.121,0.727-0.366,0.957
			c-0.123,0.115-0.278,0.201-0.466,0.259c-0.347,0.119-0.872,0.078-1.343,0.085v1.5H22.57V13.351z M21.875,17.004
			c-0.088,0.352-0.224,0.662-0.4,0.932c-0.177,0.269-0.394,0.498-0.661,0.696c-0.266,0.198-0.583,0.367-0.959,0.494
			c-0.378,0.126-0.818,0.203-1.258,0.232c-0.108,0.016-0.217,0.014-0.326,0.018c-0.727,0.012-1.454,0.004-2.182,0.006v2.701h-3.405
			V19.26c-0.187,0.03-0.377,0.054-0.569,0.066c-0.107,0.016-0.216,0.014-0.325,0.019c-0.728,0.011-1.455,0.003-2.182,0.005v2.702
			H6.204v-9.278h5.634c0.286,0,0.569,0.017,0.839,0.05v6.418c0.147-0.029,0.301-0.051,0.452-0.098
			c0.335-0.083,0.654-0.226,0.934-0.395c0.281-0.169,0.52-0.37,0.72-0.608c0.199-0.238,0.358-0.512,0.475-0.824
			c0.116-0.312,0.189-0.662,0.217-1.027c0.028-0.365,0.01-0.746-0.052-1.088c-0.061-0.343-0.167-0.649-0.311-0.917
			c-0.143-0.267-0.327-0.497-0.552-0.698c-0.225-0.2-0.492-0.372-0.804-0.504c-0.324-0.137-0.697-0.226-1.072-0.272v-0.006h5.635
			c0.47,0,0.943,0.041,1.342,0.134c0.399,0.092,0.725,0.228,1.006,0.401c0.281,0.172,0.517,0.381,0.708,0.623
			c0.19,0.242,0.335,0.515,0.439,0.837c0.105,0.323,0.168,0.693,0.178,1.075S21.963,16.65,21.875,17.004z M25.167,20.521
			c-0.347,0.119-0.872,0.078-1.343,0.087v1.5H22.57v-4.043h2.074c0.456,0,0.791,0.108,1.019,0.322
			c0.11,0.108,0.196,0.239,0.253,0.391c0.057,0.152,0.083,0.329,0.083,0.527c0,0.409-0.121,0.728-0.366,0.957
			C25.51,20.377,25.355,20.464,25.167,20.521z M28.911,21.747c-0.148,0.142-0.327,0.25-0.534,0.322
			c-0.207,0.072-0.44,0.107-0.704,0.107c-0.239,0-0.452-0.029-0.64-0.088c-0.192-0.061-0.358-0.152-0.504-0.27
			c-0.176-0.151-0.311-0.321-0.401-0.514c-0.09-0.193-0.134-0.411-0.134-0.65c0-0.446,0.149-0.814,0.453-1.104
			c0.149-0.145,0.325-0.253,0.53-0.326c0.203-0.072,0.433-0.108,0.689-0.108c0.292,0,0.55,0.042,0.771,0.127
			c0.222,0.084,0.409,0.212,0.558,0.382c0.123,0.136,0.21,0.289,0.271,0.458c0.062,0.168,0.09,0.352,0.09,0.553
			C29.356,21.087,29.209,21.455,28.911,21.747z M30.938,22.108h-1.12V19.18h1.12V22.108z M31.275,18.041
			c-0.068,0.12-0.136,0.211-0.205,0.274c-0.097,0.089-0.22,0.155-0.368,0.199c-0.148,0.044-0.322,0.066-0.521,0.066
			c-0.082,0-0.185-0.006-0.31-0.017s-0.272-0.028-0.44-0.049l-0.088-0.784c0.174,0.055,0.353,0.077,0.541,0.077
			c0.131,0,0.238-0.03,0.32-0.091c0.041-0.03,0.078-0.072,0.113-0.127c0.035-0.054,0.067-0.12,0.095-0.199l-1.228-2.925h1.181
			l0.604,1.949l0.562-1.949h1.106l-1.162,3.128C31.409,17.77,31.342,17.921,31.275,18.041z M34.634,22.109h-1.127V20.5
			c0-0.184-0.038-0.314-0.104-0.39c-0.084-0.091-0.182-0.114-0.287-0.115c-0.137,0-0.246,0.051-0.331,0.154
			c-0.042,0.051-0.076,0.123-0.097,0.216c-0.02,0.091-0.03,0.205-0.03,0.338v1.406h-1.122v-2.928h1.045v0.477
			c0.157-0.196,0.312-0.334,0.477-0.417c0.181-0.094,0.375-0.125,0.584-0.125c0.311,0,0.554,0.091,0.729,0.276
			c0.088,0.093,0.154,0.21,0.198,0.353c0.044,0.143,0.065,0.31,0.065,0.503C34.634,20.248,34.634,22.109,34.634,22.109z
			 M36.414,22.173c-0.279,0-0.486-0.035-0.617-0.106c-0.133-0.07-0.231-0.18-0.295-0.326c-0.031-0.074-0.053-0.168-0.07-0.287
			c-0.014-0.117-0.022-0.258-0.022-0.422v-1.031h-0.413l-0.003-0.82h0.413v-0.538l1.125-0.577v1.114h0.618V20h-0.618v1.038
			c0,0.062,0.003,0.115,0.009,0.156c0.006,0.041,0.013,0.071,0.027,0.092c0.106,0.138,0.212,0.094,0.342,0.076
			c0.056-0.013,0.123-0.032,0.198-0.055l0.083,0.775C36.928,22.14,36.667,22.173,36.414,22.173z"/>
	</g>
</g>
<g>
	<g>
		<path d="M28.072,20.072c-0.119-0.14-0.248-0.184-0.389-0.185c-0.164,0-0.297,0.063-0.403,0.189
			c-0.056,0.063-0.095,0.142-0.121,0.238c-0.024,0.096-0.04,0.208-0.04,0.336c0,0.262,0.055,0.454,0.159,0.579
			c0.12,0.142,0.255,0.187,0.396,0.188c0.163,0,0.295-0.062,0.399-0.186c0.052-0.062,0.091-0.142,0.116-0.24
			c0.027-0.1,0.041-0.217,0.041-0.353C28.23,20.384,28.177,20.195,28.072,20.072z"/>
	</g>
</g>
<g>
	<g>
		<path d="M18.299,15.237c-0.077-0.064-0.164-0.118-0.265-0.162c-0.101-0.043-0.214-0.078-0.331-0.097
			c-0.542-0.087-1.077-0.036-1.616-0.047v2.333h0.831c0.436,0.002,0.903-0.036,1.239-0.235c0.096-0.055,0.178-0.119,0.247-0.189
			c0.156-0.161,0.227-0.329,0.265-0.506C18.735,15.927,18.668,15.566,18.299,15.237z"/>
	</g>
</g>
<g>
	<g>
		<path d="M11.819,15.204c-0.077-0.062-0.164-0.118-0.266-0.161c-0.101-0.045-0.214-0.078-0.331-0.098
			c-0.541-0.086-1.077-0.036-1.615-0.047v2.334h0.831c0.436,0.002,0.903-0.037,1.239-0.236c0.096-0.055,0.179-0.118,0.247-0.188
			c0.156-0.161,0.227-0.33,0.265-0.507C12.255,15.893,12.187,15.533,11.819,15.204z"/>
	</g>
</g>
<g>
	<g>
		<path d="M24.659,14.305c-0.043-0.044-0.104-0.078-0.184-0.1c-0.154-0.048-0.422-0.029-0.649-0.033v0.902h0.308
			c0.237-0.001,0.406-0.042,0.505-0.126c0.111-0.097,0.146-0.205,0.146-0.321C24.785,14.501,24.743,14.393,24.659,14.305z"/>
	</g>
</g>
<g>
	<g>
		<path d="M24.659,19.02c-0.043-0.044-0.104-0.077-0.184-0.1c-0.154-0.048-0.422-0.028-0.649-0.032v0.901h0.308
			c0.237,0.001,0.406-0.041,0.505-0.125c0.111-0.097,0.146-0.205,0.146-0.321C24.785,19.216,24.743,19.109,24.659,19.02z"/>
	</g>
</g>
<g>
	<g>
		<path d="M27.591,16.148c-0.117,0.031-0.209,0.06-0.282,0.091c-0.071,0.029-0.125,0.059-0.153,0.088
			c-0.067,0.066-0.095,0.135-0.095,0.207c0,0.089,0.031,0.161,0.094,0.217c0.076,0.068,0.169,0.083,0.271,0.084
			c0.125,0,0.241-0.03,0.35-0.091c0.183-0.1,0.255-0.24,0.279-0.373c0.021-0.103,0.016-0.241,0.017-0.369
			C27.914,16.059,27.753,16.107,27.591,16.148z"/>
	</g>
</g>
<g>
</g>
<g>
</g>
<g>
</g>
<g>
</g>
<g>
</g>
<g>
</g>
<g>
</g>
<g>
</g>
<g>
</g>
<g>
</g>
<g>
</g>
<g>
</g>
<g>
</g>
<g>
</g>
<g>
</g>
</svg>
