<?xml version="1.0" encoding="iso-8859-1"?>
<!-- Generator: Adobe Illustrator 19.0.0, SVG Export Plug-In . SVG Version: 6.00 Build 0)  -->
<svg version="1.1" id="Capa_1" xmlns="http://www.w3.org/2000/svg" xmlns:xlink="http://www.w3.org/1999/xlink" x="0px" y="0px"
	 viewBox="0 0 51.603 51.603" style="enable-background:new 0 0 51.603 51.603;" xml:space="preserve">
<g>
	<g>
		<path d="M41.792,25.076c1.127,0,2.254,0,3.379,0c0.053,0,0.104,0,0.172,0c0.008-0.575,0.021-1.13-0.119-1.673
			c-0.191-0.715-0.592-1.248-1.316-1.491c-0.465-0.157-0.942-0.178-1.426-0.111c-0.863,0.116-1.517,0.55-1.92,1.325
			c-0.365,0.696-0.439,1.443-0.324,2.212c0.188,1.265,1.084,2.039,2.347,2.212c0.454,0.063,0.909,0.055,1.364-0.006
			c0.412-0.056,0.813-0.146,1.192-0.336c0.078-0.041,0.111-0.084,0.111-0.179c-0.009-0.306-0.005-0.61-0.005-0.917
			c0-0.035-0.004-0.068-0.008-0.109c-0.03,0.008-0.051,0.012-0.067,0.018c-0.677,0.279-1.377,0.392-2.104,0.314
			c-0.363-0.041-0.709-0.146-1.006-0.375c-0.242-0.185-0.39-0.425-0.416-0.732C41.631,25.076,41.629,25.076,41.792,25.076z
			 M43.044,22.941c0.508,0.045,0.938,0.517,0.916,1.011c-0.744,0-1.488,0-2.242,0C41.796,23.328,42.386,22.884,43.044,22.941z"/>
	</g>
</g>
<g>
	<g>
		<path d="M5.823,24.267c-0.181-1.222-1.082-2.187-2.281-2.444c-0.135-0.028-0.271-0.051-0.406-0.076c-0.139,0-0.277,0-0.416,0
			c-0.135,0.025-0.271,0.047-0.406,0.076c-1.201,0.261-2.104,1.229-2.279,2.441C0.025,24.333,0.012,24.4,0,24.467
			c0,1.658,0,3.315,0,4.974c0.445,0.002,0.891,0.004,1.336,0.004c0.162,0,0.162,0,0.162-0.162c0-0.629,0-1.256,0.002-1.885
			c0-0.049,0.008-0.1,0.014-0.158c0.049,0.021,0.08,0.031,0.107,0.047c0.574,0.281,1.174,0.367,1.807,0.266
			C4.961,27.305,6.051,25.816,5.823,24.267z M2.921,26.098c-0.787-0.006-1.434-0.657-1.418-1.428c0.016-0.793,0.656-1.43,1.43-1.419
			c0.793,0.01,1.42,0.646,1.416,1.43C4.343,25.471,3.708,26.102,2.921,26.098z"/>
	</g>
</g>
<g>
	<g>
		<path d="M12.149,24.196c-0.179-1.133-1.04-2.074-2.154-2.347c-0.17-0.042-0.342-0.068-0.512-0.103c-0.139,0-0.277,0-0.418,0
			c-0.123,0.021-0.248,0.038-0.369,0.064c-1.578,0.34-2.568,1.791-2.297,3.375c0.273,1.596,1.82,2.688,3.451,2.35
			C11.416,27.213,12.399,25.765,12.149,24.196z M9.265,26.098c-0.785-0.008-1.428-0.651-1.42-1.428
			c0.008-0.784,0.66-1.431,1.434-1.419c0.869,0.013,1.447,0.746,1.418,1.491C10.667,25.478,10.025,26.104,9.265,26.098z"/>
	</g>
</g>
<g>
	<g>
		<path d="M50.072,21.912c-0.1,0-0.147,0.033-0.19,0.13c-0.442,1.212-0.892,2.423-1.338,3.634c-0.016,0.047-0.041,0.092-0.07,0.162
			c-0.03-0.076-0.048-0.125-0.069-0.174c-0.453-1.208-0.908-2.416-1.358-3.626c-0.033-0.088-0.074-0.127-0.175-0.126
			c-0.485,0.005-0.973,0.002-1.456,0.003c-0.039,0-0.078,0.005-0.132,0.009c0.025,0.063,0.041,0.113,0.062,0.161
			c0.746,1.856,1.49,3.712,2.229,5.57c0.026,0.067,0.026,0.161,0.004,0.229c-0.111,0.311-0.232,0.617-0.35,0.926
			c-0.135,0.35-0.27,0.697-0.406,1.047c0.556,0,1.108,0,1.666,0c0.603-1.539,1.203-3.078,1.806-4.616
			c0.418-1.069,0.834-2.139,1.252-3.208c0.015-0.032,0.035-0.061,0.056-0.091c0-0.007,0-0.015,0-0.024
			C51.093,21.917,50.585,21.918,50.072,21.912z"/>
	</g>
</g>
<g>
	<g>
		<path d="M33.927,24.253c-0.179-1.182-1.037-2.128-2.195-2.413c-0.162-0.04-0.326-0.063-0.49-0.094c-0.14,0-0.276,0-0.416,0
			c-0.096,0.018-0.188,0.037-0.285,0.053c-1.598,0.267-2.704,1.818-2.364,3.454c0.328,1.57,1.771,2.551,3.354,2.297
			C33.08,27.3,34.164,25.808,33.927,24.253z M31.037,26.098c-0.84,0.004-1.442-0.716-1.426-1.445
			c0.021-0.767,0.647-1.403,1.422-1.402c0.781,0,1.424,0.642,1.429,1.424C32.466,25.451,31.822,26.094,31.037,26.098z"/>
	</g>
</g>
<g>
	<g>
		<path d="M39.689,23.981c0-0.215-0.016-0.433-0.057-0.64c-0.129-0.745-0.547-1.248-1.291-1.43c-0.299-0.073-0.61-0.115-0.918-0.121
			c-0.369-0.007-0.74,0.027-1.108,0.066c-0.592,0.064-1.173,0.194-1.738,0.383c-0.077,0.027-0.106,0.064-0.106,0.148
			c0.002,1.66,0.002,3.316,0,4.974c0,0.09,0.026,0.118,0.119,0.118c0.451-0.006,0.9-0.002,1.349-0.002
			c0.033,0,0.064-0.008,0.1-0.014c0-0.051,0-0.09,0-0.131c0-1.243,0.002-2.483-0.002-3.724c0-0.1,0.031-0.144,0.123-0.174
			c0.381-0.129,0.773-0.17,1.17-0.146c0.416,0.025,0.709,0.266,0.813,0.659c0.029,0.113,0.039,0.233,0.039,0.35
			c0.004,1.007,0.002,2.017,0.002,3.025c0,0.045,0,0.092,0,0.146c0.509,0,0.996,0,1.509,0c0-0.064,0-0.113,0-0.168
			C39.693,26.195,39.695,25.088,39.689,23.981z"/>
	</g>
</g>
<g>
	<g>
		<path d="M18.497,24.2c-0.203-1.205-1.08-2.12-2.275-2.379c-0.129-0.028-0.262-0.05-0.393-0.074c-0.139,0-0.277,0-0.418,0
			c-0.094,0.018-0.189,0.036-0.285,0.053c-1.385,0.231-2.42,1.438-2.426,2.843c-0.006,1.556,0,3.111-0.004,4.666
			c0,0.109,0.031,0.141,0.137,0.141c0.4-0.006,0.801-0.008,1.201,0c0.125,0.002,0.16-0.037,0.158-0.16
			c-0.006-0.629-0.002-1.256-0.002-1.885c0-0.053,0.01-0.102,0.014-0.164c0.051,0.021,0.086,0.035,0.117,0.051
			c0.566,0.277,1.158,0.365,1.783,0.264C17.688,27.296,18.766,25.785,18.497,24.2z M15.624,26.098
			c-0.785,0.002-1.43-0.629-1.43-1.418c0-0.796,0.631-1.419,1.42-1.429c0.762-0.011,1.404,0.631,1.428,1.383
			C17.068,25.373,16.456,26.102,15.624,26.098z"/>
	</g>
</g>
<g>
	<g>
		<path d="M27.605,23.913c-0.002-0.251-0.027-0.506-0.074-0.754c-0.129-0.663-0.515-1.109-1.183-1.274
			c-0.241-0.061-0.498-0.095-0.748-0.103c-0.75-0.02-1.469,0.117-2.141,0.46c-0.062,0.03-0.103,0.027-0.166-0.014
			c-0.144-0.096-0.293-0.195-0.453-0.259c-0.476-0.19-0.972-0.21-1.48-0.175c-0.733,0.051-1.444,0.189-2.141,0.415
			c-0.092,0.03-0.127,0.066-0.127,0.169c0.004,1.652,0.004,3.308,0.004,4.961c0,0.041,0.004,0.08,0.006,0.125
			c0.521,0,1.035,0,1.572,0c0-0.049,0-0.098,0-0.152c0-1.244,0-2.49,0-3.735c0-0.037-0.01-0.076,0.002-0.109
			c0.011-0.032,0.037-0.076,0.064-0.084c0.322-0.095,0.648-0.165,0.986-0.146c0.387,0.02,0.656,0.203,0.76,0.53
			c0.04,0.125,0.061,0.263,0.061,0.396c0.006,1.055,0.004,2.107,0.004,3.161c0,0.047,0,0.095,0,0.138c0.539,0,1.055,0,1.58,0
			c0-0.064,0-0.115,0-0.168c-0.002-1.235,0-2.468-0.006-3.7c0-0.108,0.035-0.158,0.135-0.197c0.297-0.113,0.604-0.169,0.922-0.16
			c0.465,0.013,0.758,0.257,0.839,0.702c0.017,0.116,0.022,0.236,0.022,0.354c0,1.013,0.002,2.025-0.002,3.037
			c0,0.115,0.031,0.15,0.145,0.146c0.429-0.008,0.857-0.002,1.287-0.002c0.043,0,0.086-0.006,0.136-0.008c0-0.062,0-0.111,0-0.16
			C27.609,26.176,27.613,25.044,27.605,23.913z"/>
	</g>
</g>
<g>
</g>
<g>
</g>
<g>
</g>
<g>
</g>
<g>
</g>
<g>
</g>
<g>
</g>
<g>
</g>
<g>
</g>
<g>
</g>
<g>
</g>
<g>
</g>
<g>
</g>
<g>
</g>
<g>
</g>
</svg>
