<?xml version="1.0" encoding="iso-8859-1"?>
<!-- Generator: Adobe Illustrator 19.0.0, SVG Export Plug-In . SVG Version: 6.00 Build 0)  -->
<svg version="1.1" id="Capa_1" xmlns="http://www.w3.org/2000/svg" xmlns:xlink="http://www.w3.org/1999/xlink" x="0px" y="0px"
	 viewBox="0 0 45.35 45.35" style="enable-background:new 0 0 45.35 45.35;" xml:space="preserve">
<g>
	<g>
		<path d="M16.173,21.926c-0.795,0-1.275,0.933-1.275,1.757c0,0.695,0.333,1.162,0.888,1.152c0.332,0,1.054-0.457,1.183-1.256
			c0.037-0.187,0.056-0.391,0.056-0.613C17.024,22.431,16.802,21.926,16.173,21.926z"/>
	</g>
</g>
<g>
	<g>
		<path d="M44.066,30.075c-0.009-0.01-0.02-0.02-0.031-0.023c-0.014-0.005-0.039-0.01-0.076-0.01h-0.088v0.145h0.094
			c0.044,0,0.074-0.008,0.09-0.021s0.023-0.03,0.023-0.052C44.078,30.096,44.074,30.087,44.066,30.075z"/>
	</g>
</g>
<g>
	<g>
		<path d="M44.367,29.989c-0.039-0.07-0.092-0.125-0.164-0.162c-0.069-0.039-0.143-0.058-0.215-0.058
			c-0.074,0-0.148,0.019-0.217,0.058c-0.07,0.037-0.125,0.091-0.164,0.162c-0.04,0.071-0.061,0.143-0.061,0.219
			s0.022,0.149,0.059,0.219c0.039,0.07,0.094,0.125,0.164,0.164c0.07,0.037,0.143,0.057,0.219,0.057c0.076,0,0.149-0.02,0.218-0.057
			c0.069-0.039,0.124-0.094,0.161-0.164c0.039-0.071,0.06-0.143,0.06-0.219S44.406,30.057,44.367,29.989z M44.101,30.452
			l-0.043-0.074c-0.031-0.058-0.057-0.095-0.078-0.111c-0.014-0.01-0.036-0.016-0.062-0.016h-0.045v0.201h-0.076v-0.473h0.162
			c0.056,0,0.096,0.004,0.118,0.014c0.03,0.008,0.048,0.024,0.062,0.045c0.013,0.019,0.021,0.045,0.021,0.068
			c0,0.033-0.012,0.065-0.035,0.092c-0.027,0.023-0.059,0.039-0.1,0.043c0.019,0.001,0.029,0.013,0.041,0.021
			c0.018,0.022,0.041,0.053,0.068,0.096l0.059,0.094H44.101z"/>
	</g>
</g>
<g>
	<g>
		<path d="M27.32,21.987c-0.723,0-1.222,0.72-1.222,1.735c0,0.678,0.278,1.018,0.812,1.018c0.724,0,1.223-0.717,1.223-1.738
			C28.135,22.343,27.857,21.987,27.32,21.987z"/>
	</g>
</g>
<g>
	<g>
		<path d="M32.831,21.859c-0.479,0-0.832,0.329-0.979,0.919l1.7,0.002c0.018-0.104,0.018-0.19,0.018-0.259
			C33.57,22.105,33.293,21.859,32.831,21.859z"/>
	</g>
</g>
<g>
	<g>
		<path d="M31.776,9.099c-3.502,0-6.698,1.328-9.104,3.51c-2.409-2.178-5.6-3.506-9.1-3.506c-0.029,0-0.058,0-0.087,0
			C6.033,9.15,0,15.212,0,22.675c0,7.492,6.08,13.572,13.573,13.572c3.5,0,6.692-1.328,9.099-3.506
			c-0.503-0.457-0.958-0.959-1.388-1.484h2.803c-0.425,0.517-0.886,1.004-1.378,1.453h-0.002c-0.012,0.01-0.023,0.019-0.035,0.031
			c2.407,2.182,5.604,3.51,9.11,3.51c7.496-0.002,13.57-6.08,13.568-13.576c0-0.002,0-0.006,0-0.008
			C45.348,15.171,39.27,9.097,31.776,9.099z M21.437,14.009h2.579c0.383,0.461,0.738,0.945,1.055,1.455H20.47
			C20.764,14.976,21.09,14.478,21.437,14.009z M19.665,16.89h6.187c0.223,0.469,0.418,0.955,0.586,1.453h-7.504
			C19.007,18.202,19.27,17.636,19.665,16.89z M10.682,25.958l0.906-4.846l-2.107,4.846H8.076l-0.259-4.817l-0.924,4.817H5.488
			l1.201-6.305h2.404l0.129,3.904l1.7-3.904h2.516l-1.221,6.305H10.682z M18.669,23.632c-0.241,1.707-1.424,2.462-3.014,2.462
			c-1.756,0-2.458-1.061-2.458-2.364c0-1.816,1.201-3.047,3.05-3.047c1.608,0,2.459,1.013,2.459,2.312
			C18.706,23.315,18.706,23.335,18.669,23.632z M19.444,22.145c0.075-0.445,0.148-0.882,0.186-1.346h1.441l-0.111,0.84h0.019
			c0.444-0.573,0.925-0.959,1.738-0.959c0.906,0,1.404,0.772,1.404,1.78c0,0.347-0.017,0.546-0.11,1.089l-0.425,2.401h-1.608
			l0.426-2.414c0.054-0.256,0.11-0.509,0.11-0.777c0-0.311-0.167-0.616-0.61-0.595c-0.665,0-1.054,0.651-1.165,1.415l-0.443,2.373
			h-1.553L19.444,22.145z M25.087,29.858h-4.815c-0.292-0.471-0.567-0.949-0.802-1.453h6.407
			C25.643,28.907,25.379,29.392,25.087,29.858z M27.725,25.953l0.074-0.504c-0.422,0.395-0.869,0.572-1.44,0.572
			c-1.129,0-1.867-0.854-1.867-2.144c0-1.718,1.144-3.165,2.533-3.165c0.592,0,1.053,0.218,1.479,0.708l0.352-1.813h1.535
			l-1.185,6.346H27.725z M32.793,26.043c-1.719-0.002-2.625-0.791-2.625-2.3c0-1.759,1.146-3.054,2.699-3.054
			c1.278,0,2.09,0.727,2.09,1.864c0,0.378-0.057,0.746-0.186,1.265h-3.089c0,0.08,0,0.117,0,0.162c0,0.595,0.446,0.898,1.351,0.898
			c0.556,0,0.685-0.022,1.258-0.21l-0.24,1.182C33.552,26.034,33.348,26.042,32.793,26.043z M37.691,25.949l-0.517-1.596
			l-1.036,1.596h-1.849l2.053-2.682l-0.999-2.463h1.592l0.496,1.544l0.963-1.544h1.721l-1.924,2.531l1.053,2.614H37.691z
			 M39.986,25.462h-0.168v0.507h-0.127v-0.507h-0.168v-0.098h0.463V25.462z M40.742,25.968h-0.129v-0.497l-0.166,0.497h-0.11
			l-0.167-0.497v0.002v0.495h-0.109v-0.604h0.202l0.13,0.457l0.146-0.457h0.203V25.968z"/>
	</g>
</g>
<g>
</g>
<g>
</g>
<g>
</g>
<g>
</g>
<g>
</g>
<g>
</g>
<g>
</g>
<g>
</g>
<g>
</g>
<g>
</g>
<g>
</g>
<g>
</g>
<g>
</g>
<g>
</g>
<g>
</g>
</svg>
