<?xml version="1.0" encoding="iso-8859-1"?>
<!-- Generator: Adobe Illustrator 19.0.0, SVG Export Plug-In . SVG Version: 6.00 Build 0)  -->
<svg version="1.1" id="Capa_1" xmlns="http://www.w3.org/2000/svg" xmlns:xlink="http://www.w3.org/1999/xlink" x="0px" y="0px"
	 viewBox="0 0 45.35 45.35" style="enable-background:new 0 0 45.35 45.35;" xml:space="preserve">
<g>
	<g>
		<path d="M44.066,30.075c-0.009-0.01-0.02-0.02-0.031-0.023c-0.014-0.005-0.039-0.009-0.076-0.009h-0.088v0.144h0.094
			c0.044,0,0.074-0.007,0.09-0.021c0.015-0.013,0.023-0.03,0.023-0.052C44.078,30.097,44.074,30.087,44.066,30.075z"/>
	</g>
</g>
<g>
	<g>
		<path d="M44.367,29.989c-0.039-0.07-0.094-0.125-0.164-0.162c-0.069-0.039-0.143-0.058-0.215-0.058
			c-0.074,0-0.148,0.019-0.217,0.058c-0.07,0.037-0.125,0.091-0.164,0.162c-0.04,0.071-0.061,0.144-0.061,0.22
			c0,0.075,0.022,0.15,0.059,0.219c0.039,0.069,0.094,0.124,0.164,0.163c0.07,0.038,0.143,0.059,0.219,0.059
			c0.076,0,0.149-0.021,0.218-0.059c0.069-0.039,0.124-0.094,0.161-0.163c0.039-0.072,0.06-0.144,0.06-0.219
			C44.427,30.133,44.406,30.057,44.367,29.989z M44.101,30.452l-0.043-0.074c-0.031-0.058-0.057-0.093-0.078-0.109
			c-0.014-0.012-0.036-0.017-0.062-0.017h-0.045v0.2h-0.076v-0.473h0.162c0.056,0,0.096,0.004,0.118,0.014
			c0.03,0.009,0.047,0.024,0.062,0.045c0.013,0.02,0.021,0.045,0.021,0.068c0,0.034-0.012,0.066-0.035,0.092
			c-0.027,0.023-0.059,0.039-0.1,0.043c0.019,0.003,0.029,0.013,0.041,0.022c0.018,0.021,0.041,0.052,0.068,0.095l0.059,0.094
			H44.101z"/>
	</g>
</g>
<g>
	<g>
		<path d="M31.776,9.099c-3.502,0.001-6.698,1.329-9.104,3.51c-2.409-2.178-5.6-3.506-9.1-3.506c-0.029,0-0.058,0-0.087,0
			C6.033,9.15,0,15.212,0,22.675c0,7.492,6.08,13.572,13.573,13.572c3.5,0,6.692-1.328,9.099-3.506
			c-0.503-0.455-0.958-0.959-1.388-1.484h2.803c-0.425,0.517-0.886,1.004-1.378,1.453h-0.003c0,0.001,0.001,0.001,0.001,0.001
			c-0.012,0.009-0.023,0.018-0.035,0.03c2.407,2.182,5.604,3.511,9.11,3.51c7.496-0.002,13.57-6.08,13.568-13.576
			c0-0.002,0-0.005,0-0.007C45.348,15.172,39.27,9.097,31.776,9.099z M21.437,14.01h2.579c0.383,0.46,0.738,0.945,1.055,1.454H20.47
			C20.764,14.977,21.09,14.479,21.437,14.01z M19.665,16.89h6.187c0.223,0.47,0.418,0.955,0.586,1.453h-7.504
			C19.007,18.203,19.27,17.637,19.665,16.89z M11.122,26.195c-1.303,0.364-2.539,0.485-3.842,0.052
			c-1.163-0.404-2.109-1.451-2.186-2.582c-0.264-1.815,0.604-3.672,2.372-4.524c1.643-0.74,3.519-0.612,5.255-0.166
			c-0.129,0.568-0.196,0.889-0.372,1.579c-1.085-0.461-2.542-0.702-3.658-0.004c-1.055,0.671-1.411,1.718-1.334,2.877
			c0.078,0.56,0.496,1.105,1.087,1.34c1.021,0.377,1.998,0.242,3.084-0.313C11.373,25.153,11.256,25.7,11.122,26.195z M14.553,26.5
			h-2.21l1.314-6.172h2.21L14.553,26.5z M18.269,26.495h-2.301l0.106-0.414c0.404-1.911,0.921-3.84,1.212-5.75h2.022
			c0.048,0.32-0.098,0.627-0.129,0.948c0.436-0.397,0.897-1.197,2.524-0.982L21,22.024l-0.365-0.072
			c-0.595-0.087-1.137,0.361-1.408,0.826C18.709,23.94,18.542,25.241,18.269,26.495z M25.087,29.858h-4.815
			c-0.292-0.47-0.567-0.949-0.802-1.453h6.407C25.643,28.907,25.379,29.392,25.087,29.858z M25.664,21.952
			c-0.596-0.086-1.138,0.361-1.409,0.826c-0.519,1.162-0.685,2.465-0.958,3.719h-2.302l0.106-0.416
			c0.404-1.91,0.921-3.838,1.213-5.748h2.022c0.049,0.32-0.1,0.626-0.129,0.947c0.434-0.397,0.896-1.197,2.523-0.982l-0.703,1.727
			L25.664,21.952z M33.025,26.5h-2.084l0.176-1.005h-0.024c-0.65,0.686-1.321,1.146-2.508,1.146c-1.31,0-2.021-0.92-2.021-2.123
			c0-0.412,0.035-0.651,0.174-1.298l0.6-2.865h2.203l-0.624,2.875c-0.061,0.307-0.149,0.616-0.149,0.932
			c0,0.367,0.366,0.732,0.99,0.709c0.948,0,1.51-0.78,1.672-1.688l0.637-2.83h2.244L33.3,24.894
			C33.188,25.424,33.088,25.942,33.025,26.5z M39.981,21.791c-0.572-0.059-1.177-0.095-1.619-0.095
			c-0.728,0-1.103,0.175-1.103,0.513c0,0.293,0.111,0.364,1.054,0.681c1.129,0.382,1.588,0.888,1.588,1.747
			c0,1.434-1.099,2.096-3.475,2.096c-0.292,0-0.707-0.019-1.243-0.054c-0.259-0.019-0.454-0.035-0.588-0.055l-0.413-0.064
			l-0.1-0.014l0.309-1.448c0.723,0.174,1.348,0.249,2.02,0.249c0.893,0,1.293-0.174,1.293-0.565c0-0.285-0.141-0.379-1.053-0.692
			c-1.192-0.41-1.715-0.956-1.715-1.749c-0.009-1.158,0.863-2.122,3.383-2.123c0.514,0,1.398,0.055,1.982,0.123L39.981,21.791z
			 M41.262,26.943c-0.039,0.07-0.093,0.125-0.163,0.164c-0.071,0.037-0.142,0.058-0.218,0.058c-0.076,0-0.152-0.021-0.22-0.058
			c-0.068-0.039-0.122-0.094-0.162-0.164c-0.038-0.071-0.059-0.143-0.059-0.218c0-0.075,0.021-0.152,0.061-0.22
			c0.039-0.07,0.094-0.125,0.164-0.163c0.07-0.037,0.145-0.058,0.216-0.058c0.074,0,0.148,0.021,0.216,0.058
			c0.07,0.038,0.125,0.092,0.164,0.163c0.04,0.071,0.061,0.145,0.061,0.22C41.322,26.8,41.302,26.873,41.262,26.943z"/>
	</g>
</g>
<g>
	<g>
		<path d="M41.199,26.542c-0.031-0.059-0.078-0.104-0.137-0.137c-0.06-0.031-0.117-0.047-0.181-0.047
			c-0.064,0-0.121,0.016-0.181,0.047c-0.059,0.033-0.106,0.076-0.137,0.137c-0.033,0.059-0.051,0.12-0.051,0.183
			c0,0.065,0.018,0.124,0.049,0.183c0.032,0.06,0.077,0.105,0.135,0.137c0.061,0.031,0.119,0.049,0.185,0.049
			c0.066,0,0.124-0.018,0.183-0.049c0.06-0.033,0.105-0.077,0.137-0.137c0.031-0.059,0.048-0.119,0.048-0.183
			C41.249,26.661,41.232,26.601,41.199,26.542z M40.996,26.967l-0.041-0.073c-0.033-0.057-0.059-0.093-0.08-0.111
			c-0.014-0.01-0.037-0.016-0.061-0.016h-0.045v0.201h-0.078v-0.001v-0.472h0.164c0.055,0,0.094,0.004,0.118,0.013
			c0.027,0.011,0.046,0.025,0.062,0.046c0.013,0.021,0.021,0.045,0.021,0.068c0,0.035-0.012,0.067-0.036,0.091
			c-0.026,0.024-0.058,0.04-0.099,0.043c0.017,0.004,0.03,0.013,0.04,0.024c0.019,0.02,0.042,0.051,0.07,0.095l0.058,0.092H40.996z"
			/>
	</g>
</g>
<g>
	<g>
		<path d="M40.96,26.592c-0.01-0.009-0.017-0.018-0.032-0.024c-0.013-0.006-0.039-0.009-0.075-0.009h-0.088v0.144h0.094
			c0.045,0,0.073-0.008,0.09-0.021c0.018-0.014,0.026-0.031,0.023-0.053C40.972,26.614,40.968,26.603,40.96,26.592z"/>
	</g>
</g>
<g>
</g>
<g>
</g>
<g>
</g>
<g>
</g>
<g>
</g>
<g>
</g>
<g>
</g>
<g>
</g>
<g>
</g>
<g>
</g>
<g>
</g>
<g>
</g>
<g>
</g>
<g>
</g>
<g>
</g>
</svg>
